<svg width="214" height="44" viewBox="0 0 214 44" fill="none" xmlns="http://www.w3.org/2000/svg">
<g clip-path="url(#clip0_1_480)">
<path d="M30.0974 0.349277C39.3888 -1.56243 45.4604 4.57184 43.669 13.8959C43.1965 16.3544 42.038 18.6442 41.7506 21.1308C41.5518 22.8521 41.9371 24.5588 42.6825 26.4504C43.6643 28.942 44.0577 31.8999 43.8376 34.5791C43.2955 41.1764 37.5219 44.8399 30.3055 43.4039C27.9543 42.9361 25.7192 41.9111 23.3897 41.2975C22.5098 41.0659 21.3936 40.9973 20.5877 41.3338C16.9552 42.8503 13.2623 44.0569 9.28428 43.5348C6.70875 43.1966 4.69943 42.1802 2.75496 39.9522C-1.43892 35.1462 -0.0482312 30.3028 1.7225 25.5003C2.70301 22.841 2.79091 20.7482 1.70429 18.1422C1.51267 17.6826 1.35283 17.2089 1.21634 16.7252C0.037888 12.5481 -0.455467 7.71101 2.03119 4.14866C4.40955 0.741683 8.72684 -0.647569 13.8886 0.339728C16.6572 0.869441 19.2915 2.79927 21.9882 2.80231C24.6868 2.80509 27.3292 0.919058 30.0974 0.349277ZM170.983 10.1318C171.201 10.1313 171.377 10.3071 171.378 10.5243L171.45 31.5503C171.464 35.4646 170.435 38.4115 168.368 40.3914C166.331 42.4024 163.112 43.416 158.71 43.4307L155.709 43.4402C155.491 43.4408 155.315 43.2651 155.314 43.0478L155.303 39.8901C155.302 39.6726 155.479 39.4955 155.697 39.4948L158.271 39.4862C163.845 39.4675 166.845 37.342 167.27 33.1096C167.294 32.8837 167.111 32.6928 166.883 32.6933L163.343 32.7047C159.224 32.7185 156.407 32.0079 154.894 30.5726C153.411 29.137 152.662 26.2117 152.648 21.7964L152.609 10.5873C152.608 10.3701 152.785 10.1939 153.003 10.1929L156.363 10.1815C156.581 10.1809 156.759 10.3566 156.759 10.574L156.798 21.9702C156.807 24.5067 157.205 26.275 157.995 27.2744C158.784 28.2738 160.232 28.7701 162.338 28.7631L166.895 28.7478C167.113 28.747 167.29 28.5699 167.289 28.3525L167.228 10.5386C167.228 10.3212 167.405 10.1442 167.623 10.1433L170.983 10.1318ZM35.1245 3.62922C31.9538 3.15188 28.9494 3.78521 26.1017 5.11021C28.9967 7.76389 31.8782 10.2236 34.5397 12.899C36.9275 15.299 36.8205 15.404 34.8571 18.4936C30.6909 13.5223 26.2481 8.9114 20.0518 5.94285C16.8428 4.45316 13.5615 3.24242 9.93138 3.51178C6.26316 3.78413 3.73567 5.93389 3.66568 9.56846C3.61179 12.3757 4.37585 15.1992 4.79303 18.1326C8.13293 14.6689 11.0114 11.5763 14.0411 8.63842C15.1476 7.5654 16.6308 7.46655 17.7184 8.55822C17.9709 8.81175 18.1831 9.03185 18.3013 9.15883C17.8985 9.63294 17.5085 10.015 17.0761 10.4564C15.6602 11.8669 14.2618 13.2587 12.6127 14.9013C11.6903 15.8201 10.9355 16.5723 10.0722 17.5721C6.4342 21.4998 4.14316 26.4552 3.58035 31.9619C3.17898 35.8904 4.83318 38.9414 8.03037 39.8232C11.5296 40.7881 14.854 39.9943 18.24 38.4731C16.556 37.131 15.0276 36.0071 13.6116 34.7577C12.186 33.4998 10.8234 32.1611 9.51915 30.7778C7.27446 28.3971 7.29025 28.0804 9.33701 25.2463C9.80718 25.8197 10.2591 26.3798 10.7203 26.9316C14.4218 31.3592 18.7309 35.0615 23.9161 37.6643C27.2901 39.3579 30.8127 40.5711 34.6893 40.1192C37.8797 39.7472 40.07 37.6108 40.4489 34.455C40.8129 31.4212 40.0973 28.5757 38.9217 25.8784C36.1652 28.8075 33.5688 31.7458 30.7723 34.4807C28.5062 36.697 28.174 36.5898 25.9877 34.8885C29.4325 30.8816 33.1251 27.0283 36.2825 22.7808C39.0548 19.0515 40.7252 14.7128 40.4996 9.89696C40.3433 6.56302 38.2664 4.10242 35.1245 3.62922ZM75.633 0.116291C75.8513 0.115557 76.0291 0.291269 76.0299 0.508738L76.1372 32.2082C76.1387 32.6432 75.7859 32.9974 75.3492 32.9988L65.0572 33.0332C61.6306 33.0446 58.8448 31.9734 56.6998 29.8201C54.5545 27.6352 53.4756 24.8829 53.4644 21.5634C53.4533 18.3067 54.5449 15.5787 56.7381 13.3793C58.9628 11.1484 61.6002 10.0275 64.6498 10.0172C66.5209 10.011 68.2781 10.4385 69.9204 11.2987C70.0471 11.3653 70.125 11.4969 70.1256 11.6396L70.1362 14.867C70.1372 15.1879 69.77 15.3793 69.4929 15.2155C68.0702 14.3746 66.4604 13.9567 64.6633 13.9628C62.777 13.9691 61.176 14.6796 59.8604 16.093C58.5761 17.4751 57.9375 19.2936 57.945 21.5482C57.9528 23.8341 58.5722 25.6639 59.8029 27.0376C61.0651 28.4113 62.8125 29.0952 65.0447 29.0877L71.4868 29.0658C71.7052 29.065 71.8816 28.8879 71.8808 28.6705L71.7859 0.523061C71.7852 0.305592 71.9616 0.128482 72.1799 0.127748L75.633 0.116291ZM206.676 9.54363C209.328 9.53473 211.7 10.3148 213.793 11.883C213.979 12.0227 213.995 12.2936 213.832 12.4598L211.607 14.7286C211.468 14.8704 211.245 14.8865 211.08 14.7744C209.819 13.9124 208.355 13.4845 206.689 13.4901C204.52 13.4974 202.793 14.2233 201.509 15.6681C200.257 17.0815 199.634 18.9627 199.642 21.3113C199.65 23.6598 200.285 25.5518 201.548 26.988C202.841 28.3928 204.573 29.0921 206.741 29.0849C208.433 29.0792 209.88 28.6568 211.081 27.8178C211.243 27.7049 211.464 27.7156 211.607 27.8531L213.882 30.0674C214.05 30.2316 214.038 30.5057 213.851 30.6479C211.77 32.2273 209.405 33.0215 206.755 33.0303C203.265 33.042 200.464 31.9399 198.35 29.7237C196.236 27.476 195.173 24.6764 195.162 21.3256C195.15 18.0377 196.243 15.2632 198.436 13.0012C200.659 10.7077 203.406 9.5547 206.676 9.54363ZM87.9429 10.4135C90.9925 10.4033 93.3375 11.1465 94.9774 12.644C96.6174 14.1417 97.4422 16.2998 97.4517 19.118L97.4967 32.5348C97.4974 32.7521 97.321 32.9294 97.1028 32.9301L86.9814 32.9635C84.3092 32.9724 82.1852 32.3846 80.6093 31.1999C79.0334 30.0152 78.2415 28.28 78.2338 25.994C78.226 23.708 79.0535 21.9674 80.7157 20.7718C82.3779 19.5763 84.4664 18.9737 86.9814 18.9653C88.3141 18.9608 89.7314 19.1788 91.233 19.6184C91.3986 19.6668 91.5112 19.8189 91.512 19.9908L91.5225 23.1332C91.5236 23.4592 91.1437 23.6521 90.8601 23.4893C89.798 22.8797 88.5565 22.5776 87.1357 22.5823C85.6581 22.5872 84.5116 22.8888 83.6961 23.4865C82.8806 24.0529 82.4741 24.8681 82.4777 25.9329C82.4847 27.9996 84.0289 29.0274 87.1099 29.0171L92.9394 28.9979C93.1577 28.9973 93.3342 28.8201 93.3334 28.6026L93.3046 20.0252C93.2918 16.236 91.4303 14.3475 87.7206 14.3599L80.57 14.3838C80.3519 14.3844 80.1749 14.2087 80.1741 13.9914L80.1635 10.8327C80.163 10.6155 80.3386 10.4393 80.5566 10.4384L87.9429 10.4135ZM105.177 6.56255C105.424 6.31366 105.851 6.4877 105.852 6.83851L105.863 9.95612C105.864 10.1736 106.042 10.3493 106.26 10.3486L111.835 10.3304C112.053 10.3297 112.231 10.5054 112.232 10.7229L112.243 13.8806C112.244 14.0981 112.067 14.2752 111.848 14.2759L106.273 14.295C106.054 14.2958 105.879 14.4721 105.879 14.6893L105.91 23.9726C105.913 25.0684 106.09 25.9758 106.438 26.6949C106.818 27.4137 107.354 27.9289 108.046 28.2398C108.739 28.5193 109.384 28.7045 109.982 28.7965C110.518 28.8747 111.157 28.9189 111.898 28.9282C112.116 28.9312 112.295 29.1063 112.296 29.3235L112.306 32.4823C112.307 32.6996 112.129 32.8771 111.911 32.8747C108.496 32.8373 105.953 32.1575 104.283 30.8361C102.549 29.4641 101.676 27.1808 101.666 23.9868L101.634 14.7037C101.633 14.4865 101.456 14.3107 101.238 14.3112L98.3897 14.3208C98.0382 14.3218 97.8602 13.8984 98.1084 13.6496L105.177 6.56255ZM122.949 10.2951C125.999 10.2848 128.344 11.0281 129.983 12.5256C131.624 14.0233 132.448 16.1814 132.458 18.9996L132.502 32.4164C132.503 32.6337 132.326 32.811 132.108 32.8117L121.988 32.8451C119.315 32.854 117.191 32.2662 115.615 31.0815C114.039 29.8968 113.247 28.1616 113.239 25.8756C113.232 23.5896 114.059 21.849 115.722 20.6534C117.384 19.458 119.473 18.8554 121.988 18.8469C123.32 18.8424 124.737 19.0604 126.239 19.5C126.404 19.5485 126.517 19.7005 126.518 19.8723L126.529 23.0148C126.53 23.3408 126.15 23.5338 125.866 23.3709C124.804 22.7613 123.562 22.4592 122.142 22.4638C120.664 22.4688 119.518 22.7704 118.702 23.3681C117.886 23.9345 117.48 24.7498 117.484 25.8145C117.491 27.8812 119.035 28.909 122.115 28.8987L127.945 28.8795C128.163 28.8789 128.34 28.7017 128.339 28.4842L128.31 19.9068C128.298 16.1176 126.437 14.2291 122.727 14.2415L115.576 14.2654C115.358 14.266 115.181 14.0903 115.18 13.873L115.169 10.7143C115.169 10.4971 115.345 10.3209 115.563 10.3199L122.949 10.2951ZM150.09 10.2025C150.308 10.2017 150.486 10.3776 150.487 10.5949L150.498 13.7536C150.498 13.971 150.322 14.1481 150.103 14.1489L142.152 14.1756C141.24 14.1787 140.454 14.3532 139.795 14.6999C139.136 15.0465 138.807 15.5329 138.809 16.1589C138.811 16.5347 138.891 16.8795 139.049 17.1921C139.208 17.4734 139.382 17.7076 139.571 17.8949C139.792 18.0819 140.107 18.2844 140.516 18.5022C140.956 18.6885 141.287 18.8282 141.507 18.9214C141.759 18.9832 142.766 19.2936 144.528 19.8513C146.291 20.409 147.598 20.8745 148.448 21.2474C149.297 21.6202 149.944 22.1344 150.386 22.7904C150.86 23.4151 151.161 24.0408 151.289 24.6667C151.417 25.2612 151.481 25.8564 151.483 26.4513C151.498 30.6474 148.612 32.7551 142.827 32.7744L135.064 32.8002C134.846 32.8009 134.668 32.6252 134.668 32.4078L134.657 29.25C134.656 29.0327 134.833 28.8556 135.05 28.8547L142.813 28.829C145.769 28.819 147.245 28.0305 147.239 26.4647C147.236 25.7134 146.794 25.0883 145.912 24.5903C145.168 24.1544 144.267 23.7795 143.211 23.4645L141.825 23.0693C140.898 22.7964 139.963 22.4973 139.018 22.1717C137.791 21.7062 136.736 20.9734 135.853 19.9745C134.999 18.9439 134.57 17.6764 134.566 16.1732C134.56 14.2631 135.293 12.8051 136.767 11.7981C138.242 10.7598 140.031 10.2363 142.138 10.2292L150.09 10.2025ZM182.372 10.0936C185.862 10.082 188.364 10.5902 189.877 11.6185C191.231 12.5221 192.084 13.6157 192.434 14.8985C192.816 16.1498 193.01 17.8086 193.017 19.8752L193.058 32.2111C193.059 32.4286 192.883 32.6057 192.665 32.6064L189.305 32.6179C189.086 32.6186 188.909 32.4429 188.908 32.2254L188.867 19.9363C188.866 19.373 188.848 18.9035 188.816 18.5279C188.782 18.121 188.67 17.6201 188.48 17.0259C188.289 16.4003 188.019 15.8995 187.673 15.5249C187.325 15.1192 186.822 14.7761 186.161 14.4965C185.5 14.1856 184.697 14.0322 183.753 14.0353L178.772 14.0515C178.554 14.0524 178.378 14.2295 178.379 14.4469L178.439 32.2607C178.439 32.4781 178.263 32.6553 178.045 32.656L174.686 32.6666C174.468 32.6673 174.29 32.4916 174.289 32.2741L174.215 10.5147C174.214 10.2976 174.391 10.1213 174.609 10.1204L182.372 10.0936ZM22.0448 18.9366C23.6385 18.9366 24.9301 20.2234 24.9303 21.8107C24.9303 23.3983 23.6386 24.6849 22.0448 24.6849C20.4511 24.6847 19.1593 23.3981 19.1593 21.8107C19.1595 20.2235 20.4512 18.9368 22.0448 18.9366Z" fill="url(#paint0_linear_1_480)"/>
</g>
<defs>
<linearGradient id="paint0_linear_1_480" x1="20.1562" y1="3.40895" x2="32.8337" y2="69.6516" gradientUnits="userSpaceOnUse">
<stop stop-color="#E5A9E7"/>
<stop offset="1" stop-color="#7182F2"/>
</linearGradient>
<clipPath id="clip0_1_480">
<rect width="214" height="44" fill="white"/>
</clipPath>
</defs>
</svg>
