<svg width="48" height="48" viewBox="0 0 48 48" fill="none" xmlns="http://www.w3.org/2000/svg">
<path d="M24.0224 0.000379779C27.1712 0.0147544 30.2861 0.641892 33.1883 1.84579C36.0906 3.0497 38.723 4.80666 40.9345 7.01582C43.146 9.22499 44.893 11.8429 46.0752 14.7191C47.2575 17.5954 47.8514 20.6735 47.8234 23.7767C47.795 26.9092 47.1329 30.0047 45.8755 32.8819C44.6182 35.759 42.7911 38.3601 40.5011 40.5326C38.211 42.7052 35.504 44.4056 32.5389 45.5344C29.5737 46.6631 26.4101 47.1975 23.2328 47.1062C16.9065 46.9072 10.9162 44.2532 6.56609 39.722C2.21599 35.1908 -0.141639 29.1494 0.00658942 22.9132C0.173787 16.7573 2.78151 10.9111 7.27092 6.62784C11.7603 2.34462 17.774 -0.0345749 24.0224 0.000379779ZM24.0617 2.12566C21.1572 2.11032 18.2792 2.66769 15.5965 3.76498C12.9139 4.86226 10.4809 6.47729 8.441 8.51502C6.40112 10.5527 4.79547 12.972 3.71844 15.6304C2.6414 18.2889 2.11466 21.1328 2.16947 23.9947C2.2203 26.8163 2.83837 29.6 3.98796 32.1846C5.13755 34.7692 6.79596 37.1035 8.86695 39.0524C10.9379 41.0013 13.3804 42.5261 16.0532 43.5385C18.726 44.5509 21.5761 45.0309 24.4384 44.9507C30.0962 44.82 35.4792 42.5189 39.4419 38.5369C43.4047 34.5549 45.6344 29.2063 45.6571 23.6288C45.6892 20.8147 45.1543 18.0223 44.0832 15.4135C43.0121 12.8047 41.4261 10.4314 39.4174 8.43118C37.4086 6.43096 35.017 4.84364 32.3811 3.76125C29.7452 2.67885 26.9173 2.12291 24.0617 2.12566Z" fill="#0F75BC"/>
<path d="M24.6872 31.2243H21.2696C21.2063 31.1682 21.1849 31.1532 21.1666 31.1319C21.1483 31.1105 21.1187 31.092 21.1141 31.0686C21.0805 30.9395 21.0593 30.8078 21.0508 30.6752C21.0564 27.4505 21.0657 24.2259 21.0789 21.0012C21.1048 20.8926 21.1454 20.7874 21.1996 20.6882C22.1735 20.6882 23.1716 20.6832 24.1699 20.6882C24.2282 20.6852 24.2866 20.6937 24.341 20.7133C24.3955 20.7329 24.4449 20.763 24.4859 20.8018C24.5269 20.8406 24.5584 20.887 24.5786 20.9381C24.5989 20.9891 24.6073 21.0436 24.6032 21.0979C24.6123 21.258 24.6032 21.418 24.6032 21.6805C24.8175 21.5383 24.9685 21.4472 25.1111 21.3441C25.6876 20.9134 26.3696 20.6229 27.0962 20.4988C27.8227 20.3746 28.571 20.4207 29.2737 20.6327C29.9294 20.8108 30.5161 21.1613 30.9638 21.6423C31.4115 22.1234 31.7012 22.7145 31.7981 23.345C31.917 23.8164 31.9807 24.2984 31.9881 24.7826C32.0109 26.7743 32.0009 28.7603 31.9994 30.7499C31.9885 30.8976 31.9683 31.0446 31.9391 31.1902H28.4118C28.3882 30.9391 28.3493 30.7101 28.3485 30.4789C28.3447 28.8926 28.3555 27.3071 28.3448 25.7215C28.3442 25.3732 28.3048 25.0259 28.2273 24.6851C28.2028 24.3436 28.0343 24.025 27.7586 23.7991C27.4829 23.5731 27.1225 23.4582 26.7562 23.4795C26.3511 23.4225 25.9378 23.5087 25.5973 23.7211C25.2568 23.9334 25.0135 24.2567 24.9151 24.6275C24.7941 25.1245 24.7327 25.6324 24.732 26.1419C24.7122 27.5397 24.732 28.9374 24.732 30.3352C24.7336 30.5998 24.707 30.8623 24.6872 31.2243Z" fill="#0F75BC"/>
<path d="M15.678 20.4307H19.855C19.9597 21.3279 19.9853 22.23 19.9318 23.1301C19.9598 24.0122 19.9481 24.8957 19.9499 25.7778C19.9499 26.6876 19.9499 27.5974 19.9499 28.5079C19.9499 29.3834 19.9499 30.2545 19.9499 31.2227C18.5747 31.2227 17.3234 31.2285 16.072 31.2183C16.0023 31.2207 15.9327 31.2107 15.8684 31.1889C15.8041 31.1672 15.7466 31.1342 15.6999 31.0924C15.6532 31.0506 15.6186 31.0009 15.5984 30.947C15.5782 30.8931 15.573 30.8363 15.5832 30.7806C15.5832 30.4501 15.5993 30.1188 15.6002 29.7883C15.6062 26.9186 15.612 24.0501 15.6174 21.1829C15.6156 20.9501 15.6536 20.7108 15.678 20.4307Z" fill="#0F75BC"/>
<path d="M17.7837 19.3517C17.2075 19.3443 16.6564 19.1189 16.2454 18.7227C15.8345 18.3265 15.5955 17.7899 15.5781 17.2249C15.5995 16.6611 15.8333 16.125 16.2342 15.7204C16.6351 15.3158 17.1747 15.0713 17.7487 15.0342C18.3209 15.0745 18.8592 15.3156 19.265 15.7133C19.6709 16.111 19.9172 16.6387 19.959 17.1999C19.9481 17.7642 19.716 18.3027 19.3109 18.7034C18.9058 19.1041 18.3588 19.3363 17.7837 19.3517Z" fill="#0F75BC"/>
</svg>
