<svg width="80" height="81" viewBox="0 0 80 81" fill="none" xmlns="http://www.w3.org/2000/svg">
<rect width="80" height="80.0277" rx="20" fill="#051336"/>
<mask id="mask0_416_671" style="mask-type:alpha" maskUnits="userSpaceOnUse" x="0" y="0" width="80" height="81">
<rect width="80" height="80.0277" rx="20" fill="#051336"/>
</mask>
<g mask="url(#mask0_416_671)">
<path fill-rule="evenodd" clip-rule="evenodd" d="M27.5451 52.3553C27.3132 49.933 29.5155 46.0379 31.371 44.1826C31.8051 43.7485 32.1976 43.4491 32.5762 43.2449C32.6614 43.4253 32.7784 43.5938 32.9271 43.7425L33.2898 44.1053C32.8557 44.807 32.9429 45.7407 33.5515 46.3492C34.16 46.9578 35.0937 47.045 35.7955 46.6109L36.1582 46.9736C36.3069 47.1223 36.4754 47.2393 36.6558 47.3245C36.4536 47.7031 36.1523 48.0956 35.7181 48.5297C33.8647 50.3851 29.9673 52.5873 27.5451 52.3553ZM29.7355 54.3337C29.914 54.1553 30.2014 54.1553 30.3798 54.3337C30.5582 54.5121 30.5582 54.7995 30.3798 54.9779L23.5031 61.8525C23.3247 62.0309 23.0372 62.0309 22.8589 61.8525C22.6805 61.6741 22.6805 61.3867 22.8589 61.2083L29.7355 54.3337ZM24.9225 49.5206L18.0479 56.3973C17.8695 56.5757 17.8695 56.8632 18.0479 57.0416C18.2263 57.22 18.5137 57.22 18.6921 57.0416L25.5668 50.1669C25.7452 49.9885 25.7452 49.7011 25.5668 49.5227C25.3903 49.3443 25.1009 49.3442 24.9225 49.5206ZM27.0793 42.0056L22.1037 46.9811C21.9253 47.1595 21.9253 47.447 22.1037 47.6253C22.2821 47.8038 22.5695 47.8038 22.7479 47.6253L27.7235 42.6498C27.9019 42.4714 27.9019 42.1839 27.7235 42.0056C27.5451 41.8271 27.2576 41.8271 27.0793 42.0056ZM37.2504 52.1767L32.2749 57.1523C32.0965 57.3307 32.0965 57.6181 32.2749 57.7965C32.4533 57.9749 32.7407 57.9749 32.9191 57.7965L37.8947 52.8209C38.0731 52.6425 38.0731 52.3551 37.8947 52.1767C37.7182 52.0003 37.4288 52.0003 37.2504 52.1767ZM31.0319 58.3973L30.3758 59.0534C30.1974 59.2318 30.1974 59.5192 30.3758 59.6976C30.5542 59.876 30.8416 59.876 31.02 59.6976L31.6762 59.0415C31.8546 58.8631 31.8546 58.5756 31.6762 58.3973C31.4977 58.2188 31.2083 58.2188 31.0319 58.3973ZM20.8587 48.2261C21.0371 48.0477 21.3246 48.0477 21.503 48.2261C21.6814 48.4045 21.6814 48.6919 21.503 48.8703L20.8468 49.5265C20.6684 49.7049 20.381 49.7049 20.2026 49.5265C20.0242 49.3481 20.0242 49.0606 20.2026 48.8822L20.8587 48.2261ZM42.2774 36.3341L34.1955 44.416C33.8406 44.7709 33.8406 45.3477 34.1955 45.7045C34.5503 46.0594 35.1271 46.0594 35.484 45.7045L43.5659 37.6226C43.9207 37.2678 43.9207 36.691 43.5659 36.3341C43.2091 35.9793 42.6342 35.9793 42.2774 36.3341ZM50.4324 24.8466C51.709 24.8466 52.8627 25.3639 53.6992 26.2005C54.5357 27.037 55.0531 28.1907 55.0531 29.4673C55.0531 30.7439 54.5358 31.8976 53.6992 32.7341C52.8627 33.5706 51.709 34.0881 50.4324 34.0881C49.1558 34.0881 48.0021 33.5707 47.1656 32.7341C46.3291 31.8976 45.8117 30.7439 45.8117 29.4673C45.8117 28.1907 46.329 27.037 47.1656 26.2005C48.0021 25.364 49.1558 24.8466 50.4324 24.8466ZM53.055 26.8447C52.383 26.1727 51.4573 25.7584 50.4324 25.7584C49.4075 25.7584 48.4798 26.1727 47.8098 26.8447C47.1378 27.5167 46.7235 28.4424 46.7235 29.4673C46.7235 30.4922 47.1378 31.4199 47.8098 32.0899C48.4818 32.7619 49.4075 33.1762 50.4324 33.1762C51.4573 33.1762 52.385 32.7619 53.055 32.0899C53.727 31.4179 54.1413 30.4922 54.1413 29.4673C54.1413 28.4424 53.727 27.5147 53.055 26.8447ZM44.8046 24.6027C40.8658 28.5415 36.9688 33.8107 34.1163 38.5758C33.7754 39.1448 33.8626 39.8504 34.3324 40.3203L35.6684 41.6563L41.6352 35.6895C42.3469 34.9779 43.5006 34.9779 44.2102 35.6895C44.9218 36.4011 44.9218 37.5549 44.2102 38.2645L38.2434 44.2313L39.5795 45.5674C40.0493 46.0372 40.755 46.1244 41.3239 45.7834C46.0893 42.9309 51.3581 39.0336 55.297 35.0952C58.3735 32.0186 60.4174 28.6904 61.4003 25.5644C60.5915 25.3404 59.8026 25.0153 59.0572 24.5852C58.296 24.1471 57.5804 23.6059 56.9362 22.9617C56.292 22.3174 55.7508 21.6038 55.3127 20.8406C54.8845 20.0952 54.5574 19.3063 54.3334 18.4975C51.2094 19.4808 47.8808 21.5264 44.8046 24.6027ZM55.2097 18.2492C57.2812 17.7219 59.2436 17.6764 60.9583 18.1204C61.3706 18.2274 61.6719 18.5268 61.779 18.9411C62.223 20.6557 62.1774 22.6182 61.6501 24.6897C60.9087 24.4855 60.1892 24.1881 59.5112 23.7976C58.8253 23.4032 58.1772 22.9096 57.5824 22.3168C56.9897 21.7241 56.4962 21.0739 56.1017 20.3881C55.7092 19.7101 55.4119 18.9906 55.2097 18.2492ZM41.8034 46.5563C44.1445 45.1548 46.4222 43.6205 48.6126 41.9891C49.9289 46.6851 47.3995 51.2305 43.0107 53.9008C42.7966 54.0317 42.5349 54.0099 42.3446 53.8493C42.1543 53.6887 42.0889 53.433 42.1821 53.2011C43.0721 50.9691 42.9908 48.7052 41.8034 46.5563ZM38.7388 46.0151L37.599 44.8753L36.473 46.0012L36.8001 46.3283C37.0657 46.594 37.4542 46.6574 37.7912 46.4889L38.7388 46.0151ZM33.898 43.4242L35.024 42.2983L33.8841 41.1584L33.4104 42.106C33.2419 42.443 33.3053 42.8315 33.5709 43.0971L33.898 43.4242ZM33.3429 38.0958C31.1961 36.9085 28.9303 36.8272 26.6982 37.7172C26.4662 37.8104 26.2105 37.7469 26.05 37.5547C25.8894 37.3644 25.8676 37.1027 25.9984 36.8886C28.6686 32.4998 33.2141 29.9703 37.9102 31.2867C36.2768 33.4751 34.7444 35.7547 33.3429 38.0958Z" fill="white"/>
<g filter="url(#filter0_f_416_671)">
<circle cx="69.3936" cy="68.614" r="23.1865" fill="#7583F2"/>
</g>
</g>
<defs>
<filter id="filter0_f_416_671" x="12.207" y="11.4275" width="114.373" height="114.373" filterUnits="userSpaceOnUse" color-interpolation-filters="sRGB">
<feFlood flood-opacity="0" result="BackgroundImageFix"/>
<feBlend mode="normal" in="SourceGraphic" in2="BackgroundImageFix" result="shape"/>
<feGaussianBlur stdDeviation="17" result="effect1_foregroundBlur_416_671"/>
</filter>
</defs>
</svg>
