<svg width="80" height="81" viewBox="0 0 80 81" fill="none" xmlns="http://www.w3.org/2000/svg">
<rect width="80" height="80.0277" rx="20" fill="#051336"/>
<mask id="mask0_416_682" style="mask-type:alpha" maskUnits="userSpaceOnUse" x="0" y="0" width="80" height="81">
<rect width="80" height="80.0277" rx="20" fill="#051336"/>
</mask>
<g mask="url(#mask0_416_682)">
<path fill-rule="evenodd" clip-rule="evenodd" d="M22.0277 38.9046C22.457 29.776 29.7928 22.438 38.9236 22.0109V31.3193C33.0533 31.6915 28.0632 35.8594 25.8978 37.9844C25.8978 37.9844 25.8915 37.9907 25.8851 37.9971C25.6271 38.2614 25.4347 38.5722 25.3163 38.9042L22.0277 38.9046ZM40.6153 22.0109C49.744 22.4381 57.0798 29.776 57.5091 38.9046H54.2166C54.0982 38.5727 53.9121 38.2618 53.652 37.9975C53.6457 37.9911 53.6414 37.9911 53.6351 37.9848C51.476 35.8596 46.4855 31.6916 40.6152 31.3197L40.6153 22.0109ZM57.5091 40.5963C57.0798 49.725 49.744 57.063 40.6153 57.4901V48.1817C46.4857 47.8095 51.4758 43.6416 53.6412 41.5166C53.6412 41.5166 53.6454 41.5103 53.6517 41.5039C53.9118 41.2396 54.1022 40.9288 54.2206 40.5968L57.5091 40.5963ZM38.9236 57.4901C29.7928 57.0629 22.457 49.725 22.0277 40.5963H25.3223C25.4407 40.9283 25.6268 41.2392 25.8848 41.5035C25.8912 41.5099 25.8975 41.5099 25.9017 41.5162C28.0629 43.6414 33.0534 47.8094 38.9238 48.1813L38.9236 57.4901ZM39.7695 32.9834C45.4812 32.9834 50.3636 37.1387 52.4445 39.1813C52.5968 39.3378 52.6708 39.5471 52.6708 39.7501C52.6708 39.9531 52.5968 40.1561 52.4509 40.3147C50.3637 42.3617 45.4811 46.5169 39.7693 46.5169C34.0554 46.5169 29.1731 42.3617 27.0921 40.3191C26.9399 40.1626 26.8659 39.9532 26.8659 39.7502C26.8659 39.5472 26.9399 39.3442 27.0858 39.1856C29.1729 37.1387 34.0556 32.9834 39.7695 32.9834ZM39.7695 34.6751C36.9655 34.6751 34.6944 36.9483 34.6944 39.7502C34.6944 42.5521 36.9655 44.8253 39.7695 44.8253C42.5714 44.8253 44.8446 42.5521 44.8446 39.7502C44.8446 36.9483 42.5714 34.6751 39.7695 34.6751ZM39.7695 36.3668C41.6346 36.3668 43.1529 37.883 43.1529 39.7502C43.1529 41.6174 41.6346 43.1336 39.7695 43.1336C37.9023 43.1336 36.3861 41.6174 36.3861 39.7502C36.3861 37.883 37.9023 36.3668 39.7695 36.3668ZM39.7695 16.0664C41.1672 16.0664 42.307 17.2062 42.307 18.604C42.307 20.0017 41.1672 21.1415 39.7695 21.1415C38.3696 21.1415 37.2319 20.0017 37.2319 18.604C37.2319 17.2062 38.3696 16.0664 39.7695 16.0664ZM39.7695 17.7581C39.3 17.7581 38.9236 18.1366 38.9236 18.604C38.9236 19.0713 39.3 19.4498 39.7695 19.4498C40.2368 19.4498 40.6153 19.0713 40.6153 18.604C40.6153 18.1366 40.2368 17.7581 39.7695 17.7581ZM60.9155 37.2129C62.3132 37.2129 63.453 38.3527 63.453 39.7505C63.453 41.1483 62.3132 42.2881 60.9155 42.2881C59.5156 42.2881 58.3779 41.1483 58.3779 39.7505C58.3779 38.3527 59.5156 37.2129 60.9155 37.2129ZM60.9155 38.9046C60.446 38.9046 60.0696 39.2832 60.0696 39.7505C60.0696 40.2178 60.446 40.5963 60.9155 40.5963C61.3828 40.5963 61.7613 40.2178 61.7613 39.7505C61.7613 39.2832 61.3828 38.9046 60.9155 38.9046ZM39.7695 58.3595C41.1672 58.3595 42.307 59.4993 42.307 60.897C42.307 62.2948 41.1672 63.4346 39.7695 63.4346C38.3696 63.4346 37.2319 62.2948 37.2319 60.897C37.2319 59.4993 38.3696 58.3595 39.7695 58.3595ZM39.7695 60.0512C39.3 60.0512 38.9236 60.4297 38.9236 60.897C38.9236 61.3644 39.3 61.7429 39.7695 61.7429C40.2368 61.7429 40.6153 61.3644 40.6153 60.897C40.6153 60.4297 40.2368 60.0512 39.7695 60.0512ZM18.6235 37.2129C20.0212 37.2129 21.161 38.3527 21.161 39.7505C21.161 41.1483 20.0212 42.2881 18.6235 42.2881C17.2236 42.2881 16.0859 41.1483 16.0859 39.7505C16.0859 38.3527 17.2236 37.2129 18.6235 37.2129ZM18.6235 38.9046C18.154 38.9046 17.7776 39.2832 17.7776 39.7505C17.7776 40.2178 18.154 40.5963 18.6235 40.5963C19.0908 40.5963 19.4693 40.2178 19.4693 39.7505C19.4693 39.2832 19.0908 38.9046 18.6235 38.9046Z" fill="white"/>
<g filter="url(#filter0_f_416_682)">
<circle cx="69.3936" cy="68.614" r="23.1865" fill="#7583F2"/>
</g>
</g>
<defs>
<filter id="filter0_f_416_682" x="12.207" y="11.4275" width="114.373" height="114.373" filterUnits="userSpaceOnUse" color-interpolation-filters="sRGB">
<feFlood flood-opacity="0" result="BackgroundImageFix"/>
<feBlend mode="normal" in="SourceGraphic" in2="BackgroundImageFix" result="shape"/>
<feGaussianBlur stdDeviation="17" result="effect1_foregroundBlur_416_682"/>
</filter>
</defs>
</svg>
