<svg width="80" height="81" viewBox="0 0 80 81" fill="none" xmlns="http://www.w3.org/2000/svg">
<rect width="80" height="80.0277" rx="20" fill="#051336"/>
<path d="M60.7627 45.8935V42.9072H46.9962C46.9962 46.7713 43.8637 49.9039 39.9995 49.9039C36.1353 49.9039 33.0029 46.7714 33.0029 42.9072H19.2363V45.8935L25.2142 46.5265C25.5871 48.055 26.1909 49.4931 26.9864 50.8017L23.2061 55.4774L27.4293 59.7007L32.1051 55.9203C33.4136 56.7159 34.8518 57.3196 36.3802 57.6925L37.0133 63.6704H42.9858L43.6188 57.6925C45.1473 57.3196 46.5854 56.7159 47.894 55.9203L52.5697 59.7007L56.793 55.4774L53.0126 50.8017C53.8082 49.4931 54.4119 48.055 54.7848 46.5265L60.7627 45.8935Z" fill="white"/>
<path d="M39.9998 16.356C37.0427 16.356 34.6369 18.7618 34.6369 21.7189C34.6369 24.676 37.0427 27.0817 39.9998 27.0817C42.9569 27.0817 45.3627 24.676 45.3627 21.7189C45.3627 18.7618 42.9569 16.356 39.9998 16.356Z" fill="white"/>
<path d="M45.709 28.5645H34.2894C31.6603 28.5645 29.5215 30.7033 29.5215 33.3323V40.1351H50.4769V33.3323C50.4769 30.7033 48.338 28.5645 45.709 28.5645Z" fill="white"/>
<path d="M28.6228 18.8335C25.9737 18.8335 23.8186 20.9887 23.8186 23.6377C23.8186 26.2654 25.9395 28.4059 28.5593 28.4402C29.6442 27.1712 31.1412 26.2655 32.8419 25.9333C33.2147 25.2508 33.427 24.4687 33.427 23.6377C33.427 20.9886 31.2719 18.8335 28.6228 18.8335Z" fill="white"/>
<path d="M23.5077 29.7695C21.1526 29.7695 19.2365 31.6855 19.2365 34.0407V40.1348H26.7497V33.3319C26.7497 32.0441 27.0748 30.8311 27.6463 29.7695H23.5077Z" fill="white"/>
<path d="M51.3766 18.8335C48.7276 18.8335 46.5724 20.9887 46.5724 23.6377C46.5724 24.4686 46.7846 25.2508 47.1574 25.9333C48.8582 26.2655 50.3552 27.1712 51.4401 28.4402C54.0599 28.406 56.1808 26.2654 56.1808 23.6377C56.1808 20.9886 54.0257 18.8335 51.3766 18.8335Z" fill="white"/>
<path d="M56.492 29.7695H52.3533C52.9249 30.8311 53.25 32.0441 53.25 33.3319V40.1347H60.7632V34.0406C60.7632 31.6855 58.8471 29.7695 56.492 29.7695Z" fill="white"/>
<mask id="mask0_1_506" style="mask-type:alpha" maskUnits="userSpaceOnUse" x="0" y="0" width="80" height="81">
<rect width="80" height="80.0277" rx="20" fill="#051336"/>
</mask>
<g mask="url(#mask0_1_506)">
<g filter="url(#filter0_f_1_506)">
<circle cx="69.3936" cy="68.6138" r="23.1865" fill="#7583F2"/>
</g>
</g>
<defs>
<filter id="filter0_f_1_506" x="12.207" y="11.4272" width="114.373" height="114.373" filterUnits="userSpaceOnUse" color-interpolation-filters="sRGB">
<feFlood flood-opacity="0" result="BackgroundImageFix"/>
<feBlend mode="normal" in="SourceGraphic" in2="BackgroundImageFix" result="shape"/>
<feGaussianBlur stdDeviation="17" result="effect1_foregroundBlur_1_506"/>
</filter>
</defs>
</svg>
