<svg width="80" height="81" viewBox="0 0 80 81" fill="none" xmlns="http://www.w3.org/2000/svg">
<rect width="80" height="80.0277" rx="20" fill="#051336"/>
<mask id="mask0_1_536" style="mask-type:alpha" maskUnits="userSpaceOnUse" x="0" y="0" width="80" height="81">
<rect width="80" height="80.0277" rx="20" fill="#051336"/>
</mask>
<g mask="url(#mask0_1_536)">
<path fill-rule="evenodd" clip-rule="evenodd" d="M22.3294 35.8773L31.0203 28.2709C30.8999 27.9419 30.8342 27.5867 30.8342 27.2161C30.8342 25.5214 32.208 24.1478 33.9025 24.1478C35.5647 24.1478 36.9181 25.4694 36.9694 27.1192L43.8384 29.5241C44.4011 28.8634 45.239 28.4444 46.1748 28.4444C46.7028 28.4444 47.1996 28.5777 47.6335 28.8126L55.5523 22.0468C55.44 21.7277 55.3787 21.3847 55.3787 21.0273C55.3787 19.3328 56.7525 17.959 58.447 17.959C60.1417 17.959 61.5155 19.3328 61.5155 21.0273C61.5155 22.722 60.1417 24.0958 58.447 24.0958C57.9191 24.0958 57.4222 23.9624 56.9884 23.7275L49.0696 30.4934C49.1819 30.8124 49.2432 31.1554 49.2432 31.5128C49.2432 33.2074 47.8694 34.5812 46.1747 34.5812C44.5126 34.5812 43.1593 33.2595 43.1081 31.6098L36.2391 29.205C35.6762 29.8656 34.8384 30.2846 33.9025 30.2846C33.3873 30.2846 32.9018 30.1575 32.4755 29.933L23.7846 37.5394C23.905 37.8683 23.9707 38.2237 23.9707 38.5943C23.9707 40.289 22.5969 41.6626 20.9022 41.6626C19.2078 41.6624 17.834 40.2888 17.834 38.5941C17.834 36.8994 19.2078 35.5258 20.9023 35.5258C21.4176 35.5258 21.9031 35.6529 22.3294 35.8773ZM56.1129 30.1552C55.3499 30.1552 54.7275 30.7776 54.7275 31.5406V59.8147C54.7275 60.5778 55.3499 61.2001 56.1129 61.2001H60.7815C61.5447 61.2001 62.167 60.5778 62.167 59.8147V31.5406C62.167 30.7776 61.5448 30.1552 60.7815 30.1552H56.1129ZM43.8405 41.4537C43.0774 41.4537 42.4552 42.076 42.4552 42.8391V60.1043C42.4552 60.8675 43.0775 61.4897 43.8405 61.4897H48.5093C49.2724 61.4897 49.8946 60.8674 49.8946 60.1043C49.8946 54.3494 49.8946 48.5942 49.8946 42.8391C49.8946 42.076 49.2724 41.4537 48.5093 41.4537C46.953 41.4537 45.3969 41.4537 43.8405 41.4537ZM31.5683 37.3975C30.8051 37.3975 30.1828 38.0198 30.1828 38.7829V60.394C30.1828 61.1571 30.8051 61.7794 31.5683 61.7794H36.2369C36.9999 61.7794 37.6224 61.1571 37.6224 60.394V38.7829C37.6224 38.0198 36.9999 37.3975 36.2369 37.3975H31.5683ZM19.296 49.3228H23.9646C24.7277 49.3228 25.3501 49.9451 25.3501 50.7082V60.6835C25.3501 61.4466 24.7277 62.0689 23.9646 62.0689H19.296C18.533 62.0689 17.9106 61.4466 17.9106 60.6835V50.7082C17.9106 49.945 18.5331 49.3228 19.296 49.3228Z" fill="white"/>
<g filter="url(#filter0_f_1_536)">
<circle cx="69.3936" cy="68.6143" r="23.1865" fill="#7583F2"/>
</g>
</g>
<defs>
<filter id="filter0_f_1_536" x="12.207" y="11.4277" width="114.373" height="114.373" filterUnits="userSpaceOnUse" color-interpolation-filters="sRGB">
<feFlood flood-opacity="0" result="BackgroundImageFix"/>
<feBlend mode="normal" in="SourceGraphic" in2="BackgroundImageFix" result="shape"/>
<feGaussianBlur stdDeviation="17" result="effect1_foregroundBlur_1_536"/>
</filter>
</defs>
</svg>
