<svg width="80" height="81" viewBox="0 0 80 81" fill="none" xmlns="http://www.w3.org/2000/svg">
<rect width="80" height="80.0277" rx="20" fill="#051336"/>
<path fill-rule="evenodd" clip-rule="evenodd" d="M63.6578 40.013C63.6578 46.3316 61.197 52.2722 56.7287 56.7405C52.2596 61.2097 46.3191 63.6709 40.0012 63.6709C39.2109 63.6709 38.5703 63.0303 38.5703 62.24C38.5703 61.4498 39.2109 60.8091 40.0012 60.8091C45.5546 60.8091 50.7766 58.6455 54.7051 54.717C62.8129 46.6091 62.8129 33.4169 54.7051 25.3091C46.5965 17.2006 33.403 17.2007 25.2946 25.3091C25.2324 25.3713 25.1712 25.4344 25.1098 25.4975H26.9164C27.7067 25.4975 28.3473 26.1381 28.3473 26.9284C28.3473 27.7186 27.7067 28.3593 26.9164 28.3593H21.6517C20.8615 28.3593 20.2208 27.7186 20.2208 26.9284V21.6636C20.2208 20.8734 20.8615 20.2327 21.6517 20.2327C22.4419 20.2327 23.0826 20.8734 23.0826 21.6636V23.4775C23.1453 23.4134 23.2076 23.3488 23.2709 23.2855C27.7393 18.8173 33.6804 16.3564 39.9999 16.3564C46.3195 16.3564 52.2605 18.8172 56.7288 23.2855C61.1971 27.7538 63.6578 33.6943 63.6578 40.013H63.6578ZM25.1232 40.013C25.1232 31.8092 31.7975 25.1351 40.0012 25.1351C48.2049 25.1351 54.8791 31.8092 54.8791 40.013C54.8791 48.2168 48.205 54.891 40.0012 54.891C31.7974 54.891 25.1232 48.2168 25.1232 40.013ZM38.5703 40.013C38.5703 40.5241 38.8429 40.9965 39.2855 41.2521L44.1311 44.0507C44.3565 44.1809 44.6026 44.2427 44.8454 44.2427C45.3398 44.2427 45.8208 43.9861 46.0858 43.5273C46.481 42.8429 46.2467 41.9678 45.5624 41.5726L41.4321 39.1871V32.4634C41.4321 31.6732 40.7914 31.0325 40.0012 31.0325C39.2109 31.0325 38.5703 31.6732 38.5703 32.4634V40.0131V40.013ZM19.2046 40.013C19.2046 39.2261 18.5637 38.5826 17.7742 38.5826C16.9846 38.5826 16.3438 39.2261 16.3438 40.013C16.3438 40.7999 16.9873 41.4434 17.7742 41.4434C18.5611 41.4434 19.2046 40.7999 19.2046 40.013ZM34.6175 60.0985C33.8549 59.8957 33.0708 60.3472 32.8653 61.1125C32.6625 61.8751 33.1141 62.6592 33.8766 62.8647C34.6418 63.0675 35.4259 62.6159 35.6288 61.8506C35.8342 61.0881 35.3827 60.3039 34.6175 60.0985ZM29.6042 58.0218C28.9174 57.6269 28.044 57.8623 27.6492 58.5463C27.2544 59.2305 27.487 60.1066 28.1711 60.5013C28.8553 60.896 29.7314 60.6608 30.1261 59.9767C30.5209 59.2926 30.2884 58.4165 29.6042 58.0218ZM23.2715 54.7174C22.7145 55.2772 22.7145 56.1831 23.2715 56.7401C23.8312 57.2998 24.7371 57.2998 25.2968 56.7401C25.8538 56.1831 25.8538 55.2772 25.2968 54.7174C24.737 54.1577 23.8311 54.1577 23.2715 54.7174ZM20.0375 49.8881C19.3533 50.2828 19.1181 51.1562 19.5129 51.8404C19.9076 52.5246 20.7838 52.7598 21.4679 52.365C22.152 51.9702 22.3873 51.094 21.9924 50.41C21.5977 49.7258 20.7215 49.4906 20.0375 49.8881ZM19.9131 45.394C19.7103 44.6315 18.9261 44.18 18.1609 44.3828C17.3983 44.5882 16.9441 45.3725 17.1495 46.1349C17.355 46.9002 18.1392 47.3518 18.9017 47.149C19.6643 46.9435 20.1186 46.1593 19.9131 45.394ZM18.1609 35.6434C18.9261 35.8462 19.7103 35.3946 19.9131 34.6321C20.1185 33.8669 19.6643 33.0827 18.9018 32.8772C18.1392 32.6743 17.3551 33.1259 17.1496 33.8912C16.9442 34.6537 17.3984 35.4379 18.161 35.6434H18.1609Z" fill="white"/>
<mask id="mask0_1_497" style="mask-type:alpha" maskUnits="userSpaceOnUse" x="0" y="0" width="80" height="81">
<rect width="80" height="80.0277" rx="20" fill="#051336"/>
</mask>
<g mask="url(#mask0_1_497)">
<g filter="url(#filter0_f_1_497)">
<circle cx="69.3936" cy="68.6143" r="23.1865" fill="#7583F2"/>
</g>
</g>
<defs>
<filter id="filter0_f_1_497" x="12.207" y="11.4277" width="114.373" height="114.373" filterUnits="userSpaceOnUse" color-interpolation-filters="sRGB">
<feFlood flood-opacity="0" result="BackgroundImageFix"/>
<feBlend mode="normal" in="SourceGraphic" in2="BackgroundImageFix" result="shape"/>
<feGaussianBlur stdDeviation="17" result="effect1_foregroundBlur_1_497"/>
</filter>
</defs>
</svg>
