<svg width="80" height="81" viewBox="0 0 80 81" fill="none" xmlns="http://www.w3.org/2000/svg">
<rect width="80" height="80.0277" rx="20" fill="#051336"/>
<mask id="mask0_1_6475" style="mask-type:alpha" maskUnits="userSpaceOnUse" x="0" y="0" width="80" height="81">
<rect width="80" height="80.0277" rx="20" fill="#051336"/>
</mask>
<g mask="url(#mask0_1_6475)">
<path d="M56.9067 60.3013H32.41C32.1797 60.3013 31.9694 60.3995 31.7992 60.5677C31.6449 60.732 31.5628 60.9322 31.5628 61.1525V63.0953C31.5628 63.3317 31.655 63.546 31.8092 63.6962C31.9634 63.8504 32.1777 63.9465 32.41 63.9465H59.5688C59.8051 63.9465 60.0154 63.8484 60.1696 63.6962C60.3238 63.542 60.42 63.3317 60.42 63.0953V61.1525C60.42 60.9222 60.3218 60.7059 60.1536 60.5377C59.9894 60.3895 59.7891 60.3013 59.5688 60.3013L56.9067 60.3013ZM47.2469 24.8969C47.2769 24.8449 47.3129 24.7988 47.349 24.7527L49.1035 22.8821L46.8683 20.6469L45.0678 22.3193C44.8054 22.5656 44.4008 22.5957 44.1044 22.3854C43.2472 21.7705 42.3258 21.2578 41.3244 20.8412C40.335 20.4306 39.3096 20.1342 38.2481 19.9599C37.8936 19.8978 37.6172 19.6014 37.6012 19.2268L37.513 16.7754H34.3485L34.2604 19.2049C34.2604 19.5694 33.994 19.8979 33.6195 19.9579C32.558 20.1322 31.5325 20.4306 30.5591 20.8292C29.5737 21.2337 28.6464 21.7525 27.7912 22.3614C27.4988 22.5877 27.0782 22.5777 26.8018 22.3153L25.0012 20.6429L22.766 22.8781L24.4424 24.6727C24.6828 24.935 24.7188 25.3396 24.5045 25.642C23.8836 26.5033 23.3609 27.4426 22.9503 28.432C22.5497 29.4054 22.2533 30.4308 22.0791 31.4984C22.023 31.8529 21.7206 32.1293 21.35 32.1393L18.8945 32.2274V35.3919L21.324 35.48C21.6925 35.48 22.017 35.7464 22.0771 36.127C22.2513 37.1885 22.5498 38.2179 22.9483 39.1873C23.3589 40.1667 23.8716 41.0941 24.4805 41.9552C24.7068 42.2416 24.6968 42.6682 24.4404 42.9447L22.7681 44.7392L25.0033 46.9744L26.7978 45.302C27.0602 45.0617 27.4588 45.0256 27.7612 45.2399C28.2799 45.6045 28.8227 45.9429 29.3875 46.2393C29.6178 46.3615 29.8602 46.4797 30.1005 46.5878C30.0604 45.6746 30.0344 44.7533 30.0244 43.8239C28.348 42.8285 26.938 41.4245 25.9386 39.7481C24.9031 38.0057 24.3082 35.9748 24.3082 33.8118C24.3082 30.6012 25.6101 27.6949 27.7131 25.5881L27.7591 25.5481C29.8561 23.4711 32.7482 22.1853 35.9325 22.1853C37.2084 22.1853 38.4441 22.3956 39.6038 22.7802C40.7053 23.1487 41.7368 23.6774 42.6642 24.3384C44.0441 24.3484 45.5663 24.5287 47.2427 24.8972L47.2469 24.8969ZM39.9707 24.5584C39.6943 24.4403 39.4119 24.3321 39.1255 24.236C38.1301 23.9075 37.0546 23.7233 35.937 23.7233C33.1691 23.7233 30.6615 24.8409 28.8208 26.6614C26.9802 28.502 25.8526 31.0256 25.8526 33.8135C25.8526 35.7002 26.3653 37.4587 27.2626 38.9669C27.9696 40.1566 28.919 41.1861 30.0426 41.9973C30.1046 39.1112 30.3971 36.2593 31.1041 33.7213C32.3959 29.0667 35.0116 25.4654 39.9748 24.5583L39.9707 24.5584ZM56.1017 58.7631C55.9074 54.0303 53.8825 52.3478 51.6914 50.5394C49.5644 48.7749 47.2931 46.8982 46.1073 42.4742C45.9731 42.4121 45.8449 42.346 45.7127 42.2739C45.3442 42.0696 45.206 41.607 45.4043 41.2325C45.6086 40.8639 46.0752 40.7257 46.4457 40.924C47.6654 41.591 49.0034 41.8874 50.3172 41.8113C51.599 41.7392 52.8608 41.3046 53.9584 40.4994C54.1587 40.3552 54.399 40.3192 54.6194 40.3813L56.8546 41.0122L58.7833 38.3003L49.7844 30.1269C49.508 29.8806 49.4559 29.476 49.6402 29.1675L51.1684 26.3996C50.5836 26.3476 49.9987 26.4297 49.456 26.63C48.6308 26.9384 47.9018 27.5172 47.4251 28.3123C47.2769 28.5687 46.9945 28.7029 46.7181 28.6869C39.0374 28.1441 36.7399 33.2033 36.2692 39.8746C36.0128 43.5198 36.2852 47.6537 36.5456 51.6515C36.7038 54.123 36.8641 56.5424 36.8941 58.7635L56.1017 58.7631ZM35.2603 55.877C35.1942 54.5331 35.1061 53.1491 35.0139 51.7451C34.7476 47.6994 34.4752 43.5112 34.7375 39.7683C35.2663 32.364 37.834 26.724 46.376 27.1305C46.5662 26.8682 46.7705 26.6338 46.9968 26.4135C38.1261 24.4648 34.1786 28.3723 32.5784 34.1306C30.922 40.1029 31.6611 48.0666 32.1938 53.8245L32.2299 54.1991C32.9469 54.5015 33.6299 54.85 34.2808 55.2446C34.6133 55.4448 34.9418 55.6591 35.2602 55.8795L35.2603 55.877Z" fill="white"/>
<g filter="url(#filter0_f_1_6475)">
<circle cx="69.3936" cy="68.6143" r="23.1865" fill="#7583F2"/>
</g>
</g>
<defs>
<filter id="filter0_f_1_6475" x="12.207" y="11.4277" width="114.373" height="114.373" filterUnits="userSpaceOnUse" color-interpolation-filters="sRGB">
<feFlood flood-opacity="0" result="BackgroundImageFix"/>
<feBlend mode="normal" in="SourceGraphic" in2="BackgroundImageFix" result="shape"/>
<feGaussianBlur stdDeviation="17" result="effect1_foregroundBlur_1_6475"/>
</filter>
</defs>
</svg>
