<svg width="251" height="75" viewBox="0 0 251 75" fill="none" xmlns="http://www.w3.org/2000/svg">
<g filter="url(#filter0_d_1_1209)">
<path d="M228.918 35.9656L241.416 55.0718L218.669 51.7585L226.73 45.7303L228.918 35.9656Z" fill="#7583F2"/>
<path d="M241.335 55.602L218.589 52.2888L217.314 52.1027L218.345 51.3316L226.247 45.4224L228.391 35.8513L228.671 34.6014L229.371 35.6731L241.869 54.7787L242.521 55.7744L241.335 55.602Z" stroke="#7984F1" stroke-width="1.07593"/>
</g>
<g filter="url(#filter1_d_1_1209)">
<rect x="26.9969" y="6.86084" width="193.503" height="40.881" rx="20.4405" fill="#7583F2" fill-opacity="0.13" shape-rendering="crispEdges"/>
<rect x="27.4969" y="7.36084" width="192.503" height="39.881" rx="19.9405" stroke="#7583F2" stroke-opacity="0.1" shape-rendering="crispEdges"/>
<path d="M61.5374 32.8013L64.9847 23.7635H66.3145L69.7489 32.8013H68.5481L67.5927 30.3611H63.6548L62.6994 32.8013H61.5374ZM63.9905 29.3411H67.257L65.6173 24.99L63.9905 29.3411ZM70.7715 23.7635H71.8947V32.8013H70.7715V23.7635ZM73.4397 29.5735V28.6955H77.7391V29.5735H73.4397ZM82.7554 23.7635C83.3493 23.7635 83.8743 23.8797 84.3305 24.1121C84.7867 24.3358 85.1353 24.6586 85.3763 25.0804C85.6259 25.4935 85.7508 25.9799 85.7508 26.5394C85.7508 27.0988 85.6259 27.5895 85.3763 28.0112C85.1267 28.433 84.7738 28.7601 84.3176 28.9925C83.87 29.2163 83.3493 29.3282 82.7554 29.3282H80.4055V32.8013H79.2823V23.7635H82.7554ZM80.4055 28.2953H82.6521C83.246 28.2953 83.7194 28.136 84.0723 27.8176C84.4252 27.4991 84.6017 27.073 84.6017 26.5394C84.6017 26.0057 84.4252 25.5839 84.0723 25.2741C83.728 24.9556 83.2589 24.7963 82.665 24.7963H80.4055V28.2953ZM89.487 32.8787C88.8501 32.8787 88.282 32.7367 87.7827 32.4527C87.2921 32.1686 86.9091 31.7727 86.6337 31.2648C86.3582 30.757 86.2205 30.1717 86.2205 29.5089C86.2205 28.8461 86.3582 28.2608 86.6337 27.753C86.9091 27.2452 87.2921 26.8492 87.7827 26.5652C88.282 26.2811 88.8501 26.1391 89.487 26.1391C90.124 26.1391 90.6878 26.2811 91.1784 26.5652C91.6776 26.8492 92.065 27.2452 92.3404 27.753C92.6158 28.2608 92.7535 28.8461 92.7535 29.5089C92.7535 30.1717 92.6158 30.757 92.3404 31.2648C92.065 31.7727 91.6776 32.1686 91.1784 32.4527C90.6878 32.7367 90.124 32.8787 89.487 32.8787ZM89.487 31.9362C89.9174 31.9362 90.2961 31.8329 90.6232 31.6264C90.9589 31.4198 91.2171 31.1314 91.3979 30.7613C91.5786 30.3912 91.669 29.9737 91.669 29.5089C91.669 29.0441 91.5786 28.6267 91.3979 28.2565C91.2171 27.8864 90.9589 27.5981 90.6232 27.3915C90.2961 27.1849 89.9174 27.0816 89.487 27.0816C89.0566 27.0816 88.6736 27.1849 88.3379 27.3915C88.0108 27.5981 87.7569 27.8864 87.5762 28.2565C87.3954 28.6267 87.305 29.0441 87.305 29.5089C87.305 29.9737 87.3954 30.3912 87.5762 30.7613C87.7569 31.1314 88.0108 31.4198 88.3379 31.6264C88.6736 31.8329 89.0566 31.9362 89.487 31.9362ZM93.1587 26.2166H94.2691L95.9088 31.5747L97.6389 26.2166H98.6202L100.26 31.5747L101.977 26.2166H103.049L100.854 32.8013H99.6918L98.1037 27.9079L96.4511 32.8013L95.2891 32.8142L93.1587 26.2166ZM103.456 29.5089C103.456 28.8375 103.586 28.2479 103.844 27.7401C104.111 27.2323 104.481 26.8406 104.954 26.5652C105.428 26.2811 105.97 26.1391 106.581 26.1391C107.183 26.1391 107.717 26.2639 108.182 26.5135C108.647 26.7631 109.013 27.1247 109.279 27.5981C109.546 28.0715 109.688 28.6267 109.705 29.2636C109.705 29.3583 109.697 29.5089 109.68 29.7155H104.567V29.8059C104.584 30.4514 104.782 30.9679 105.161 31.3552C105.539 31.7426 106.034 31.9362 106.645 31.9362C107.119 31.9362 107.519 31.82 107.846 31.5876C108.182 31.3466 108.406 31.0152 108.518 30.5935H109.589C109.46 31.2648 109.137 31.8157 108.621 32.2461C108.104 32.6679 107.472 32.8787 106.723 32.8787C106.069 32.8787 105.496 32.741 105.006 32.4656C104.515 32.1815 104.132 31.7856 103.857 31.2778C103.59 30.7613 103.456 30.1717 103.456 29.5089ZM108.608 28.8375C108.556 28.2781 108.345 27.8434 107.975 27.5335C107.614 27.2236 107.153 27.0687 106.594 27.0687C106.095 27.0687 105.656 27.2323 105.277 27.5593C104.898 27.8864 104.683 28.3125 104.631 28.8375H108.608ZM114.258 26.2166V27.2495H113.728C113.1 27.2495 112.648 27.4603 112.372 27.8821C112.106 28.3039 111.972 28.8246 111.972 29.4444V32.8013H110.914V26.2166H111.83L111.972 27.2107C112.162 26.9095 112.407 26.6685 112.708 26.4877C113.009 26.307 113.427 26.2166 113.961 26.2166H114.258ZM114.615 29.5089C114.615 28.8375 114.744 28.2479 115.002 27.7401C115.269 27.2323 115.639 26.8406 116.113 26.5652C116.586 26.2811 117.128 26.1391 117.739 26.1391C118.342 26.1391 118.876 26.2639 119.34 26.5135C119.805 26.7631 120.171 27.1247 120.438 27.5981C120.705 28.0715 120.847 28.6267 120.864 29.2636C120.864 29.3583 120.855 29.5089 120.838 29.7155H115.725V29.8059C115.743 30.4514 115.941 30.9679 116.319 31.3552C116.698 31.7426 117.193 31.9362 117.804 31.9362C118.277 31.9362 118.678 31.82 119.005 31.5876C119.34 31.3466 119.564 31.0152 119.676 30.5935H120.748C120.619 31.2648 120.296 31.8157 119.779 32.2461C119.263 32.6679 118.63 32.8787 117.882 32.8787C117.227 32.8787 116.655 32.741 116.164 32.4656C115.674 32.1815 115.291 31.7856 115.015 31.2778C114.748 30.7613 114.615 30.1717 114.615 29.5089ZM119.767 28.8375C119.715 28.2781 119.504 27.8434 119.134 27.5335C118.772 27.2236 118.312 27.0687 117.752 27.0687C117.253 27.0687 116.814 27.2323 116.435 27.5593C116.057 27.8864 115.842 28.3125 115.79 28.8375H119.767ZM128.321 23.7635V32.8013H127.404L127.262 31.7426C126.711 32.5 125.958 32.8787 125.003 32.8787C124.392 32.8787 123.845 32.7453 123.363 32.4785C122.89 32.2117 122.515 31.8243 122.24 31.3165C121.973 30.8086 121.84 30.2061 121.84 29.5089C121.84 28.8461 121.973 28.2608 122.24 27.753C122.515 27.2452 122.894 26.8492 123.376 26.5652C123.858 26.2811 124.4 26.1391 125.003 26.1391C125.537 26.1391 125.993 26.2381 126.372 26.4361C126.75 26.6254 127.047 26.888 127.262 27.2236V23.7635H128.321ZM125.106 31.9362C125.528 31.9362 125.902 31.8372 126.229 31.6393C126.565 31.4327 126.823 31.1486 127.004 30.7871C127.185 30.417 127.275 29.9995 127.275 29.5347C127.275 29.0613 127.185 28.6396 127.004 28.2694C126.823 27.8907 126.565 27.5981 126.229 27.3915C125.902 27.1849 125.528 27.0816 125.106 27.0816C124.452 27.0816 123.923 27.3097 123.518 27.7659C123.122 28.2135 122.924 28.7945 122.924 29.5089C122.924 30.2233 123.122 30.8086 123.518 31.2648C123.923 31.7124 124.452 31.9362 125.106 31.9362ZM132.561 32.8013L136.009 23.7635H137.339L140.773 32.8013H139.572L138.617 30.3611H134.679L133.723 32.8013H132.561ZM135.015 29.3411H138.281L136.641 24.99L135.015 29.3411ZM147.094 26.2166V32.8013H146.178L146.036 31.9233C145.536 32.5603 144.835 32.8787 143.931 32.8787C143.148 32.8787 142.519 32.6377 142.046 32.1557C141.573 31.6737 141.336 30.9162 141.336 29.8833V26.2166H142.395V29.8188C142.395 30.4988 142.541 31.0195 142.834 31.381C143.135 31.7339 143.561 31.9104 144.112 31.9104C144.714 31.9104 145.183 31.6952 145.519 31.2648C145.863 30.8345 146.036 30.2492 146.036 29.5089V26.2166H147.094ZM149.002 27.1849H147.814V26.2166H149.002V24.3703H150.06V26.2166H151.726V27.1849H150.06V31.0712C150.06 31.3466 150.112 31.5446 150.215 31.6651C150.327 31.777 150.517 31.8329 150.783 31.8329H151.932V32.8013H150.719C150.099 32.8013 149.656 32.6636 149.389 32.3881C149.131 32.1127 149.002 31.678 149.002 31.0841V27.1849ZM155.556 32.8787C154.919 32.8787 154.351 32.7367 153.852 32.4527C153.361 32.1686 152.978 31.7727 152.703 31.2648C152.427 30.757 152.289 30.1717 152.289 29.5089C152.289 28.8461 152.427 28.2608 152.703 27.753C152.978 27.2452 153.361 26.8492 153.852 26.5652C154.351 26.2811 154.919 26.1391 155.556 26.1391C156.193 26.1391 156.757 26.2811 157.247 26.5652C157.746 26.8492 158.134 27.2452 158.409 27.753C158.685 28.2608 158.822 28.8461 158.822 29.5089C158.822 30.1717 158.685 30.757 158.409 31.2648C158.134 31.7727 157.746 32.1686 157.247 32.4527C156.757 32.7367 156.193 32.8787 155.556 32.8787ZM155.556 31.9362C155.986 31.9362 156.365 31.8329 156.692 31.6264C157.028 31.4198 157.286 31.1314 157.467 30.7613C157.647 30.3912 157.738 29.9737 157.738 29.5089C157.738 29.0441 157.647 28.6267 157.467 28.2565C157.286 27.8864 157.028 27.5981 156.692 27.3915C156.365 27.1849 155.986 27.0816 155.556 27.0816C155.126 27.0816 154.742 27.1849 154.407 27.3915C154.08 27.5981 153.826 27.8864 153.645 28.2565C153.464 28.6267 153.374 29.0441 153.374 29.5089C153.374 29.9737 153.464 30.3912 153.645 30.7613C153.826 31.1314 154.08 31.4198 154.407 31.6264C154.742 31.8329 155.126 31.9362 155.556 31.9362ZM167.383 26.1391C168.123 26.1391 168.721 26.3715 169.178 26.8363C169.642 27.3011 169.875 28.0241 169.875 29.0054V32.8013H168.816V29.0699C168.816 28.433 168.678 27.9467 168.403 27.611C168.136 27.2753 167.753 27.1074 167.254 27.1074C166.703 27.1074 166.268 27.3011 165.95 27.6884C165.64 28.0758 165.485 28.6051 165.485 29.2765V32.8013H164.426V29.0699C164.426 28.433 164.289 27.9467 164.013 27.611C163.738 27.2753 163.346 27.1074 162.838 27.1074C162.305 27.1074 161.878 27.314 161.56 27.7272C161.25 28.1317 161.095 28.6654 161.095 29.3282V32.8013H160.036V26.2166H160.953L161.095 27.1204C161.569 26.4662 162.21 26.1391 163.019 26.1391C163.492 26.1391 163.91 26.2467 164.271 26.4619C164.641 26.6685 164.917 26.9783 165.098 27.3915C165.571 26.5566 166.333 26.1391 167.383 26.1391ZM177.391 31.8329V32.8013H176.81C176.389 32.8013 176.087 32.7152 175.907 32.543C175.726 32.3709 175.631 32.117 175.623 31.7813C175.115 32.5129 174.379 32.8787 173.415 32.8787C172.683 32.8787 172.094 32.7066 171.646 32.3623C171.207 32.018 170.988 31.5489 170.988 30.955C170.988 30.2922 171.211 29.7844 171.659 29.4315C172.115 29.0785 172.774 28.9021 173.634 28.9021H175.571V28.4502C175.571 28.0198 175.425 27.6841 175.132 27.4431C174.848 27.2021 174.448 27.0816 173.931 27.0816C173.475 27.0816 173.096 27.1849 172.795 27.3915C172.502 27.5895 172.322 27.8563 172.253 28.192H171.194C171.272 27.5464 171.556 27.0429 172.046 26.6814C172.546 26.3199 173.191 26.1391 173.983 26.1391C174.826 26.1391 175.476 26.3457 175.933 26.7588C176.397 27.1634 176.63 27.7487 176.63 28.5148V31.3552C176.63 31.6737 176.776 31.8329 177.069 31.8329H177.391ZM175.571 29.793H173.531C172.55 29.793 172.059 30.1588 172.059 30.8904C172.059 31.2175 172.188 31.48 172.447 31.678C172.705 31.876 173.053 31.975 173.492 31.975C174.138 31.975 174.646 31.8071 175.016 31.4714C175.386 31.1271 175.571 30.6752 175.571 30.1157V29.793ZM178.644 27.1849H177.457V26.2166H178.644V24.3703H179.703V26.2166H181.369V27.1849H179.703V31.0712C179.703 31.3466 179.755 31.5446 179.858 31.6651C179.97 31.777 180.159 31.8329 180.426 31.8329H181.575V32.8013H180.362C179.742 32.8013 179.299 32.6636 179.032 32.3881C178.773 32.1127 178.644 31.678 178.644 31.0841V27.1849ZM182.858 23.6731C183.056 23.6731 183.219 23.7376 183.348 23.8667C183.477 23.9959 183.542 24.1594 183.542 24.3574C183.542 24.5553 183.477 24.7189 183.348 24.848C183.219 24.9771 183.056 25.0417 182.858 25.0417C182.66 25.0417 182.496 24.9771 182.367 24.848C182.238 24.7189 182.173 24.5553 182.173 24.3574C182.173 24.1594 182.238 23.9959 182.367 23.8667C182.496 23.7376 182.66 23.6731 182.858 23.6731ZM182.328 26.2166H183.387V32.8013H182.328V26.2166ZM187.872 32.8787C187.235 32.8787 186.667 32.7367 186.167 32.4527C185.677 32.1686 185.294 31.7727 185.018 31.2648C184.743 30.757 184.605 30.1717 184.605 29.5089C184.605 28.8461 184.743 28.2608 185.018 27.753C185.294 27.2452 185.677 26.8492 186.167 26.5652C186.667 26.2811 187.235 26.1391 187.872 26.1391C188.509 26.1391 189.072 26.2811 189.563 26.5652C190.062 26.8492 190.45 27.2452 190.725 27.753C191 28.2608 191.138 28.8461 191.138 29.5089C191.138 30.1717 191 30.757 190.725 31.2648C190.45 31.7727 190.062 32.1686 189.563 32.4527C189.072 32.7367 188.509 32.8787 187.872 32.8787ZM187.872 31.9362C188.302 31.9362 188.681 31.8329 189.008 31.6264C189.344 31.4198 189.602 31.1314 189.782 30.7613C189.963 30.3912 190.054 29.9737 190.054 29.5089C190.054 29.0441 189.963 28.6267 189.782 28.2565C189.602 27.8864 189.344 27.5981 189.008 27.3915C188.681 27.1849 188.302 27.0816 187.872 27.0816C187.441 27.0816 187.058 27.1849 186.723 27.3915C186.395 27.5981 186.142 27.8864 185.961 28.2565C185.78 28.6267 185.69 29.0441 185.69 29.5089C185.69 29.9737 185.78 30.3912 185.961 30.7613C186.142 31.1314 186.395 31.4198 186.723 31.6264C187.058 31.8329 187.441 31.9362 187.872 31.9362ZM195.58 26.1391C196.38 26.1391 197.022 26.3801 197.504 26.8621C197.994 27.3441 198.24 28.1016 198.24 29.1345V32.8013H197.181V29.1991C197.181 28.5191 197.026 28.0026 196.716 27.6497C196.415 27.2882 195.976 27.1074 195.399 27.1074C194.78 27.1074 194.293 27.3226 193.94 27.753C193.587 28.1834 193.411 28.7687 193.411 29.5089V32.8013H192.352V26.2166H193.269L193.411 27.1074C193.91 26.4619 194.633 26.1391 195.58 26.1391Z" fill="black"/>
</g>
<g filter="url(#filter2_d_1_1209)">
<rect x="10.4774" y="6.13965" width="40.6548" height="40.4094" rx="20.2047" fill="white" fill-opacity="0.72" shape-rendering="crispEdges"/>
</g>
<g filter="url(#filter3_d_1_1209)">
<mask id="mask0_1_1209" style="mask-type:luminance" maskUnits="userSpaceOnUse" x="14" y="10" width="34" height="33">
<path d="M31.4135 10.1479H30.1977C21.5889 10.1479 14.6102 17.1267 14.6102 25.7354V26.9512C14.6102 35.56 21.5889 42.5387 30.1977 42.5387H31.4135C40.0222 42.5387 47.0009 35.56 47.0009 26.9512V25.7354C47.0009 17.1267 40.0222 10.1479 31.4135 10.1479Z" fill="white"/>
</mask>
<g mask="url(#mask0_1_1209)">
<path d="M31.4136 10.1479H30.1978C21.589 10.1479 14.6103 17.1267 14.6103 25.7354V26.9512C14.6103 35.56 21.589 42.5387 30.1978 42.5387H31.4136C40.0223 42.5387 47.0011 35.56 47.0011 26.9512V25.7354C47.0011 17.1267 40.0223 10.1479 31.4136 10.1479Z" fill="white"/>
<g filter="url(#filter4_f_1_1209)">
<path d="M38.9107 51.1987C50.8517 51.1987 60.5318 41.5186 60.5318 29.5776C60.5318 17.6366 50.8517 7.95654 38.9107 7.95654C26.9698 7.95654 17.2897 17.6366 17.2897 29.5776C17.2897 41.5186 26.9698 51.1987 38.9107 51.1987Z" fill="#F8B4FB"/>
</g>
<g filter="url(#filter5_f_1_1209)">
<path d="M32.108 73.0268C45.2906 73.0268 55.9771 62.3402 55.9771 49.1577C55.9771 35.9751 45.2906 25.2886 32.108 25.2886C18.9255 25.2886 8.23895 35.9751 8.23895 49.1577C8.23895 62.3402 18.9255 73.0268 32.108 73.0268Z" fill="#F8B4FB"/>
</g>
<g filter="url(#filter6_f_1_1209)">
<path d="M5.28132 37.8225C18.8637 37.8225 29.8744 26.4784 29.8744 12.4847C29.8744 -1.50893 18.8637 -12.853 5.28132 -12.853C-8.30103 -12.853 -19.3117 -1.50893 -19.3117 12.4847C-19.3117 26.4784 -8.30103 37.8225 5.28132 37.8225Z" fill="#0075FF"/>
</g>
<g filter="url(#filter7_f_1_1209)">
<path d="M54.6956 59.1687C63.2859 59.1687 70.2498 50.8621 70.2498 40.6154C70.2498 30.3686 63.2859 22.062 54.6956 22.062C46.1052 22.062 39.1414 30.3686 39.1414 40.6154C39.1414 50.8621 46.1052 59.1687 54.6956 59.1687Z" fill="white"/>
</g>
</g>
</g>
<g filter="url(#filter8_f_1_1209)">
<path d="M32.2212 41.9209C40.117 41.9209 46.5179 35.5201 46.5179 27.6243C46.5179 19.7284 40.117 13.3276 32.2212 13.3276C24.3254 13.3276 17.9246 19.7284 17.9246 27.6243C17.9246 35.5201 24.3254 41.9209 32.2212 41.9209Z" fill="#0E47C2"/>
</g>
<path d="M30.8074 40.6496C38.7098 40.6496 45.1159 34.2483 45.1159 26.3519C45.1159 18.4555 38.7098 12.0542 30.8074 12.0542C22.905 12.0542 16.4988 18.4555 16.4988 26.3519C16.4988 34.2483 22.905 40.6496 30.8074 40.6496Z" fill="url(#paint0_linear_1_1209)" fill-opacity="0.33"/>
<g filter="url(#filter9_dd_1_1209)">
<path d="M25.0745 23.8586C25.0745 24.3808 25.4978 24.8042 26.0201 24.8042C26.5423 24.8042 26.9656 24.3808 26.9656 23.8586V18.6015C26.9656 18.0792 26.5423 17.6559 26.0201 17.6559C25.4978 17.6559 25.0745 18.0792 25.0745 18.6015V23.8586Z" fill="white"/>
</g>
<g filter="url(#filter10_dd_1_1209)">
<path d="M34.637 23.8581C34.637 24.3804 35.0603 24.8037 35.5826 24.8037C36.1048 24.8037 36.5281 24.3804 36.5281 23.8581V18.601C36.5281 18.0788 36.1048 17.6554 35.5826 17.6554C35.0603 17.6554 34.637 18.0788 34.637 18.601V23.8581Z" fill="white"/>
</g>
<defs>
<filter id="filter0_d_1_1209" x="213.805" y="32.1614" width="31.9714" height="27.5435" filterUnits="userSpaceOnUse" color-interpolation-filters="sRGB">
<feFlood flood-opacity="0" result="BackgroundImageFix"/>
<feColorMatrix in="SourceAlpha" type="matrix" values="0 0 0 0 0 0 0 0 0 0 0 0 0 0 0 0 0 0 127 0" result="hardAlpha"/>
<feOffset dy="1.07593"/>
<feGaussianBlur stdDeviation="1.07593"/>
<feComposite in2="hardAlpha" operator="out"/>
<feColorMatrix type="matrix" values="0 0 0 0 0 0 0 0 0 0 0 0 0 0 0 0 0 0 0.08 0"/>
<feBlend mode="normal" in2="BackgroundImageFix" result="effect1_dropShadow_1_1209"/>
<feBlend mode="normal" in="SourceGraphic" in2="effect1_dropShadow_1_1209" result="shape"/>
</filter>
<filter id="filter1_d_1_1209" x="5.09689" y="6.86084" width="219.303" height="67.7809" filterUnits="userSpaceOnUse" color-interpolation-filters="sRGB">
<feFlood flood-opacity="0" result="BackgroundImageFix"/>
<feColorMatrix in="SourceAlpha" type="matrix" values="0 0 0 0 0 0 0 0 0 0 0 0 0 0 0 0 0 0 127 0" result="hardAlpha"/>
<feOffset dx="-9" dy="14"/>
<feGaussianBlur stdDeviation="6.45"/>
<feComposite in2="hardAlpha" operator="out"/>
<feColorMatrix type="matrix" values="0 0 0 0 0.458824 0 0 0 0 0.513726 0 0 0 0 0.94902 0 0 0 0.15 0"/>
<feBlend mode="normal" in2="BackgroundImageFix" result="effect1_dropShadow_1_1209"/>
<feBlend mode="normal" in="SourceGraphic" in2="effect1_dropShadow_1_1209" result="shape"/>
</filter>
<filter id="filter2_d_1_1209" x="-6.67572e-06" y="4.72069e-05" width="61.6095" height="61.3639" filterUnits="userSpaceOnUse" color-interpolation-filters="sRGB">
<feFlood flood-opacity="0" result="BackgroundImageFix"/>
<feColorMatrix in="SourceAlpha" type="matrix" values="0 0 0 0 0 0 0 0 0 0 0 0 0 0 0 0 0 0 127 0" result="hardAlpha"/>
<feOffset dy="4.33776"/>
<feGaussianBlur stdDeviation="5.23868"/>
<feComposite in2="hardAlpha" operator="out"/>
<feColorMatrix type="matrix" values="0 0 0 0 0.501961 0 0 0 0 0.521569 0 0 0 0 0.941176 0 0 0 0.49 0"/>
<feBlend mode="normal" in2="BackgroundImageFix" result="effect1_dropShadow_1_1209"/>
<feBlend mode="normal" in="SourceGraphic" in2="effect1_dropShadow_1_1209" result="shape"/>
</filter>
<filter id="filter3_d_1_1209" x="14.5744" y="10.1479" width="32.4622" height="32.4621" filterUnits="userSpaceOnUse" color-interpolation-filters="sRGB">
<feFlood flood-opacity="0" result="BackgroundImageFix"/>
<feColorMatrix in="SourceAlpha" type="matrix" values="0 0 0 0 0 0 0 0 0 0 0 0 0 0 0 0 0 0 127 0" result="hardAlpha"/>
<feOffset dy="0.0357371"/>
<feGaussianBlur stdDeviation="0.0178685"/>
<feComposite in2="hardAlpha" operator="out"/>
<feColorMatrix type="matrix" values="0 0 0 0 0 0 0 0 0 0 0 0 0 0 0 0 0 0 0.25 0"/>
<feBlend mode="normal" in2="BackgroundImageFix" result="effect1_dropShadow_1_1209"/>
<feBlend mode="normal" in="SourceGraphic" in2="effect1_dropShadow_1_1209" result="shape"/>
</filter>
<filter id="filter4_f_1_1209" x="6.39969" y="-2.93344" width="65.0221" height="65.0222" filterUnits="userSpaceOnUse" color-interpolation-filters="sRGB">
<feFlood flood-opacity="0" result="BackgroundImageFix"/>
<feBlend mode="normal" in="SourceGraphic" in2="BackgroundImageFix" result="shape"/>
<feGaussianBlur stdDeviation="5.44499" result="effect1_foregroundBlur_1_1209"/>
</filter>
<filter id="filter5_f_1_1209" x="-2.65103" y="14.3986" width="69.5181" height="69.5182" filterUnits="userSpaceOnUse" color-interpolation-filters="sRGB">
<feFlood flood-opacity="0" result="BackgroundImageFix"/>
<feBlend mode="normal" in="SourceGraphic" in2="BackgroundImageFix" result="shape"/>
<feGaussianBlur stdDeviation="5.44499" result="effect1_foregroundBlur_1_1209"/>
</filter>
<filter id="filter6_f_1_1209" x="-32.4232" y="-25.9646" width="75.4091" height="76.8983" filterUnits="userSpaceOnUse" color-interpolation-filters="sRGB">
<feFlood flood-opacity="0" result="BackgroundImageFix"/>
<feBlend mode="normal" in="SourceGraphic" in2="BackgroundImageFix" result="shape"/>
<feGaussianBlur stdDeviation="6.55576" result="effect1_foregroundBlur_1_1209"/>
</filter>
<filter id="filter7_f_1_1209" x="28.2514" y="11.172" width="52.8884" height="58.8869" filterUnits="userSpaceOnUse" color-interpolation-filters="sRGB">
<feFlood flood-opacity="0" result="BackgroundImageFix"/>
<feBlend mode="normal" in="SourceGraphic" in2="BackgroundImageFix" result="shape"/>
<feGaussianBlur stdDeviation="5.44499" result="effect1_foregroundBlur_1_1209"/>
</filter>
<filter id="filter8_f_1_1209" x="11.8248" y="7.22783" width="40.7929" height="40.7929" filterUnits="userSpaceOnUse" color-interpolation-filters="sRGB">
<feFlood flood-opacity="0" result="BackgroundImageFix"/>
<feBlend mode="normal" in="SourceGraphic" in2="BackgroundImageFix" result="shape"/>
<feGaussianBlur stdDeviation="3.04991" result="effect1_foregroundBlur_1_1209"/>
</filter>
<filter id="filter9_dd_1_1209" x="24.7133" y="17.2946" width="2.61341" height="7.87067" filterUnits="userSpaceOnUse" color-interpolation-filters="sRGB">
<feFlood flood-opacity="0" result="BackgroundImageFix"/>
<feColorMatrix in="SourceAlpha" type="matrix" values="0 0 0 0 0 0 0 0 0 0 0 0 0 0 0 0 0 0 127 0" result="hardAlpha"/>
<feOffset/>
<feGaussianBlur stdDeviation="0.180559"/>
<feColorMatrix type="matrix" values="0 0 0 0 1 0 0 0 0 1 0 0 0 0 1 0 0 0 1 0"/>
<feBlend mode="normal" in2="BackgroundImageFix" result="effect1_dropShadow_1_1209"/>
<feColorMatrix in="SourceAlpha" type="matrix" values="0 0 0 0 0 0 0 0 0 0 0 0 0 0 0 0 0 0 127 0" result="hardAlpha"/>
<feOffset/>
<feGaussianBlur stdDeviation="0.180559"/>
<feColorMatrix type="matrix" values="0 0 0 0 1 0 0 0 0 1 0 0 0 0 1 0 0 0 1 0"/>
<feBlend mode="normal" in2="effect1_dropShadow_1_1209" result="effect2_dropShadow_1_1209"/>
<feBlend mode="normal" in="SourceGraphic" in2="effect2_dropShadow_1_1209" result="shape"/>
</filter>
<filter id="filter10_dd_1_1209" x="34.2758" y="17.2942" width="2.61341" height="7.87067" filterUnits="userSpaceOnUse" color-interpolation-filters="sRGB">
<feFlood flood-opacity="0" result="BackgroundImageFix"/>
<feColorMatrix in="SourceAlpha" type="matrix" values="0 0 0 0 0 0 0 0 0 0 0 0 0 0 0 0 0 0 127 0" result="hardAlpha"/>
<feOffset/>
<feGaussianBlur stdDeviation="0.180559"/>
<feColorMatrix type="matrix" values="0 0 0 0 1 0 0 0 0 1 0 0 0 0 1 0 0 0 1 0"/>
<feBlend mode="normal" in2="BackgroundImageFix" result="effect1_dropShadow_1_1209"/>
<feColorMatrix in="SourceAlpha" type="matrix" values="0 0 0 0 0 0 0 0 0 0 0 0 0 0 0 0 0 0 127 0" result="hardAlpha"/>
<feOffset/>
<feGaussianBlur stdDeviation="0.180559"/>
<feColorMatrix type="matrix" values="0 0 0 0 1 0 0 0 0 1 0 0 0 0 1 0 0 0 1 0"/>
<feBlend mode="normal" in2="effect1_dropShadow_1_1209" result="effect2_dropShadow_1_1209"/>
<feBlend mode="normal" in="SourceGraphic" in2="effect2_dropShadow_1_1209" result="shape"/>
</filter>
<linearGradient id="paint0_linear_1_1209" x1="16.499" y1="12.0541" x2="50.8369" y2="23.5259" gradientUnits="userSpaceOnUse">
<stop stop-color="white" stop-opacity="0.8"/>
<stop offset="1" stop-color="white" stop-opacity="0.2"/>
</linearGradient>
</defs>
</svg>
