<svg width="274" height="101" viewBox="0 0 274 101" fill="none" xmlns="http://www.w3.org/2000/svg">
<g filter="url(#filter0_d_1_1191)">
<path d="M14.0969 29.2168L7.56 6.28536L29.2169 16.6459L19.3074 20.157L14.0969 29.2168Z" fill="#E35EFF"/>
<path d="M7.80487 5.78206L29.4617 16.1419L30.676 16.7235L29.4078 17.1722L19.6933 20.6136L14.5875 29.4939L13.9206 30.6541L13.5533 29.3682L7.01715 6.43698L6.67678 5.24176L7.80487 5.78206Z" stroke="#E35EFF" stroke-width="1.12373"/>
</g>
<g filter="url(#filter1_d_1_1191)">
<path d="M29.5273 47.8052C29.5273 36.7595 38.4816 27.8052 49.5273 27.8052H234.527C245.573 27.8052 254.527 36.7595 254.527 47.8052C254.527 58.8509 245.573 67.8052 234.527 67.8052H49.5273C38.4816 67.8052 29.5273 58.8509 29.5273 47.8052Z" fill="#F8D7FF" shape-rendering="crispEdges"/>
<path d="M49.5273 28.3052H234.527C245.297 28.3052 254.027 37.0356 254.027 47.8052C254.027 58.5747 245.297 67.3052 234.527 67.3052H49.5273C38.7578 67.3052 30.0273 58.5747 30.0273 47.8052C30.0273 37.0356 38.7578 28.3052 49.5273 28.3052Z" stroke="#E3A8E7" shape-rendering="crispEdges"/>
<path d="M72.8225 48.5855C72.8225 47.6416 73.0068 46.8055 73.3754 46.0774C73.7439 45.3492 74.2698 44.7873 74.9531 44.3918C75.6363 43.9872 76.4274 43.785 77.3264 43.785C78.3692 43.785 79.2412 44.0681 79.9424 44.6345C80.6526 45.2009 81.0976 45.974 81.2774 46.9539H80.1042C79.9334 46.2976 79.5963 45.7852 79.0929 45.4166C78.5984 45.048 77.9916 44.8637 77.2724 44.8637C76.6252 44.8637 76.0543 45.0211 75.5599 45.3357C75.0654 45.6504 74.6834 46.0909 74.4137 46.6572C74.153 47.2146 74.0226 47.8574 74.0226 48.5855C74.0226 49.3047 74.153 49.9475 74.4137 50.5138C74.6834 51.0802 75.0654 51.5207 75.5599 51.8353C76.0543 52.15 76.6252 52.3073 77.2724 52.3073C78.0006 52.3073 78.6074 52.1275 79.0929 51.7679C79.5783 51.3993 79.9109 50.8824 80.0907 50.2172H81.2639C81.0841 51.1971 80.6436 51.9702 79.9424 52.5365C79.2502 53.1029 78.3782 53.3861 77.3264 53.3861C76.4274 53.3861 75.6363 53.1883 74.9531 52.7928C74.2698 52.3882 73.7439 51.8264 73.3754 51.1072C73.0068 50.379 72.8225 49.5384 72.8225 48.5855ZM82.5849 43.8659H83.6906V53.3052H82.5849V43.8659ZM91.6377 52.2938V53.3052H91.0308C90.5903 53.3052 90.2757 53.2153 90.0869 53.0355C89.8981 52.8557 89.7992 52.5905 89.7903 52.2399C89.2599 53.004 88.4912 53.3861 87.4844 53.3861C86.7202 53.3861 86.1044 53.2063 85.637 52.8467C85.1785 52.4871 84.9492 51.9972 84.9492 51.3769C84.9492 50.6846 85.183 50.1542 85.6504 49.7857C86.1269 49.4171 86.8146 49.2328 87.7136 49.2328H89.7363V48.7608C89.7363 48.3113 89.5835 47.9607 89.2778 47.709C88.9812 47.4573 88.5631 47.3314 88.0238 47.3314C87.5473 47.3314 87.1517 47.4393 86.8371 47.6551C86.5314 47.8618 86.3427 48.1405 86.2707 48.4911H85.165C85.2459 47.8169 85.5426 47.291 86.055 46.9134C86.5764 46.5359 87.2506 46.3471 88.0777 46.3471C88.9587 46.3471 89.6374 46.5628 90.1139 46.9943C90.5993 47.4169 90.8421 48.0282 90.8421 48.8283V51.7949C90.8421 52.1275 90.9949 52.2938 91.3005 52.2938H91.6377ZM89.7363 50.1632H87.6057C86.5809 50.1632 86.0685 50.5453 86.0685 51.3094C86.0685 51.6511 86.2033 51.9252 86.473 52.132C86.7427 52.3388 87.1068 52.4422 87.5653 52.4422C88.2395 52.4422 88.7699 52.2669 89.1565 51.9163C89.543 51.5567 89.7363 51.0847 89.7363 50.5004V50.1632ZM95.9803 46.428V47.5068H95.4274C94.7711 47.5068 94.2992 47.727 94.0115 48.1675C93.7328 48.608 93.5935 49.1519 93.5935 49.7992V53.3052H92.4877V46.428H93.4451L93.5935 47.4663C93.7912 47.1517 94.0475 46.8999 94.3621 46.7112C94.6767 46.5224 95.1127 46.428 95.6701 46.428H95.9803ZM97.5443 43.7715C97.751 43.7715 97.9219 43.8389 98.0567 43.9738C98.1915 44.1086 98.259 44.2794 98.259 44.4862C98.259 44.6929 98.1915 44.8637 98.0567 44.9986C97.9219 45.1334 97.751 45.2009 97.5443 45.2009C97.3375 45.2009 97.1667 45.1334 97.0319 44.9986C96.897 44.8637 96.8296 44.6929 96.8296 44.4862C96.8296 44.2794 96.897 44.1086 97.0319 43.9738C97.1667 43.8389 97.3375 43.7715 97.5443 43.7715ZM96.9914 46.428H98.0972V53.3052H96.9914V46.428ZM100.07 47.4393H98.8299V46.428H100.07V44.4997H101.176V46.428H102.916V47.4393H101.176V51.4982C101.176 51.7859 101.23 51.9927 101.338 52.1185C101.455 52.2354 101.653 52.2938 101.931 52.2938H103.131V53.3052H101.864C101.217 53.3052 100.754 53.1613 100.475 52.8737C100.205 52.586 100.07 52.132 100.07 51.5117V47.4393ZM104.404 46.428L106.521 52.0376L108.57 46.428H109.744L106.575 54.4649C106.413 54.8784 106.269 55.1885 106.143 55.3953C106.017 55.6021 105.86 55.7549 105.671 55.8538C105.482 55.9527 105.231 56.0021 104.916 56.0021H103.594V54.9908H104.579C104.795 54.9908 104.956 54.9683 105.064 54.9233C105.172 54.8784 105.258 54.802 105.321 54.6941C105.392 54.5952 105.478 54.4244 105.577 54.1817L105.927 53.3591L103.23 46.428H104.404ZM113.679 43.8659H120.975V44.9447H117.914V53.3052H116.741V44.9447H113.679V43.8659ZM125.436 46.3471C126.272 46.3471 126.946 46.5988 127.458 47.1022C127.971 47.6056 128.227 48.3967 128.227 49.4755V53.3052H127.121V49.5429C127.121 48.8327 126.959 48.2934 126.636 47.9248C126.312 47.5472 125.849 47.3584 125.247 47.3584C124.609 47.3584 124.101 47.5832 123.723 48.0327C123.355 48.4821 123.17 49.0935 123.17 49.8666V53.3052H122.065V43.8659H123.17V47.5607C123.395 47.2011 123.692 46.9089 124.06 46.6842C124.438 46.4594 124.896 46.3471 125.436 46.3471ZM133.129 46.428V47.5068H132.576C131.92 47.5068 131.448 47.727 131.16 48.1675C130.882 48.608 130.742 49.1519 130.742 49.7992V53.3052H129.637V46.428H130.594L130.742 47.4663C130.94 47.1517 131.196 46.8999 131.511 46.7112C131.826 46.5224 132.262 46.428 132.819 46.428H133.129ZM136.914 53.3861C136.249 53.3861 135.655 53.2378 135.134 52.9411C134.622 52.6444 134.222 52.2309 133.934 51.7005C133.646 51.1701 133.502 50.5588 133.502 49.8666C133.502 49.1744 133.646 48.5631 133.934 48.0327C134.222 47.5023 134.622 47.0887 135.134 46.7921C135.655 46.4954 136.249 46.3471 136.914 46.3471C137.579 46.3471 138.168 46.4954 138.681 46.7921C139.202 47.0887 139.606 47.5023 139.894 48.0327C140.182 48.5631 140.326 49.1744 140.326 49.8666C140.326 50.5588 140.182 51.1701 139.894 51.7005C139.606 52.2309 139.202 52.6444 138.681 52.9411C138.168 53.2378 137.579 53.3861 136.914 53.3861ZM136.914 52.4017C137.364 52.4017 137.759 52.2938 138.101 52.0781C138.451 51.8623 138.721 51.5612 138.91 51.1746C139.099 50.788 139.193 50.352 139.193 49.8666C139.193 49.3811 139.099 48.9451 138.91 48.5586C138.721 48.172 138.451 47.8708 138.101 47.6551C137.759 47.4393 137.364 47.3314 136.914 47.3314C136.465 47.3314 136.065 47.4393 135.714 47.6551C135.372 47.8708 135.107 48.172 134.918 48.5586C134.73 48.9451 134.635 49.3811 134.635 49.8666C134.635 50.352 134.73 50.788 134.918 51.1746C135.107 51.5612 135.372 51.8623 135.714 52.0781C136.065 52.2938 136.465 52.4017 136.914 52.4017ZM147.513 46.428V53.3052H146.556L146.408 52.3882C145.886 53.0535 145.154 53.3861 144.21 53.3861C143.392 53.3861 142.735 53.1344 142.241 52.6309C141.746 52.1275 141.499 51.3364 141.499 50.2576V46.428H142.605V50.1902C142.605 50.9004 142.758 51.4443 143.064 51.8219C143.378 52.1904 143.823 52.3747 144.398 52.3747C145.028 52.3747 145.518 52.15 145.868 51.7005C146.228 51.251 146.408 50.6397 146.408 49.8666V46.428H147.513ZM155.547 46.428V52.9681C155.547 55.0447 154.41 56.083 152.136 56.083C151.246 56.083 150.518 55.8808 149.951 55.4762C149.394 55.0717 149.07 54.4963 148.98 53.7502H150.113C150.203 54.1817 150.432 54.5143 150.801 54.748C151.169 54.9818 151.641 55.0986 152.217 55.0986C153.7 55.0986 154.442 54.375 154.442 52.9276V52.1185C153.947 52.9636 153.161 53.3861 152.082 53.3861C151.444 53.3861 150.873 53.2467 150.369 52.9681C149.875 52.6894 149.484 52.2848 149.196 51.7544C148.917 51.224 148.778 50.5947 148.778 49.8666C148.778 49.1744 148.917 48.5631 149.196 48.0327C149.484 47.5023 149.879 47.0887 150.383 46.7921C150.886 46.4954 151.453 46.3471 152.082 46.3471C152.639 46.3471 153.116 46.4594 153.511 46.6842C153.907 46.8999 154.217 47.2101 154.442 47.6146L154.59 46.428H155.547ZM152.19 52.4017C152.63 52.4017 153.021 52.2983 153.363 52.0916C153.713 51.8758 153.983 51.5791 154.172 51.2016C154.361 50.815 154.455 50.379 154.455 49.8935C154.455 49.3991 154.361 48.9586 154.172 48.572C153.983 48.1765 153.713 47.8708 153.363 47.6551C153.021 47.4393 152.63 47.3314 152.19 47.3314C151.506 47.3314 150.954 47.5697 150.531 48.0461C150.118 48.5136 149.911 49.1204 149.911 49.8666C149.911 50.6127 150.118 51.224 150.531 51.7005C150.954 52.168 151.506 52.4017 152.19 52.4017ZM160.425 46.3471C161.261 46.3471 161.935 46.5988 162.448 47.1022C162.96 47.6056 163.216 48.3967 163.216 49.4755V53.3052H162.11V49.5429C162.11 48.8327 161.949 48.2934 161.625 47.9248C161.301 47.5472 160.838 47.3584 160.236 47.3584C159.598 47.3584 159.09 47.5832 158.712 48.0327C158.344 48.4821 158.159 49.0935 158.159 49.8666V53.3052H157.054V43.8659H158.159V47.5607C158.384 47.2011 158.681 46.9089 159.049 46.6842C159.427 46.4594 159.885 46.3471 160.425 46.3471ZM167.548 53.3052L171.148 43.8659H172.537L176.124 53.3052H174.87L173.872 50.7566H169.76L168.762 53.3052H167.548ZM170.11 49.6913H173.522L171.809 45.1469L170.11 49.6913ZM182.726 46.428V53.3052H181.769L181.621 52.3882C181.099 53.0535 180.367 53.3861 179.423 53.3861C178.605 53.3861 177.948 53.1344 177.454 52.6309C176.959 52.1275 176.712 51.3364 176.712 50.2576V46.428H177.818V50.1902C177.818 50.9004 177.971 51.4443 178.277 51.8219C178.591 52.1904 179.036 52.3747 179.611 52.3747C180.241 52.3747 180.731 52.15 181.081 51.7005C181.441 51.251 181.621 50.6397 181.621 49.8666V46.428H182.726ZM184.719 47.4393H183.478V46.428H184.719V44.4997H185.824V46.428H187.564V47.4393H185.824V51.4982C185.824 51.7859 185.878 51.9927 185.986 52.1185C186.103 52.2354 186.301 52.2938 186.58 52.2938H187.78V53.3052H186.512C185.865 53.3052 185.402 53.1613 185.123 52.8737C184.853 52.586 184.719 52.132 184.719 51.5117V47.4393ZM191.564 53.3861C190.899 53.3861 190.305 53.2378 189.784 52.9411C189.272 52.6444 188.872 52.2309 188.584 51.7005C188.296 51.1701 188.152 50.5588 188.152 49.8666C188.152 49.1744 188.296 48.5631 188.584 48.0327C188.872 47.5023 189.272 47.0887 189.784 46.7921C190.305 46.4954 190.899 46.3471 191.564 46.3471C192.229 46.3471 192.818 46.4954 193.33 46.7921C193.852 47.0887 194.256 47.5023 194.544 48.0327C194.832 48.5631 194.976 49.1744 194.976 49.8666C194.976 50.5588 194.832 51.1701 194.544 51.7005C194.256 52.2309 193.852 52.6444 193.33 52.9411C192.818 53.2378 192.229 53.3861 191.564 53.3861ZM191.564 52.4017C192.013 52.4017 192.409 52.2938 192.751 52.0781C193.101 51.8623 193.371 51.5612 193.56 51.1746C193.749 50.788 193.843 50.352 193.843 49.8666C193.843 49.3811 193.749 48.9451 193.56 48.5586C193.371 48.172 193.101 47.8708 192.751 47.6551C192.409 47.4393 192.013 47.3314 191.564 47.3314C191.115 47.3314 190.714 47.4393 190.364 47.6551C190.022 47.8708 189.757 48.172 189.568 48.5586C189.379 48.9451 189.285 49.3811 189.285 49.8666C189.285 50.352 189.379 50.788 189.568 51.1746C189.757 51.5612 190.022 51.8623 190.364 52.0781C190.714 52.2938 191.115 52.4017 191.564 52.4017ZM203.916 46.3471C204.69 46.3471 205.314 46.5898 205.791 47.0752C206.276 47.5607 206.519 48.3158 206.519 49.3407V53.3052H205.413V49.4081C205.413 48.7428 205.269 48.2349 204.982 47.8843C204.703 47.5337 204.303 47.3584 203.782 47.3584C203.206 47.3584 202.752 47.5607 202.42 47.9652C202.096 48.3698 201.934 48.9226 201.934 49.6238V53.3052H200.828V49.4081C200.828 48.7428 200.685 48.2349 200.397 47.8843C200.109 47.5337 199.7 47.3584 199.17 47.3584C198.612 47.3584 198.167 47.5742 197.835 48.0057C197.511 48.4282 197.349 48.9856 197.349 49.6778V53.3052H196.244V46.428H197.201L197.349 47.3719C197.844 46.6887 198.514 46.3471 199.359 46.3471C199.853 46.3471 200.289 46.4594 200.667 46.6842C201.053 46.8999 201.341 47.2236 201.53 47.6551C202.024 46.7831 202.82 46.3471 203.916 46.3471ZM214.37 52.2938V53.3052H213.763C213.322 53.3052 213.008 53.2153 212.819 53.0355C212.63 52.8557 212.531 52.5905 212.522 52.2399C211.992 53.004 211.223 53.3861 210.216 53.3861C209.452 53.3861 208.836 53.2063 208.369 52.8467C207.91 52.4871 207.681 51.9972 207.681 51.3769C207.681 50.6846 207.915 50.1542 208.382 49.7857C208.859 49.4171 209.547 49.2328 210.446 49.2328H212.468V48.7608C212.468 48.3113 212.315 47.9607 212.01 47.709C211.713 47.4573 211.295 47.3314 210.756 47.3314C210.279 47.3314 209.884 47.4393 209.569 47.6551C209.263 47.8618 209.075 48.1405 209.003 48.4911H207.897C207.978 47.8169 208.275 47.291 208.787 46.9134C209.308 46.5359 209.983 46.3471 210.81 46.3471C211.691 46.3471 212.369 46.5628 212.846 46.9943C213.331 47.4169 213.574 48.0282 213.574 48.8283V51.7949C213.574 52.1275 213.727 52.2938 214.032 52.2938H214.37ZM212.468 50.1632H210.338C209.313 50.1632 208.8 50.5453 208.8 51.3094C208.8 51.6511 208.935 51.9252 209.205 52.132C209.475 52.3388 209.839 52.4422 210.297 52.4422C210.971 52.4422 211.502 52.2669 211.888 51.9163C212.275 51.5567 212.468 51.0847 212.468 50.5004V50.1632ZM215.678 47.4393H214.438V46.428H215.678V44.4997H216.784V46.428H218.523V47.4393H216.784V51.4982C216.784 51.7859 216.838 51.9927 216.946 52.1185C217.063 52.2354 217.26 52.2938 217.539 52.2938H218.739V53.3052H217.472C216.824 53.3052 216.361 53.1613 216.083 52.8737C215.813 52.586 215.678 52.132 215.678 51.5117V47.4393ZM220.079 43.7715C220.285 43.7715 220.456 43.8389 220.591 43.9738C220.726 44.1086 220.793 44.2794 220.793 44.4862C220.793 44.6929 220.726 44.8637 220.591 44.9986C220.456 45.1334 220.285 45.2009 220.079 45.2009C219.872 45.2009 219.701 45.1334 219.566 44.9986C219.431 44.8637 219.364 44.6929 219.364 44.4862C219.364 44.2794 219.431 44.1086 219.566 43.9738C219.701 43.8389 219.872 43.7715 220.079 43.7715ZM219.526 46.428H220.632V53.3052H219.526V46.428ZM225.315 53.3861C224.65 53.3861 224.057 53.2378 223.535 52.9411C223.023 52.6444 222.623 52.2309 222.335 51.7005C222.047 51.1701 221.904 50.5588 221.904 49.8666C221.904 49.1744 222.047 48.5631 222.335 48.0327C222.623 47.5023 223.023 47.0887 223.535 46.7921C224.057 46.4954 224.65 46.3471 225.315 46.3471C225.981 46.3471 226.569 46.4954 227.082 46.7921C227.603 47.0887 228.008 47.5023 228.295 48.0327C228.583 48.5631 228.727 49.1744 228.727 49.8666C228.727 50.5588 228.583 51.1701 228.295 51.7005C228.008 52.2309 227.603 52.6444 227.082 52.9411C226.569 53.2378 225.981 53.3861 225.315 53.3861ZM225.315 52.4017C225.765 52.4017 226.16 52.2938 226.502 52.0781C226.853 51.8623 227.122 51.5612 227.311 51.1746C227.5 50.788 227.594 50.352 227.594 49.8666C227.594 49.3811 227.5 48.9451 227.311 48.5586C227.122 48.172 226.853 47.8708 226.502 47.6551C226.16 47.4393 225.765 47.3314 225.315 47.3314C224.866 47.3314 224.466 47.4393 224.115 47.6551C223.774 47.8708 223.508 48.172 223.32 48.5586C223.131 48.9451 223.036 49.3811 223.036 49.8666C223.036 50.352 223.131 50.788 223.32 51.1746C223.508 51.5612 223.774 51.8623 224.115 52.0781C224.466 52.2938 224.866 52.4017 225.315 52.4017ZM233.366 46.3471C234.202 46.3471 234.872 46.5988 235.375 47.1022C235.888 47.6056 236.144 48.3967 236.144 49.4755V53.3052H235.038V49.5429C235.038 48.8327 234.876 48.2934 234.553 47.9248C234.238 47.5472 233.78 47.3584 233.177 47.3584C232.53 47.3584 232.022 47.5832 231.654 48.0327C231.285 48.4821 231.101 49.0935 231.101 49.8666V53.3052H229.995V46.428H230.952L231.101 47.3584C231.622 46.6842 232.377 46.3471 233.366 46.3471Z" fill="#151515"/>
</g>
<g filter="url(#filter2_d_1_1191)">
<rect x="20.2148" y="25.6191" width="42.4608" height="42.2045" rx="21.1022" fill="white"/>
</g>
<g clip-path="url(#clip0_1_1191)">
<path d="M28.8495 45.6725C28.7948 46.1123 29.1378 46.5005 29.581 46.5005H32.58C32.94 46.5005 33.2474 46.2405 33.307 45.8855C33.8842 42.4481 36.5814 39.7509 40.0187 39.1737C40.3738 39.1141 40.6338 38.8068 40.6338 38.4467V35.4477C40.6338 35.0045 40.2456 34.6615 39.8057 34.7162C37.0404 35.0598 34.428 36.3385 32.4499 38.3166C30.4718 40.2947 29.1931 42.9071 28.8495 45.6725Z" fill="#DC63FD"/>
<path d="M46.1215 53.9102C44.7224 54.9092 43.0818 55.4372 41.3771 55.4372C37.366 55.4372 33.972 52.5628 33.307 48.6024C33.2474 48.2474 32.9401 47.9873 32.5801 47.9873H29.581C29.1378 47.9873 28.7948 48.3755 28.8495 48.8153V48.8154C29.6329 55.1188 35.0186 59.8723 41.3771 59.8723C44.2098 59.8723 46.8886 58.9529 49.1241 57.2134C49.474 56.9412 49.5061 56.4239 49.1926 56.1104L47.0711 53.9889C46.8163 53.7341 46.4147 53.7009 46.1215 53.9102Z" fill="#DC63FD"/>
<path d="M42.7362 39.1737C46.6966 39.8387 49.5711 43.2327 49.5711 47.2438C49.5711 48.9485 49.043 50.589 48.0441 51.9882C47.8347 52.2814 47.868 52.683 48.1228 52.9377L50.2444 55.0594C50.5579 55.3729 51.0751 55.3407 51.3474 54.9908L51.3474 54.9908C53.0868 52.7554 54.0062 50.0765 54.0062 47.2438C54.0062 40.8853 49.2527 35.4996 42.9492 34.7162H42.9492C42.5094 34.6615 42.1211 35.0045 42.1211 35.4477V38.4467C42.1211 38.8068 42.3812 39.1141 42.7362 39.1737Z" fill="#DC63FD"/>
<path d="M41.8671 42.1787H40.8836C40.4765 42.1787 40.1465 42.5088 40.1465 42.9159V51.5159H42.6043V42.9159C42.6043 42.5088 42.2742 42.1787 41.8671 42.1787Z" fill="#DC63FD"/>
<path d="M44.0781 51.516H45.7987C46.2059 51.516 46.5359 51.186 46.5359 50.7789V44.8817C46.5359 44.4746 46.2059 44.1445 45.7987 44.1445H44.0781V51.516Z" fill="#DC63FD"/>
<path d="M38.6727 46.1099H36.954C36.5468 46.1099 36.2168 46.4399 36.2168 46.847V50.7785C36.2168 51.1856 36.5468 51.5156 36.954 51.5156H38.6727V46.1099Z" fill="#DC63FD"/>
</g>
<defs>
<filter id="filter0_d_1_1191" x="3.54527" y="3.07452" width="30.8373" height="32.388" filterUnits="userSpaceOnUse" color-interpolation-filters="sRGB">
<feFlood flood-opacity="0" result="BackgroundImageFix"/>
<feColorMatrix in="SourceAlpha" type="matrix" values="0 0 0 0 0 0 0 0 0 0 0 0 0 0 0 0 0 0 127 0" result="hardAlpha"/>
<feOffset dy="1.12373"/>
<feGaussianBlur stdDeviation="1.12373"/>
<feComposite in2="hardAlpha" operator="out"/>
<feColorMatrix type="matrix" values="0 0 0 0 0 0 0 0 0 0 0 0 0 0 0 0 0 0 0.08 0"/>
<feBlend mode="normal" in2="BackgroundImageFix" result="effect1_dropShadow_1_1191"/>
<feBlend mode="normal" in="SourceGraphic" in2="effect1_dropShadow_1_1191" result="shape"/>
</filter>
<filter id="filter1_d_1_1191" x="10.9273" y="23.2052" width="262.2" height="77.2" filterUnits="userSpaceOnUse" color-interpolation-filters="sRGB">
<feFlood flood-opacity="0" result="BackgroundImageFix"/>
<feColorMatrix in="SourceAlpha" type="matrix" values="0 0 0 0 0 0 0 0 0 0 0 0 0 0 0 0 0 0 127 0" result="hardAlpha"/>
<feOffset dy="14"/>
<feGaussianBlur stdDeviation="9.3"/>
<feComposite in2="hardAlpha" operator="out"/>
<feColorMatrix type="matrix" values="0 0 0 0 0.890196 0 0 0 0 0.658824 0 0 0 0 0.905882 0 0 0 0.36 0"/>
<feBlend mode="normal" in2="BackgroundImageFix" result="effect1_dropShadow_1_1191"/>
<feBlend mode="normal" in="SourceGraphic" in2="effect1_dropShadow_1_1191" result="shape"/>
</filter>
<filter id="filter2_d_1_1191" x="9.27205" y="19.2068" width="64.3464" height="64.0902" filterUnits="userSpaceOnUse" color-interpolation-filters="sRGB">
<feFlood flood-opacity="0" result="BackgroundImageFix"/>
<feColorMatrix in="SourceAlpha" type="matrix" values="0 0 0 0 0 0 0 0 0 0 0 0 0 0 0 0 0 0 127 0" result="hardAlpha"/>
<feOffset dy="4.53046"/>
<feGaussianBlur stdDeviation="5.4714"/>
<feComposite in2="hardAlpha" operator="out"/>
<feColorMatrix type="matrix" values="0 0 0 0 0.88853 0 0 0 0 0.370192 0 0 0 0 1 0 0 0 0.23 0"/>
<feBlend mode="normal" in2="BackgroundImageFix" result="effect1_dropShadow_1_1191"/>
<feBlend mode="normal" in="SourceGraphic" in2="effect1_dropShadow_1_1191" result="shape"/>
</filter>
<clipPath id="clip0_1_1191">
<rect width="25.1616" height="25.1616" fill="white" transform="translate(28.8438 34.7104)"/>
</clipPath>
</defs>
</svg>
