<svg width="80" height="81" viewBox="0 0 80 81" fill="none" xmlns="http://www.w3.org/2000/svg">
<rect width="80" height="80.0277" rx="20" fill="#051336"/>
<mask id="mask0_1_6465" style="mask-type:alpha" maskUnits="userSpaceOnUse" x="0" y="0" width="80" height="81">
<rect width="80" height="80.0277" rx="20" fill="#051336"/>
</mask>
<g mask="url(#mask0_1_6465)">
<path fill-rule="evenodd" clip-rule="evenodd" d="M37.8025 21.6955C44.9189 21.6955 50.9422 26.3746 52.9663 32.8222C49.0196 33.6803 46.0643 37.1933 46.0643 41.3954C46.0643 44.2269 47.4068 46.7449 49.4891 48.3503C46.5863 51.501 42.4256 53.4743 37.803 53.4743C29.0269 53.4743 21.9144 46.3598 21.9144 37.5837C21.9125 28.8095 29.0269 21.6951 37.803 21.6951L37.8025 21.6955ZM54.8366 33.8196C50.6533 33.8196 47.2602 37.2124 47.2602 41.3959C47.2602 45.5794 50.6531 48.9723 54.8366 48.9723C59.02 48.9723 62.413 45.5794 62.413 41.3959C62.413 37.2124 59.0201 33.8196 54.8366 33.8196ZM53.3983 51.9799C52.7262 51.9799 52.176 52.53 52.176 53.2003V60.9719C52.176 61.644 52.7261 62.1942 53.3983 62.1942H56.273C56.9452 62.1942 57.4935 61.6441 57.4935 60.9719L57.4954 53.2023C57.4954 52.5301 56.9452 51.9818 56.2749 51.9818H55.8581V50.1117C55.5238 50.1511 55.184 50.1718 54.8385 50.1718C54.493 50.1718 54.1532 50.1511 53.8189 50.1117V51.9818H53.3983L53.3983 51.9799ZM18.7841 31.818V21.4816C18.7841 19.88 20.0966 18.5676 21.6982 18.5676H32.0346C32.3651 18.5676 32.6336 18.2991 32.6336 17.9686C32.6336 17.6381 32.3651 17.3696 32.0346 17.3696H21.6982C19.4357 17.3696 17.5862 19.2191 17.5862 21.4816V31.818C17.5862 32.1485 17.8547 32.417 18.1851 32.417C18.5175 32.417 18.7841 32.1485 18.7841 31.818ZM43.5686 18.5678H53.905C55.5066 18.5678 56.8191 19.8803 56.8191 21.4819V31.8183C56.8191 32.1487 57.0876 32.4172 57.418 32.4172C57.7485 32.4172 58.017 32.1487 58.017 31.8183V21.4819C58.017 19.2194 56.1675 17.3699 53.905 17.3699H43.5686C43.2381 17.3699 42.9696 17.6384 42.9696 17.9688C42.9696 18.3012 43.2362 18.5678 43.5686 18.5678ZM32.0343 56.603H21.698C20.0963 56.603 18.7839 55.2905 18.7839 53.6889V43.3525C18.7839 43.022 18.5154 42.7535 18.1849 42.7535C17.8544 42.7535 17.5859 43.022 17.5859 43.3525V53.6889C17.5859 55.9514 19.4354 57.8009 21.698 57.8009H32.0343C32.3648 57.8009 32.6333 57.5324 32.6333 57.202C32.6333 56.8715 32.3648 56.603 32.0343 56.603ZM37.8024 43.7921C36.7416 43.7921 35.8835 44.6521 35.8835 45.7129C35.8835 46.7737 36.7435 47.6337 37.8024 47.6337C38.8633 47.6337 39.7232 46.7737 39.7232 45.7129C39.7214 44.6521 38.8614 43.7921 37.8024 43.7921ZM37.8024 27.5396C36.7472 27.5396 35.8835 28.4033 35.8835 29.4604V39.2205C35.8835 40.2757 36.7472 41.1413 37.8024 41.1413C38.8576 41.1413 39.7232 40.2775 39.7232 39.2205L39.7214 29.4604C39.7214 28.4033 38.8576 27.5396 37.8024 27.5396Z" fill="white"/>
<g filter="url(#filter0_f_1_6465)">
<circle cx="69.3936" cy="68.6138" r="23.1865" fill="#7583F2"/>
</g>
</g>
<defs>
<filter id="filter0_f_1_6465" x="12.207" y="11.4272" width="114.373" height="114.373" filterUnits="userSpaceOnUse" color-interpolation-filters="sRGB">
<feFlood flood-opacity="0" result="BackgroundImageFix"/>
<feBlend mode="normal" in="SourceGraphic" in2="BackgroundImageFix" result="shape"/>
<feGaussianBlur stdDeviation="17" result="effect1_foregroundBlur_1_6465"/>
</filter>
</defs>
</svg>
