<svg width="60" height="60" viewBox="0 0 60 60" fill="none" xmlns="http://www.w3.org/2000/svg">
<rect width="59.6886" height="59.7092" rx="14.9221" fill="#051336"/>
<g clip-path="url(#clip0_1_2328)">
<path d="M28.701 33.4325C30.1611 33.4325 31.6212 33.4296 33.0826 33.4325C34.1136 33.4353 34.8883 34.0857 35.0143 35.0399C35.163 36.1631 34.3232 37.1386 33.1889 37.1428C31.0646 37.1485 28.9403 37.1428 26.8161 37.1443C26.3841 37.1443 26.1349 37.3956 26.1816 37.7733C26.217 38.0658 26.4549 38.2518 26.8118 38.2518C27.8031 38.2547 28.7945 38.2575 29.7858 38.2518C30.7672 38.2462 31.7514 38.2675 32.7314 38.2107C33.9819 38.1382 35.0441 37.5987 35.9277 36.7169C37.8523 34.7942 39.7712 32.8645 41.693 30.939C42.1292 30.5016 42.6518 30.3483 43.2494 30.5187C44.3611 30.8368 44.7633 32.1701 44.0056 33.059C43.1333 34.0842 42.2425 35.0953 41.3588 36.1105C39.9327 37.7478 38.525 39.4006 37.072 41.0137C36.041 42.1596 34.7169 42.7702 33.1818 42.9037C30.7063 43.1195 28.2322 43.3552 25.7539 43.5355C24.6309 43.6165 23.6382 43.9417 22.7446 44.6346C22.0945 45.1387 21.3992 45.5817 20.7251 46.0546C20.1374 46.4664 19.5794 46.3641 19.2154 45.7521C17.9579 43.6364 16.706 41.5178 15.4555 39.3978C15.1524 38.8837 15.2856 38.3654 15.794 38.0417C17.8007 36.7623 19.8088 35.4857 21.8155 34.2063C22.6369 33.6824 23.5362 33.4353 24.5049 33.4339C25.9026 33.431 27.3018 33.4339 28.6996 33.4339L28.701 33.4325Z" fill="white"/>
<path d="M37.2471 29.7659C36.7925 29.3583 36.3195 28.9323 35.8437 28.5063C35.1597 28.9224 34.4573 29.249 33.6897 29.4165C33.5254 29.452 33.5183 29.5571 33.5127 29.6906C33.4886 30.2486 33.4574 30.8053 33.4263 31.3818H30.5132C30.4849 30.845 30.4452 30.3154 30.4339 29.7857C30.4297 29.5585 30.3673 29.462 30.1351 29.3825C29.4454 29.1467 28.7713 28.8613 28.0236 28.5702C27.6214 28.9309 27.1427 29.3597 26.6796 29.7758C25.9885 29.0871 25.3073 28.4069 24.6134 27.7126C24.9745 27.3107 25.347 26.8847 25.7336 26.4715C25.8582 26.338 25.8483 26.2472 25.7747 26.0853C25.4929 25.4577 25.2266 24.8229 24.9873 24.1783C24.925 24.0107 24.8598 23.9553 24.6984 23.9497C24.1432 23.9284 23.5881 23.8971 23.0117 23.8701V20.9549C23.2171 20.9393 23.4337 20.9194 23.649 20.9067C24.02 20.8854 24.3925 20.8783 24.7621 20.8428C24.8343 20.8357 24.9391 20.7419 24.9604 20.6695C25.153 19.9737 25.4065 19.3049 25.7903 18.6929C25.8837 18.5438 25.8441 18.4629 25.7435 18.3536C25.3597 17.9361 24.9845 17.5115 24.6148 17.1011C25.3017 16.4153 25.9843 15.7351 26.6824 15.0379C27.0662 15.3844 27.4868 15.7508 27.8904 16.1327C28.0377 16.2719 28.1383 16.2634 28.321 16.181C28.937 15.8999 29.5672 15.6485 30.2016 15.4071C30.3588 15.3475 30.4254 15.2864 30.4297 15.116C30.4396 14.6545 30.4679 14.1945 30.4905 13.733C30.4962 13.6293 30.5047 13.5257 30.5132 13.4106H33.4234C33.4546 13.9914 33.49 14.5651 33.5113 15.1387C33.5169 15.2864 33.5594 15.3588 33.7081 15.3943C34.4629 15.5718 35.1625 15.8842 35.8409 16.3045C36.3124 15.8814 36.7854 15.4568 37.2386 15.0507C37.9226 15.7394 38.5996 16.421 39.2977 17.1239C38.9621 17.4987 38.5967 17.9176 38.2186 18.3252C38.094 18.4586 38.0784 18.5509 38.1648 18.7313C38.4891 19.4058 38.778 20.0973 39.1066 20.8428C39.6419 20.874 40.2749 20.9095 40.9278 20.9478V23.8701C40.3967 23.8957 39.8685 23.9355 39.3402 23.9411C39.0853 23.944 39.0003 24.0448 38.9182 24.2834C38.7157 24.867 38.4806 25.442 38.2087 25.9944C38.0897 26.2358 38.0954 26.3721 38.2781 26.5596C38.6421 26.9344 38.9805 27.332 39.3247 27.714C38.6307 28.3998 37.9481 29.0758 37.2471 29.7687V29.7659ZM36.2841 22.4218C36.2884 20.0249 34.3822 18.0809 32.02 18.0738C29.6069 18.0667 27.6624 19.9666 27.6511 22.3451C27.6398 24.7818 29.5502 26.7328 31.9577 26.7427C34.3369 26.7527 36.2785 24.813 36.2841 22.4218Z" fill="white"/>
</g>
<mask id="mask0_1_2328" style="mask-type:alpha" maskUnits="userSpaceOnUse" x="0" y="0" width="60" height="60">
<rect width="59.6886" height="59.7092" rx="14.9221" fill="#051336"/>
</mask>
<g mask="url(#mask0_1_2328)">
<g filter="url(#filter0_f_1_2328)">
<ellipse cx="51.7742" cy="51.1934" rx="17.2996" ry="17.2996" fill="#7583F2"/>
</g>
</g>
<defs>
<filter id="filter0_f_1_2328" x="9.10697" y="8.52616" width="85.3344" height="85.3346" filterUnits="userSpaceOnUse" color-interpolation-filters="sRGB">
<feFlood flood-opacity="0" result="BackgroundImageFix"/>
<feBlend mode="normal" in="SourceGraphic" in2="BackgroundImageFix" result="shape"/>
<feGaussianBlur stdDeviation="12.6838" result="effect1_foregroundBlur_1_2328"/>
</filter>
<clipPath id="clip0_1_2328">
<rect width="29.0982" height="32.8936" fill="white" transform="translate(15.2949 13.408)"/>
</clipPath>
</defs>
</svg>
