<svg width="309" height="257" viewBox="0 0 309 257" fill="none" xmlns="http://www.w3.org/2000/svg">
<g filter="url(#filter0_d_1_2466)">
<path d="M81.5195 70.5983C81.5195 66.29 85.0121 62.7974 89.3204 62.7974H219.666C223.974 62.7974 227.467 66.29 227.467 70.5983V148.664C227.467 152.972 223.974 156.465 219.666 156.465H89.3204C85.0121 156.465 81.5195 152.972 81.5195 148.664V70.5983Z" fill="white"/>
</g>
<path d="M98.3002 83.51L97.2372 82.3598C96.9758 82.4353 96.6883 82.4731 96.3746 82.4731C95.8111 82.4731 95.2912 82.3424 94.8149 82.081C94.3444 81.8138 93.9697 81.4449 93.6909 80.9744C93.4179 80.4981 93.2814 79.9637 93.2814 79.3712C93.2814 78.7787 93.4179 78.2472 93.6909 77.7767C93.9697 77.3061 94.3444 76.9402 94.8149 76.6788C95.2912 76.4116 95.8111 76.278 96.3746 76.278C96.9438 76.278 97.4637 76.4116 97.9343 76.6788C98.4106 76.9402 98.7853 77.3061 99.0583 77.7767C99.3313 78.2472 99.4678 78.7787 99.4678 79.3712C99.4678 79.9288 99.3458 80.4342 99.1018 80.8873C98.8637 81.3346 98.5326 81.6947 98.1085 81.9677L99.5636 83.51H98.3002ZM94.3008 79.3712C94.3008 79.8185 94.388 80.2135 94.5622 80.5562C94.7423 80.8931 94.9892 81.1545 95.3029 81.3404C95.6165 81.5205 95.9738 81.6105 96.3746 81.6105C96.7754 81.6105 97.1326 81.5205 97.4463 81.3404C97.76 81.1545 98.004 80.8931 98.1782 80.5562C98.3583 80.2135 98.4483 79.8185 98.4483 79.3712C98.4483 78.9239 98.3583 78.5318 98.1782 78.1949C98.004 77.858 97.76 77.5995 97.4463 77.4194C97.1326 77.2393 96.7754 77.1493 96.3746 77.1493C95.9738 77.1493 95.6165 77.2393 95.3029 77.4194C94.9892 77.5995 94.7423 77.858 94.5622 78.1949C94.388 78.5318 94.3008 78.9239 94.3008 79.3712ZM104.644 77.6111V82.4121H103.651V81.8457C103.494 82.0432 103.288 82.2001 103.032 82.3163C102.783 82.4266 102.515 82.4818 102.231 82.4818C101.853 82.4818 101.513 82.4034 101.211 82.2466C100.915 82.0897 100.68 81.8574 100.506 81.5495C100.337 81.2416 100.253 80.8699 100.253 80.4342V77.6111H101.238V80.2861C101.238 80.7159 101.345 81.047 101.56 81.2794C101.775 81.5059 102.068 81.6192 102.44 81.6192C102.812 81.6192 103.105 81.5059 103.32 81.2794C103.541 81.047 103.651 80.7159 103.651 80.2861V77.6111H104.644ZM105.45 79.9898C105.45 79.5077 105.548 79.0807 105.746 78.709C105.949 78.3372 106.222 78.0497 106.565 77.8464C106.913 77.6372 107.297 77.5327 107.715 77.5327C108.093 77.5327 108.421 77.6082 108.7 77.7592C108.984 77.9044 109.211 78.0874 109.379 78.3082V77.6111H110.381V82.4121H109.379V81.6976C109.211 81.9242 108.981 82.113 108.691 82.264C108.401 82.415 108.069 82.4905 107.698 82.4905C107.285 82.4905 106.908 82.386 106.565 82.1769C106.222 81.9619 105.949 81.6657 105.746 81.2881C105.548 80.9047 105.45 80.472 105.45 79.9898ZM109.379 80.0072C109.379 79.6761 109.31 79.3886 109.17 79.1446C109.037 78.9007 108.859 78.7148 108.639 78.587C108.418 78.4592 108.18 78.3953 107.924 78.3953C107.669 78.3953 107.43 78.4592 107.21 78.587C106.989 78.709 106.809 78.892 106.67 79.1359C106.536 79.3741 106.469 79.6587 106.469 79.9898C106.469 80.3209 106.536 80.6114 106.67 80.8611C106.809 81.1109 106.989 81.3026 107.21 81.4362C107.436 81.564 107.674 81.6279 107.924 81.6279C108.18 81.6279 108.418 81.564 108.639 81.4362C108.859 81.3084 109.037 81.1225 109.17 80.8786C109.31 80.6288 109.379 80.3384 109.379 80.0072ZM112.505 78.3082C112.65 78.0642 112.842 77.8754 113.08 77.7418C113.324 77.6024 113.612 77.5327 113.943 77.5327V78.5608H113.69C113.301 78.5608 113.005 78.6596 112.801 78.8571C112.604 79.0546 112.505 79.3973 112.505 79.8853V82.4121H111.512V77.6111H112.505V78.3082ZM115.84 78.4214V81.079C115.84 81.2591 115.881 81.3898 115.962 81.4711C116.05 81.5466 116.195 81.5843 116.398 81.5843H117.008V82.4121H116.224C115.777 82.4121 115.434 82.3076 115.196 82.0984C114.957 81.8893 114.838 81.5495 114.838 81.079V78.4214H114.272V77.6111H114.838V76.4174H115.84V77.6111H117.008V78.4214H115.84ZM122.149 79.894C122.149 80.0741 122.138 80.2367 122.115 80.3819H118.446C118.475 80.7653 118.618 81.0732 118.873 81.3055C119.129 81.5379 119.443 81.6541 119.814 81.6541C120.349 81.6541 120.726 81.4304 120.947 80.9831H122.019C121.874 81.4246 121.609 81.7877 121.226 82.0723C120.848 82.3511 120.378 82.4905 119.814 82.4905C119.355 82.4905 118.943 82.3889 118.577 82.1856C118.217 81.9764 117.932 81.686 117.723 81.3142C117.52 80.9367 117.418 80.501 117.418 80.0072C117.418 79.5135 117.517 79.0807 117.714 78.709C117.918 78.3314 118.199 78.041 118.56 77.8376C118.926 77.6343 119.344 77.5327 119.814 77.5327C120.267 77.5327 120.671 77.6314 121.025 77.8289C121.38 78.0264 121.656 78.3053 121.853 78.6654C122.051 79.0197 122.149 79.4293 122.149 79.894ZM121.113 79.5803C121.107 79.2143 120.976 78.921 120.72 78.7003C120.465 78.4795 120.148 78.3692 119.771 78.3692C119.428 78.3692 119.135 78.4795 118.891 78.7003C118.647 78.9152 118.501 79.2085 118.455 79.5803H121.113ZM123.946 78.3082C124.091 78.0642 124.283 77.8754 124.521 77.7418C124.765 77.6024 125.053 77.5327 125.384 77.5327V78.5608H125.131C124.742 78.5608 124.446 78.6596 124.242 78.8571C124.045 79.0546 123.946 79.3973 123.946 79.8853V82.4121H122.953V77.6111H123.946V78.3082ZM127.116 75.9643V82.4121H126.122V75.9643H127.116ZM132.567 77.6111L129.622 84.6688H128.594L129.57 82.3337L127.679 77.6111H128.786L130.136 81.2707L131.539 77.6111H132.567ZM138.377 82.4121L136.983 79.9898H136.225V82.4121H135.232V76.3564H137.323C137.788 76.3564 138.18 76.4377 138.499 76.6004C138.825 76.763 139.066 76.9808 139.223 77.2539C139.385 77.5269 139.467 77.8318 139.467 78.1688C139.467 78.5638 139.35 78.9239 139.118 79.2492C138.891 79.5687 138.54 79.7865 138.064 79.9027L139.562 82.4121H138.377ZM136.225 79.1969H137.323C137.695 79.1969 137.974 79.104 138.16 78.9181C138.351 78.7322 138.447 78.4824 138.447 78.1688C138.447 77.8551 138.354 77.6111 138.168 77.4368C137.982 77.2568 137.701 77.1667 137.323 77.1667H136.225V79.1969ZM144.963 79.894C144.963 80.0741 144.952 80.2367 144.928 80.3819H141.26C141.289 80.7653 141.431 81.0732 141.687 81.3055C141.943 81.5379 142.256 81.6541 142.628 81.6541C143.162 81.6541 143.54 81.4304 143.761 80.9831H144.832C144.687 81.4246 144.423 81.7877 144.04 82.0723C143.662 82.3511 143.191 82.4905 142.628 82.4905C142.169 82.4905 141.757 82.3889 141.391 82.1856C141.031 81.9764 140.746 81.686 140.537 81.3142C140.334 80.9367 140.232 80.501 140.232 80.0072C140.232 79.5135 140.331 79.0807 140.528 78.709C140.731 78.3314 141.013 78.041 141.373 77.8376C141.739 77.6343 142.158 77.5327 142.628 77.5327C143.081 77.5327 143.485 77.6314 143.839 77.8289C144.194 78.0264 144.469 78.3053 144.667 78.6654C144.864 79.0197 144.963 79.4293 144.963 79.894ZM143.926 79.5803C143.921 79.2143 143.79 78.921 143.534 78.7003C143.279 78.4795 142.962 78.3692 142.584 78.3692C142.242 78.3692 141.948 78.4795 141.704 78.7003C141.46 78.9152 141.315 79.2085 141.269 79.5803H143.926ZM147.622 81.5234L148.982 77.6111H150.036L148.206 82.4121H147.021L145.2 77.6111H146.263L147.622 81.5234ZM155.013 79.894C155.013 80.0741 155.001 80.2367 154.978 80.3819H151.31C151.339 80.7653 151.481 81.0732 151.737 81.3055C151.992 81.5379 152.306 81.6541 152.678 81.6541C153.212 81.6541 153.59 81.4304 153.81 80.9831H154.882C154.737 81.4246 154.472 81.7877 154.089 82.0723C153.712 82.3511 153.241 82.4905 152.678 82.4905C152.219 82.4905 151.806 82.3889 151.44 82.1856C151.08 81.9764 150.795 81.686 150.586 81.3142C150.383 80.9367 150.281 80.501 150.281 80.0072C150.281 79.5135 150.38 79.0807 150.578 78.709C150.781 78.3314 151.063 78.041 151.423 77.8376C151.789 77.6343 152.207 77.5327 152.678 77.5327C153.131 77.5327 153.534 77.6314 153.889 77.8289C154.243 78.0264 154.519 78.3053 154.716 78.6654C154.914 79.0197 155.013 79.4293 155.013 79.894ZM153.976 79.5803C153.97 79.2143 153.839 78.921 153.584 78.7003C153.328 78.4795 153.012 78.3692 152.634 78.3692C152.291 78.3692 151.998 78.4795 151.754 78.7003C151.51 78.9152 151.365 79.2085 151.318 79.5803H153.976ZM158.238 77.5327C158.616 77.5327 158.953 77.6111 159.249 77.7679C159.551 77.9248 159.786 78.1571 159.955 78.465C160.123 78.7729 160.207 79.1446 160.207 79.5803V82.4121H159.223V79.7284C159.223 79.2986 159.115 78.9704 158.9 78.7438C158.686 78.5115 158.392 78.3953 158.02 78.3953C157.649 78.3953 157.352 78.5115 157.132 78.7438C156.917 78.9704 156.809 79.2986 156.809 79.7284V82.4121H155.816V77.6111H156.809V78.16C156.972 77.9625 157.178 77.8086 157.428 77.6982C157.684 77.5879 157.954 77.5327 158.238 77.5327ZM165.648 77.6111V82.4121H164.655V81.8457C164.498 82.0432 164.292 82.2001 164.036 82.3163C163.786 82.4266 163.519 82.4818 163.235 82.4818C162.857 82.4818 162.517 82.4034 162.215 82.2466C161.919 82.0897 161.684 81.8574 161.509 81.5495C161.341 81.2416 161.257 80.8699 161.257 80.4342V77.6111H162.241V80.2861C162.241 80.7159 162.349 81.047 162.564 81.2794C162.779 81.5059 163.072 81.6192 163.444 81.6192C163.815 81.6192 164.109 81.5059 164.324 81.2794C164.544 81.047 164.655 80.7159 164.655 80.2861V77.6111H165.648ZM171.185 79.894C171.185 80.0741 171.173 80.2367 171.15 80.3819H167.482C167.511 80.7653 167.653 81.0732 167.908 81.3055C168.164 81.5379 168.478 81.6541 168.85 81.6541C169.384 81.6541 169.761 81.4304 169.982 80.9831H171.054C170.909 81.4246 170.644 81.7877 170.261 82.0723C169.883 82.3511 169.413 82.4905 168.85 82.4905C168.391 82.4905 167.978 82.3889 167.612 82.1856C167.252 81.9764 166.967 81.686 166.758 81.3142C166.555 80.9367 166.453 80.501 166.453 80.0072C166.453 79.5135 166.552 79.0807 166.75 78.709C166.953 78.3314 167.235 78.041 167.595 77.8376C167.961 77.6343 168.379 77.5327 168.85 77.5327C169.303 77.5327 169.706 77.6314 170.061 77.8289C170.415 78.0264 170.691 78.3053 170.888 78.6654C171.086 79.0197 171.185 79.4293 171.185 79.894ZM170.148 79.5803C170.142 79.2143 170.011 78.921 169.756 78.7003C169.5 78.4795 169.184 78.3692 168.806 78.3692C168.463 78.3692 168.17 78.4795 167.926 78.7003C167.682 78.9152 167.537 79.2085 167.49 79.5803H170.148ZM178.46 78.099C178.303 77.797 178.085 77.5704 177.806 77.4194C177.528 77.2626 177.205 77.1842 176.839 77.1842C176.438 77.1842 176.081 77.2742 175.767 77.4543C175.454 77.6343 175.207 77.8899 175.027 78.221C174.853 78.5521 174.765 78.9355 174.765 79.3712C174.765 79.8068 174.853 80.1931 175.027 80.53C175.207 80.8611 175.454 81.1167 175.767 81.2968C176.081 81.4769 176.438 81.5669 176.839 81.5669C177.379 81.5669 177.818 81.4159 178.155 81.1138C178.492 80.8118 178.698 80.4023 178.774 79.8853H176.499V79.0924H179.837V79.8678C179.773 80.3384 179.604 80.7711 179.331 81.1661C179.064 81.5611 178.713 81.8777 178.277 82.1159C177.847 82.3482 177.368 82.4644 176.839 82.4644C176.27 82.4644 175.75 82.3337 175.279 82.0723C174.809 81.8051 174.434 81.4362 174.155 80.9657C173.882 80.4952 173.746 79.9637 173.746 79.3712C173.746 78.7787 173.882 78.2472 174.155 77.7767C174.434 77.3061 174.809 76.9402 175.279 76.6788C175.756 76.4116 176.276 76.278 176.839 76.278C177.484 76.278 178.056 76.4377 178.556 76.7572C179.061 77.0709 179.427 77.5182 179.654 78.099H178.46ZM182.724 82.4905C182.271 82.4905 181.862 82.3889 181.496 82.1856C181.13 81.9764 180.842 81.686 180.633 81.3142C180.424 80.9367 180.32 80.501 180.32 80.0072C180.32 79.5193 180.427 79.0865 180.642 78.709C180.857 78.3314 181.15 78.041 181.522 77.8376C181.894 77.6343 182.309 77.5327 182.768 77.5327C183.227 77.5327 183.642 77.6343 184.014 77.8376C184.386 78.041 184.679 78.3314 184.894 78.709C185.109 79.0865 185.216 79.5193 185.216 80.0072C185.216 80.4952 185.106 80.928 184.885 81.3055C184.665 81.6831 184.363 81.9764 183.979 82.1856C183.602 82.3889 183.183 82.4905 182.724 82.4905ZM182.724 81.6279C182.98 81.6279 183.218 81.5669 183.439 81.4449C183.665 81.323 183.848 81.14 183.988 80.896C184.127 80.652 184.197 80.3558 184.197 80.0072C184.197 79.6587 184.13 79.3654 183.997 79.1272C183.863 78.8832 183.686 78.7003 183.465 78.5783C183.244 78.4563 183.006 78.3953 182.751 78.3953C182.495 78.3953 182.257 78.4563 182.036 78.5783C181.821 78.7003 181.65 78.8832 181.522 79.1272C181.394 79.3654 181.33 79.6587 181.33 80.0072C181.33 80.5242 181.461 80.925 181.722 81.2097C181.99 81.4885 182.324 81.6279 182.724 81.6279ZM185.693 79.9898C185.693 79.5077 185.792 79.0807 185.989 78.709C186.193 78.3372 186.466 78.0497 186.808 77.8464C187.157 77.6372 187.54 77.5327 187.958 77.5327C188.336 77.5327 188.664 77.6082 188.943 77.7592C189.228 77.9044 189.454 78.0874 189.623 78.3082V77.6111H190.625V82.4121H189.623V81.6976C189.454 81.9242 189.225 82.113 188.934 82.264C188.644 82.415 188.313 82.4905 187.941 82.4905C187.529 82.4905 187.151 82.386 186.808 82.1769C186.466 81.9619 186.193 81.6657 185.989 81.2881C185.792 80.9047 185.693 80.472 185.693 79.9898ZM189.623 80.0072C189.623 79.6761 189.553 79.3886 189.414 79.1446C189.28 78.9007 189.103 78.7148 188.882 78.587C188.661 78.4592 188.423 78.3953 188.168 78.3953C187.912 78.3953 187.674 78.4592 187.453 78.587C187.232 78.709 187.052 78.892 186.913 79.1359C186.779 79.3741 186.712 79.6587 186.712 79.9898C186.712 80.3209 186.779 80.6114 186.913 80.8611C187.052 81.1109 187.232 81.3026 187.453 81.4362C187.68 81.564 187.918 81.6279 188.168 81.6279C188.423 81.6279 188.661 81.564 188.882 81.4362C189.103 81.3084 189.28 81.1225 189.414 80.8786C189.553 80.6288 189.623 80.3384 189.623 80.0072ZM192.748 75.9643V82.4121H191.755V75.9643H192.748Z" fill="#221F20"/>
<path d="M99.3644 132.013C99.1901 131.612 98.9229 131.298 98.5627 131.072C98.2084 130.839 97.7902 130.723 97.308 130.723C96.8549 130.723 96.4483 130.828 96.0882 131.037C95.728 131.246 95.4434 131.545 95.2343 131.934C95.0252 132.318 94.9206 132.765 94.9206 133.276C94.9206 133.787 95.0252 134.237 95.2343 134.627C95.4434 135.016 95.728 135.315 96.0882 135.524C96.4483 135.733 96.8549 135.838 97.308 135.838C97.7321 135.838 98.1125 135.748 98.4495 135.568C98.7922 135.382 99.0652 135.12 99.2685 134.783C99.4776 134.441 99.5967 134.043 99.6258 133.59H97.0641V133.093H100.271V133.537C100.241 134.072 100.096 134.557 99.8349 134.993C99.5735 135.422 99.222 135.762 98.7806 136.012C98.3449 136.262 97.8541 136.387 97.308 136.387C96.7446 136.387 96.2334 136.256 95.7745 135.995C95.3156 135.727 94.9525 135.359 94.6853 134.888C94.4239 134.412 94.2932 133.874 94.2932 133.276C94.2932 132.678 94.4239 132.143 94.6853 131.673C94.9525 131.196 95.3156 130.828 95.7745 130.566C96.2334 130.299 96.7446 130.165 97.308 130.165C97.9586 130.165 98.5279 130.328 99.0158 130.653C99.5038 130.979 99.8581 131.432 100.079 132.013H99.3644ZM103.47 136.395C103.023 136.395 102.619 136.297 102.259 136.099C101.905 135.896 101.623 135.611 101.414 135.245C101.211 134.873 101.109 134.441 101.109 133.947C101.109 133.453 101.214 133.023 101.423 132.657C101.632 132.286 101.916 132.001 102.277 131.804C102.637 131.6 103.04 131.499 103.488 131.499C103.935 131.499 104.339 131.6 104.699 131.804C105.065 132.001 105.349 132.286 105.553 132.657C105.762 133.023 105.866 133.453 105.866 133.947C105.866 134.435 105.762 134.865 105.553 135.237C105.344 135.608 105.056 135.896 104.69 136.099C104.324 136.297 103.918 136.395 103.47 136.395ZM103.47 135.864C103.784 135.864 104.074 135.794 104.342 135.655C104.609 135.51 104.824 135.295 104.986 135.01C105.155 134.72 105.239 134.365 105.239 133.947C105.239 133.529 105.158 133.177 104.995 132.893C104.832 132.602 104.618 132.387 104.35 132.248C104.083 132.103 103.793 132.03 103.479 132.03C103.165 132.03 102.875 132.103 102.608 132.248C102.34 132.387 102.126 132.602 101.963 132.893C101.806 133.177 101.728 133.529 101.728 133.947C101.728 134.365 101.806 134.72 101.963 135.01C102.126 135.295 102.338 135.51 102.599 135.655C102.866 135.794 103.157 135.864 103.47 135.864ZM106.699 133.938C106.699 133.45 106.795 133.023 106.987 132.657C107.184 132.286 107.455 132.001 107.797 131.804C108.146 131.6 108.538 131.499 108.974 131.499C109.427 131.499 109.816 131.603 110.141 131.812C110.472 132.021 110.71 132.289 110.856 132.614V131.568H111.466V136.326H110.856V135.271C110.705 135.597 110.464 135.867 110.132 136.082C109.807 136.291 109.418 136.395 108.965 136.395C108.535 136.395 108.146 136.294 107.797 136.09C107.455 135.887 107.184 135.6 106.987 135.228C106.795 134.856 106.699 134.426 106.699 133.938ZM110.856 133.947C110.856 133.564 110.777 133.227 110.62 132.936C110.464 132.646 110.249 132.422 109.976 132.265C109.708 132.108 109.412 132.03 109.087 132.03C108.75 132.03 108.448 132.106 108.181 132.257C107.913 132.408 107.701 132.628 107.545 132.919C107.394 133.203 107.318 133.543 107.318 133.938C107.318 134.327 107.394 134.67 107.545 134.966C107.701 135.257 107.913 135.48 108.181 135.637C108.448 135.788 108.75 135.864 109.087 135.864C109.412 135.864 109.708 135.785 109.976 135.629C110.249 135.472 110.464 135.248 110.62 134.958C110.777 134.667 110.856 134.33 110.856 133.947ZM113.468 129.878V136.326H112.858V129.878H113.468ZM114.954 136.369C114.826 136.369 114.718 136.326 114.631 136.239C114.55 136.151 114.509 136.044 114.509 135.916C114.509 135.788 114.55 135.684 114.631 135.602C114.718 135.515 114.826 135.472 114.954 135.472C115.076 135.472 115.177 135.515 115.259 135.602C115.346 135.684 115.389 135.788 115.389 135.916C115.389 136.044 115.346 136.151 115.259 136.239C115.177 136.326 115.076 136.369 114.954 136.369ZM114.954 132.579C114.826 132.579 114.718 132.535 114.631 132.448C114.55 132.361 114.509 132.254 114.509 132.126C114.509 131.998 114.55 131.894 114.631 131.812C114.718 131.725 114.826 131.682 114.954 131.682C115.076 131.682 115.177 131.725 115.259 131.812C115.346 131.894 115.389 131.998 115.389 132.126C115.389 132.254 115.346 132.361 115.259 132.448C115.177 132.535 115.076 132.579 114.954 132.579ZM122.612 134.722C122.612 134.995 122.546 135.257 122.412 135.507C122.278 135.751 122.078 135.954 121.811 136.117C121.544 136.279 121.218 136.369 120.835 136.387V137.084H120.452V136.378C119.935 136.331 119.516 136.163 119.197 135.873C118.877 135.576 118.706 135.21 118.683 134.775H119.336C119.36 135.036 119.464 135.274 119.65 135.489C119.842 135.698 120.109 135.826 120.452 135.873V133.459C120.062 133.354 119.749 133.25 119.511 133.145C119.278 133.041 119.081 132.881 118.918 132.666C118.755 132.445 118.674 132.152 118.674 131.786C118.674 131.327 118.834 130.95 119.153 130.653C119.473 130.351 119.906 130.189 120.452 130.165V129.433H120.835V130.174C121.317 130.221 121.703 130.377 121.994 130.645C122.284 130.912 122.456 131.246 122.508 131.647H121.863C121.828 131.432 121.721 131.231 121.541 131.045C121.366 130.86 121.131 130.743 120.835 130.697V133.023C121.213 133.122 121.52 133.227 121.759 133.337C122.003 133.442 122.206 133.604 122.369 133.825C122.531 134.046 122.612 134.345 122.612 134.722ZM119.293 131.76C119.293 132.085 119.391 132.332 119.589 132.501C119.792 132.663 120.08 132.8 120.452 132.91V130.671C120.103 130.688 119.821 130.79 119.606 130.976C119.397 131.162 119.293 131.423 119.293 131.76ZM120.835 135.89C121.207 135.867 121.494 135.751 121.698 135.541C121.901 135.327 122.003 135.062 122.003 134.749C122.003 134.417 121.901 134.168 121.698 133.999C121.5 133.831 121.213 133.688 120.835 133.572V135.89ZM126.186 135.846C127.255 135.045 128.079 134.327 128.66 133.694C129.247 133.055 129.54 132.431 129.54 131.821C129.54 131.42 129.439 131.101 129.235 130.862C129.038 130.618 128.713 130.497 128.26 130.497C127.818 130.497 127.475 130.636 127.231 130.915C126.993 131.188 126.86 131.554 126.831 132.013H126.238C126.273 131.368 126.47 130.868 126.831 130.514C127.196 130.154 127.673 129.974 128.26 129.974C128.823 129.974 129.279 130.133 129.627 130.453C129.976 130.767 130.15 131.214 130.15 131.795C130.15 132.498 129.857 133.18 129.27 133.842C128.689 134.499 127.972 135.141 127.118 135.768H130.342V136.282H126.186V135.846ZM131.982 135.315L131.076 137.598H130.658L131.303 135.315H131.982ZM136.739 130.601H133.549V132.832C133.695 132.628 133.907 132.463 134.186 132.335C134.464 132.201 134.766 132.135 135.092 132.135C135.568 132.135 135.957 132.233 136.259 132.431C136.561 132.623 136.779 132.875 136.913 133.189C137.046 133.497 137.113 133.828 137.113 134.182C137.113 134.589 137.035 134.958 136.878 135.289C136.727 135.614 136.492 135.873 136.172 136.064C135.858 136.256 135.466 136.352 134.996 136.352C134.398 136.352 133.913 136.198 133.541 135.89C133.169 135.576 132.942 135.155 132.861 134.627H133.462C133.538 135.01 133.712 135.306 133.985 135.515C134.258 135.724 134.595 135.829 134.996 135.829C135.501 135.829 135.882 135.681 136.137 135.385C136.399 135.083 136.529 134.685 136.529 134.191C136.529 133.709 136.399 133.334 136.137 133.067C135.876 132.794 135.501 132.657 135.013 132.657C134.676 132.657 134.38 132.736 134.125 132.893C133.869 133.049 133.68 133.262 133.558 133.529H132.983V130.07H136.739V130.601ZM143.972 131.481C144.53 131.481 144.983 131.658 145.331 132.013C145.686 132.361 145.863 132.869 145.863 133.537V136.326H145.262V133.607C145.262 133.09 145.137 132.695 144.887 132.422C144.637 132.149 144.297 132.013 143.868 132.013C143.42 132.013 143.063 132.161 142.796 132.457C142.529 132.753 142.395 133.183 142.395 133.747V136.326H141.794V133.607C141.794 133.09 141.669 132.695 141.419 132.422C141.169 132.149 140.827 132.013 140.391 132.013C139.944 132.013 139.586 132.161 139.319 132.457C139.052 132.753 138.918 133.183 138.918 133.747V136.326H138.309V131.568H138.918V132.387C139.07 132.091 139.284 131.867 139.563 131.716C139.842 131.56 140.153 131.481 140.496 131.481C140.908 131.481 141.268 131.58 141.576 131.777C141.89 131.975 142.116 132.265 142.256 132.649C142.383 132.271 142.601 131.984 142.909 131.786C143.223 131.583 143.577 131.481 143.972 131.481Z" fill="#221F20"/>
<path d="M97.4692 110.647C96.1041 109.92 95.4216 108.78 95.4216 107.227C95.4216 106.442 95.6249 105.731 96.0315 105.092C96.4382 104.438 97.0553 103.923 97.8831 103.545C98.7109 103.153 99.7274 102.957 100.933 102.957C102.138 102.957 103.147 103.153 103.961 103.545C104.788 103.923 105.406 104.438 105.812 105.092C106.219 105.731 106.422 106.442 106.422 107.227C106.422 108.011 106.233 108.693 105.856 109.274C105.493 109.855 104.999 110.313 104.374 110.647C105.159 111.024 105.761 111.547 106.182 112.215C106.604 112.868 106.814 113.638 106.814 114.524C106.814 115.555 106.553 116.448 106.03 117.203C105.507 117.944 104.796 118.51 103.895 118.902C103.009 119.294 102.022 119.491 100.933 119.491C99.8436 119.491 98.8488 119.294 97.9484 118.902C97.0626 118.51 96.3583 117.944 95.8355 117.203C95.3127 116.448 95.0513 115.555 95.0513 114.524C95.0513 113.624 95.2619 112.847 95.683 112.193C96.1041 111.525 96.6995 111.01 97.4692 110.647ZM102.806 107.793C102.806 107.198 102.632 106.74 102.283 106.421C101.949 106.087 101.499 105.92 100.933 105.92C100.366 105.92 99.9089 106.087 99.5604 106.421C99.2264 106.755 99.0594 107.219 99.0594 107.815C99.0594 108.381 99.2337 108.831 99.5822 109.165C99.9307 109.485 100.381 109.645 100.933 109.645C101.485 109.645 101.935 109.478 102.283 109.144C102.632 108.81 102.806 108.359 102.806 107.793ZM100.933 112.259C100.25 112.259 99.6984 112.447 99.2772 112.825C98.8561 113.188 98.6455 113.696 98.6455 114.35C98.6455 114.96 98.8488 115.461 99.2554 115.853C99.6766 116.245 100.236 116.441 100.933 116.441C101.63 116.441 102.174 116.245 102.566 115.853C102.973 115.461 103.176 114.96 103.176 114.35C103.176 113.711 102.966 113.202 102.545 112.825C102.138 112.447 101.601 112.259 100.933 112.259ZM115.537 107.575C115.421 107.038 115.217 106.638 114.927 106.377C114.637 106.101 114.223 105.963 113.685 105.963C112.858 105.963 112.262 106.326 111.899 107.052C111.536 107.764 111.347 108.897 111.333 110.451C111.652 109.942 112.11 109.543 112.705 109.252C113.315 108.962 113.983 108.817 114.709 108.817C116.132 108.817 117.272 109.267 118.129 110.167C119.001 111.068 119.436 112.324 119.436 113.936C119.436 114.996 119.218 115.925 118.783 116.724C118.362 117.523 117.737 118.147 116.909 118.597C116.096 119.048 115.13 119.273 114.012 119.273C111.776 119.273 110.222 118.576 109.351 117.181C108.479 115.773 108.044 113.754 108.044 111.126C108.044 108.367 108.501 106.319 109.416 104.983C110.345 103.632 111.827 102.957 113.86 102.957C114.949 102.957 115.864 103.175 116.604 103.611C117.36 104.032 117.926 104.591 118.303 105.288C118.696 105.985 118.928 106.747 119.001 107.575H115.537ZM113.816 111.757C113.192 111.757 112.669 111.946 112.248 112.324C111.841 112.687 111.638 113.21 111.638 113.892C111.638 114.589 111.827 115.134 112.204 115.526C112.596 115.918 113.148 116.114 113.86 116.114C114.499 116.114 115 115.925 115.363 115.548C115.74 115.156 115.929 114.626 115.929 113.958C115.929 113.275 115.748 112.738 115.385 112.346C115.021 111.954 114.499 111.757 113.816 111.757ZM119.931 107.292C119.931 106.116 120.265 105.208 120.933 104.569C121.616 103.93 122.494 103.611 123.569 103.611C124.643 103.611 125.515 103.93 126.183 104.569C126.851 105.208 127.185 106.116 127.185 107.292C127.185 108.468 126.851 109.376 126.183 110.015C125.515 110.654 124.643 110.973 123.569 110.973C122.494 110.973 121.616 110.654 120.933 110.015C120.265 109.376 119.931 108.468 119.931 107.292ZM134.722 103.85L126.335 119.186H122.741L131.128 103.85H134.722ZM123.547 105.789C122.85 105.789 122.501 106.29 122.501 107.292C122.501 108.279 122.85 108.773 123.547 108.773C123.881 108.773 124.142 108.65 124.331 108.403C124.52 108.156 124.614 107.786 124.614 107.292C124.614 106.29 124.259 105.789 123.547 105.789ZM130.3 115.744C130.3 114.568 130.634 113.66 131.302 113.021C131.97 112.382 132.841 112.062 133.916 112.062C134.99 112.062 135.862 112.382 136.53 113.021C137.198 113.66 137.532 114.568 137.532 115.744C137.532 116.92 137.198 117.828 136.53 118.467C135.862 119.106 134.99 119.425 133.916 119.425C132.841 119.425 131.97 119.106 131.302 118.467C130.634 117.828 130.3 116.92 130.3 115.744ZM133.894 114.241C133.56 114.241 133.299 114.364 133.11 114.611C132.936 114.858 132.848 115.236 132.848 115.744C132.848 116.731 133.197 117.225 133.894 117.225C134.228 117.225 134.489 117.102 134.678 116.855C134.867 116.608 134.961 116.238 134.961 115.744C134.961 115.25 134.867 114.88 134.678 114.633C134.489 114.371 134.228 114.241 133.894 114.241Z" fill="#221F20"/>
<circle cx="188.803" cy="119.433" r="26.1514" transform="rotate(-20.9143 188.803 119.433)" fill="#F3F3F3"/>
<path d="M179.467 95.0055C185.119 92.8458 191.345 92.7124 197.084 94.6283C202.823 96.5441 207.72 100.391 210.941 105.512C214.161 110.634 215.507 116.714 214.747 122.716C213.988 128.719 211.171 134.272 206.776 138.43C202.381 142.589 196.68 145.094 190.645 145.52C184.61 145.947 178.613 144.267 173.678 140.768C168.742 137.268 165.172 132.166 163.577 126.33C161.982 120.494 162.459 114.285 164.928 108.761L188.803 119.434L179.467 95.0055Z" fill="#E3A8E7"/>
<circle cx="189.535" cy="120.159" r="4.7127" fill="white"/>
<defs>
<filter id="filter0_d_1_2466" x="-7.62939e-06" y="1.52588e-05" width="308.986" height="256.707" filterUnits="userSpaceOnUse" color-interpolation-filters="sRGB">
<feFlood flood-opacity="0" result="BackgroundImageFix"/>
<feColorMatrix in="SourceAlpha" type="matrix" values="0 0 0 0 0 0 0 0 0 0 0 0 0 0 0 0 0 0 127 0" result="hardAlpha"/>
<feOffset dy="18.7222"/>
<feGaussianBlur stdDeviation="40.7598"/>
<feComposite in2="hardAlpha" operator="out"/>
<feColorMatrix type="matrix" values="0 0 0 0 0.721154 0 0 0 0 0.800824 0 0 0 0 1 0 0 0 1 0"/>
<feBlend mode="normal" in2="BackgroundImageFix" result="effect1_dropShadow_1_2466"/>
<feBlend mode="normal" in="SourceGraphic" in2="effect1_dropShadow_1_2466" result="shape"/>
</filter>
</defs>
</svg>
