<svg width="20" height="20" viewBox="0 0 20 20" fill="none" xmlns="http://www.w3.org/2000/svg">
<path d="M9.54923 4.2439H8.48828V4.95119H9.54923C9.64302 4.95119 9.73297 4.91393 9.79929 4.84761C9.86562 4.78129 9.90288 4.69134 9.90288 4.59754C9.90288 4.50375 9.86562 4.4138 9.79929 4.34748C9.73297 4.28116 9.64302 4.2439 9.54923 4.2439Z" fill="black"/>
<path d="M0 14.1458C0 14.7086 0.223556 15.2483 0.621487 15.6462C1.01942 16.0442 1.55913 16.2677 2.12189 16.2677H17.6824C18.2452 16.2677 18.7849 16.0442 19.1828 15.6462C19.5808 15.2483 19.8043 14.7086 19.8043 14.1458V12.0239H0V14.1458Z" fill="black"/>
<path d="M17.6824 0H2.12189C1.55913 0 1.01942 0.223556 0.621487 0.621488C0.223556 1.01942 0 1.55913 0 2.12189V10.6095H19.8043V2.12189C19.8043 1.55913 19.5808 1.01942 19.1828 0.621488C18.7849 0.223556 18.2452 0 17.6824 0ZM5.65838 7.07297C5.84596 7.07297 6.02587 7.14749 6.15851 7.28013C6.29115 7.41278 6.36567 7.59268 6.36567 7.78027C6.36567 7.96785 6.29115 8.14776 6.15851 8.2804C6.02587 8.41305 5.84596 8.48756 5.65838 8.48756H4.24378C3.86861 8.48756 3.5088 8.33853 3.24351 8.07324C2.97822 7.80795 2.82919 7.44814 2.82919 7.07297V4.24378C2.82919 3.86861 2.97822 3.5088 3.24351 3.24351C3.5088 2.97823 3.86861 2.82919 4.24378 2.82919H5.65838C5.84596 2.82919 6.02587 2.90371 6.15851 3.03635C6.29115 3.16899 6.36567 3.3489 6.36567 3.53649C6.36567 3.72407 6.29115 3.90398 6.15851 4.03662C6.02587 4.16926 5.84596 4.24378 5.65838 4.24378H4.24378V7.07297H5.65838ZM11.1095 7.28021C11.1771 7.34545 11.231 7.4235 11.268 7.50979C11.3051 7.59609 11.3246 7.6889 11.3254 7.78281C11.3262 7.87673 11.3083 7.96986 11.2728 8.05679C11.2372 8.14371 11.1847 8.22268 11.1183 8.28909C11.0519 8.3555 10.9729 8.40802 10.886 8.44359C10.7991 8.47915 10.7059 8.49705 10.612 8.49623C10.5181 8.49541 10.4253 8.4759 10.339 8.43883C10.2527 8.40176 10.1746 8.34788 10.1094 8.28033L8.48756 6.65849V7.78027C8.48756 7.96785 8.41304 8.14776 8.2804 8.2804C8.14776 8.41305 7.96785 8.48756 7.78027 8.48756C7.59268 8.48756 7.41278 8.41305 7.28013 8.2804C7.14749 8.14776 7.07297 7.96785 7.07297 7.78027V3.53649C7.07297 3.3489 7.14749 3.16899 7.28013 3.03635C7.41278 2.90371 7.59268 2.82919 7.78027 2.82919H9.54851C9.96865 2.82913 10.3751 2.97868 10.695 3.25103C11.0149 3.52338 11.2274 3.90074 11.2944 4.31551C11.3613 4.73027 11.2785 5.15534 11.0605 5.51455C10.8426 5.87376 10.5039 6.14364 10.1052 6.27585L11.1095 7.28021ZM16.9751 7.78027C16.9751 7.96785 16.9006 8.14776 16.768 8.2804C16.6353 8.41305 16.4554 8.48756 16.2678 8.48756C16.0802 8.48756 15.9003 8.41305 15.7677 8.2804C15.6351 8.14776 15.5605 7.96785 15.5605 7.78027V5.49004L15.0435 6.11105C14.9748 6.18715 14.8909 6.24799 14.7972 6.28963C14.7035 6.33127 14.6021 6.35279 14.4996 6.35279C14.3971 6.35279 14.2957 6.33127 14.202 6.28963C14.1083 6.24799 14.0244 6.18715 13.9557 6.11105L13.4386 5.49004V7.78027C13.4386 7.96785 13.3641 8.14776 13.2315 8.2804C13.0988 8.41305 12.9189 8.48756 12.7313 8.48756C12.5438 8.48756 12.3639 8.41305 12.2312 8.2804C12.0986 8.14776 12.024 7.96785 12.024 7.78027V3.53649C12.0239 3.39101 12.0687 3.24904 12.1522 3.12992C12.2357 3.01081 12.3539 2.92034 12.4907 2.87085C12.6275 2.82135 12.7762 2.81525 12.9166 2.85336C13.057 2.89147 13.1823 2.97195 13.2753 3.08382L14.4996 4.55358L15.7239 3.08382C15.8169 2.97195 15.9421 2.89147 16.0825 2.85336C16.2229 2.81525 16.3717 2.82135 16.5085 2.87085C16.6453 2.92034 16.7635 3.01081 16.847 3.12992C16.9305 3.24904 16.9752 3.39101 16.9751 3.53649V7.78027Z" fill="black"/>
<path d="M13.9609 17.6824H5.84108C5.65888 18.0188 5.42766 18.3263 5.15501 18.5948C5.05686 18.6942 4.99038 18.8206 4.96394 18.9578C4.93751 19.095 4.95231 19.2369 5.00647 19.3657C5.0585 19.4956 5.14836 19.6069 5.26439 19.6851C5.38042 19.7633 5.51727 19.8048 5.65719 19.8043H14.1448C14.2847 19.8048 14.4215 19.7633 14.5375 19.6851C14.6536 19.6069 14.7434 19.4956 14.7955 19.3657C14.8496 19.2369 14.8644 19.095 14.838 18.9578C14.8116 18.8206 14.7451 18.6942 14.6469 18.5948C14.3743 18.3263 14.1431 18.0188 13.9609 17.6824Z" fill="black"/>
</svg>
