<svg width="25" height="25" viewBox="0 0 25 25" fill="none" xmlns="http://www.w3.org/2000/svg">
<path fill-rule="evenodd" clip-rule="evenodd" d="M23.2119 14.2465C23.7064 13.9708 24.0863 13.5279 24.2835 12.9973C24.5974 12.168 24.6332 11.2591 24.3856 10.4077C24.1688 9.54824 23.6784 8.78262 22.9884 8.22631C22.5494 7.8682 21.997 7.67834 21.4306 7.69081L23.2119 14.2465ZM22.563 14.8775L24.3509 21.4576C24.4344 21.7675 24.3918 22.0979 24.2324 22.3764C24.0731 22.655 23.8099 22.8592 23.5005 22.9444C23.1905 23.0276 22.8602 22.9849 22.5817 22.8255C22.3031 22.6662 22.099 22.403 22.0138 22.0936L16.4248 1.52971C16.3405 1.21956 16.3828 0.888624 16.5425 0.609705C16.7022 0.330786 16.9662 0.126732 17.2763 0.0424311C17.5865 -0.0418697 17.9174 0.000488651 18.1963 0.160188C18.4753 0.319887 18.6793 0.583845 18.7636 0.893995L22.563 14.8758V14.8775ZM7.00112 11.3182L8.92423 18.3939C13.1829 17.6577 17.3975 17.6579 20.7451 20.4384L16.0646 3.21384C14.726 7.51654 11.0946 9.74745 7.00112 11.3182ZM8.14177 18.5379C6.72883 18.8093 5.31671 19.1477 3.93516 19.4792L3.79585 19.5125C3.78566 19.5147 3.77547 19.5174 3.76529 19.5205C3.16917 19.7083 2.52542 19.6759 1.9512 19.4291C1.70048 19.3251 1.47505 19.1684 1.29022 18.9697C1.10538 18.7709 0.965452 18.5347 0.879935 18.2771L0.0707708 15.6654C-0.00221405 15.4076 -0.0189918 15.1371 0.0215713 14.8722C0.0621345 14.6073 0.159093 14.3542 0.305894 14.13C0.638456 13.6104 1.14649 13.2276 1.73756 13.051L1.75408 13.0461L1.89889 13.002C3.3424 12.5629 4.82004 12.1133 6.25528 11.5948L8.14177 18.5379ZM6.40285 19.7096C7.06114 19.5615 7.72246 19.4211 8.38295 19.2966L9.52305 22.84C9.60204 23.0406 9.62262 23.2594 9.58243 23.4712C9.54223 23.683 9.44289 23.8791 9.29591 24.0368C9.19983 24.1321 9.08365 24.2046 8.95589 24.2491C8.83344 24.2921 8.70237 24.3045 8.57402 24.2854C8.23097 24.2334 7.88022 23.9413 7.66134 23.3144L6.40285 19.7096Z" fill="white"/>
</svg>
