<svg width="80" height="81" viewBox="0 0 80 81" fill="none" xmlns="http://www.w3.org/2000/svg">
<rect width="80" height="80.0277" rx="20" fill="#051336"/>
<mask id="mask0_1_6484" style="mask-type:alpha" maskUnits="userSpaceOnUse" x="0" y="0" width="80" height="81">
<rect width="80" height="80.0277" rx="20" fill="#051336"/>
</mask>
<g mask="url(#mask0_1_6484)">
<path d="M59.9991 46.4733C59.4891 46.2733 58.9091 46.5333 58.7091 47.0433C56.3991 53.0333 51.3091 57.5433 45.0991 59.1133C43.7891 59.4533 42.4191 59.6433 41.0491 59.7033L42.4591 58.2933C42.8491 57.9033 42.8491 57.2733 42.4591 56.8833C42.0691 56.4933 41.4391 56.4933 41.0491 56.8833L37.9091 60.0233C37.8591 60.0733 37.8291 60.1433 37.7891 60.2033C37.7891 60.2033 37.7891 60.2033 37.7891 60.2133C37.6891 60.3733 37.6191 60.5433 37.6191 60.7333C37.6191 61.0033 37.7291 61.2533 37.9091 61.4433L41.0491 64.5833C41.2491 64.7833 41.4991 64.8733 41.7591 64.8733C42.0191 64.8733 42.2691 64.7733 42.4691 64.5833C42.8591 64.1933 42.8591 63.5633 42.4691 63.1733L41.0191 61.7233C42.5791 61.6633 44.1091 61.4533 45.5991 61.0633C52.4391 59.3333 58.0391 54.3633 60.5791 47.7733C60.7691 47.2533 60.5191 46.6733 59.9991 46.4733Z" fill="white"/>
<path d="M37.9097 22.8533C38.1097 23.0533 38.3597 23.1433 38.6197 23.1433C38.8797 23.1433 39.1297 23.0433 39.3297 22.8533L42.4697 19.7133C42.6597 19.5233 42.7597 19.2733 42.7597 19.0033C42.7597 18.7333 42.6497 18.4833 42.4697 18.2933L39.3297 15.1533C38.9397 14.7633 38.3097 14.7633 37.9197 15.1533C37.5297 15.5433 37.5297 16.1733 37.9197 16.5633L39.3797 18.0233C37.8397 18.0833 36.2997 18.2933 34.7897 18.6733C27.9597 20.4133 22.3497 25.3833 19.8097 31.9633C19.6097 32.4833 19.8697 33.0533 20.3797 33.2533C20.4997 33.3033 20.6197 33.3233 20.7397 33.3233C21.1397 33.3233 21.5197 33.0833 21.6697 32.6833C23.9797 26.7033 29.0697 22.1833 35.2797 20.6033C36.6097 20.2733 37.9697 20.0733 39.3297 20.0133L37.9197 21.4233C37.5197 21.8233 37.5197 22.4633 37.9097 22.8533Z" fill="white"/>
<path d="M33.01 58.3833C27.03 56.0833 22.51 50.9933 20.93 44.7733C20.59 43.4433 20.4 42.0833 20.34 40.7233L21.75 42.1333C21.95 42.3333 22.2 42.4233 22.46 42.4233C22.72 42.4233 22.97 42.3233 23.17 42.1333C23.56 41.7433 23.56 41.1133 23.17 40.7233L20.03 37.5833C19.65 37.2033 18.99 37.2033 18.62 37.5833L15.48 40.7233C15.09 41.1133 15.09 41.7433 15.48 42.1333C15.87 42.5233 16.5 42.5233 16.89 42.1333L18.34 40.6833C18.4 42.2233 18.61 43.7633 18.99 45.2633C20.73 52.1133 25.7 57.7133 32.28 60.2433C32.4 60.2833 32.52 60.3133 32.64 60.3133C33.04 60.3133 33.42 60.0733 33.57 59.6733C33.79 59.1633 33.53 58.5833 33.01 58.3833Z" fill="white"/>
<path d="M63.4802 37.5833L62.0302 39.0333C61.9702 37.4833 61.7602 35.9433 61.3702 34.4533C59.6402 27.6233 54.6702 22.0233 48.0802 19.4733C47.5702 19.2733 46.9902 19.5333 46.7902 20.0433C46.5902 20.5633 46.8502 21.1333 47.3602 21.3333C53.3502 23.6433 57.8602 28.7333 59.4302 34.9433C59.7702 36.2633 59.9602 37.6233 60.0202 38.9933L58.6102 37.5833C58.2202 37.1933 57.5902 37.1933 57.2002 37.5833C56.8102 37.9733 56.8102 38.6033 57.2002 38.9933L60.3402 42.1333C60.5402 42.3333 60.7902 42.4233 61.0502 42.4233C61.3102 42.4233 61.5602 42.3233 61.7602 42.1333L64.9002 38.9933C65.2902 38.6033 65.2902 37.9733 64.9002 37.5833C64.5102 37.1933 63.8702 37.1933 63.4802 37.5833Z" fill="white"/>
<path d="M38.3592 51.473C38.4692 51.043 39.1992 50.593 40.1892 50.593C41.1692 50.593 41.8992 51.043 42.0092 51.473C42.1492 52.003 42.6892 52.323 43.2192 52.193C44.4692 51.883 45.6592 51.393 46.7692 50.723C47.2292 50.433 47.3892 49.823 47.1092 49.353C46.8892 48.983 47.0792 48.143 47.7792 47.443C48.4692 46.753 49.3092 46.553 49.6892 46.783C50.1592 47.053 50.7592 46.903 51.0492 46.433C51.7192 45.333 52.2092 44.133 52.5192 42.883C52.6492 42.353 52.3292 41.813 51.7992 41.683C51.3692 41.573 50.9192 40.843 50.9192 39.863C50.9192 38.873 51.3692 38.143 51.7992 38.033C52.3292 37.903 52.6492 37.363 52.5192 36.833C52.2092 35.583 51.7192 34.383 51.0492 33.283C50.7692 32.813 50.1592 32.663 49.6892 32.943C49.3092 33.163 48.4692 32.973 47.7792 32.273C47.0792 31.573 46.8892 30.733 47.1092 30.363C47.3892 29.893 47.2292 29.283 46.7692 28.993C45.6592 28.323 44.4692 27.833 43.2192 27.523C42.6892 27.403 42.1492 27.723 42.0092 28.253C41.8992 28.673 41.1692 29.123 40.1892 29.123C39.1992 29.123 38.4692 28.673 38.3592 28.253C38.2292 27.713 37.6892 27.393 37.1592 27.523C35.8992 27.833 34.7092 28.333 33.6092 28.993C33.1392 29.283 32.9892 29.893 33.2692 30.363C33.4892 30.733 33.2992 31.573 32.5992 32.273C31.8992 32.963 31.0592 33.163 30.6892 32.943C30.2192 32.663 29.6092 32.813 29.3292 33.283C28.6592 34.383 28.1592 35.573 27.8492 36.833C27.7192 37.363 28.0392 37.903 28.5792 38.033C28.9992 38.143 29.4492 38.873 29.4492 39.863C29.4492 40.843 28.9992 41.573 28.5792 41.683C28.0492 41.813 27.7192 42.353 27.8492 42.893C28.1592 44.143 28.6592 45.333 29.3292 46.433C29.6092 46.903 30.2192 47.063 30.6892 46.783C31.0592 46.553 31.8992 46.753 32.5992 47.443C33.2992 48.143 33.4892 48.983 33.2692 49.353C32.9892 49.833 33.1392 50.433 33.6092 50.723C34.7092 51.393 35.8992 51.883 37.1592 52.193C37.2392 52.213 37.3192 52.223 37.3992 52.223C37.8392 52.223 38.2492 51.923 38.3592 51.473ZM33.9292 39.863C33.9292 36.413 36.7392 33.603 40.1892 33.603C43.6292 33.603 46.4392 36.413 46.4392 39.863C46.4392 43.303 43.6292 46.113 40.1892 46.113C36.7392 46.113 33.9292 43.303 33.9292 39.863Z" fill="white"/>
<g filter="url(#filter0_f_1_6484)">
<circle cx="69.3936" cy="68.6143" r="23.1865" fill="#7583F2"/>
</g>
</g>
<defs>
<filter id="filter0_f_1_6484" x="12.207" y="11.4277" width="114.373" height="114.373" filterUnits="userSpaceOnUse" color-interpolation-filters="sRGB">
<feFlood flood-opacity="0" result="BackgroundImageFix"/>
<feBlend mode="normal" in="SourceGraphic" in2="BackgroundImageFix" result="shape"/>
<feGaussianBlur stdDeviation="17" result="effect1_foregroundBlur_1_6484"/>
</filter>
</defs>
</svg>
