<svg width="23" height="22" viewBox="0 0 23 22" fill="none" xmlns="http://www.w3.org/2000/svg">
<path d="M19.5748 7.15634C20.9859 7.15634 22.1339 6.00517 22.1339 4.59061C21.9935 1.18676 17.1558 1.18773 17.0156 4.59061C17.0156 6.00517 18.1639 7.15634 19.5748 7.15634Z" fill="#464EB8"/>
<path d="M21.2644 7.84497H16.6965H16.6877C16.6865 7.84497 16.687 7.84497 16.6855 7.84497C16.4121 7.84497 12.8381 7.84497 11.686 7.84497V6.94916C11.8768 6.983 12.0767 7.00564 12.2865 7.0144C12.3092 7.01464 12.3318 7.01294 12.3544 7.0127C12.4416 7.01123 12.528 7.0071 12.6132 6.99979C12.6424 6.99712 12.6714 6.99468 12.7001 6.99127C12.7982 6.98032 12.8951 6.96596 12.9905 6.94721C12.9964 6.946 13.0027 6.94527 13.0085 6.94429C13.4608 6.85203 13.8873 6.67165 14.2663 6.41605C14.6169 6.17969 14.9204 5.87978 15.1653 5.53606C15.2286 5.45305 15.2863 5.36639 15.3401 5.27779C15.3452 5.26902 15.3508 5.26075 15.3559 5.25174C15.3973 5.18188 15.4338 5.10958 15.4693 5.03655C15.4849 5.0049 15.501 4.97326 15.5156 4.94113C15.5531 4.85714 15.5877 4.7717 15.6181 4.6848C15.6208 4.67749 15.6234 4.67043 15.6259 4.66337C15.9732 3.63903 15.8143 2.43455 15.2179 1.53387C15.0601 1.30286 14.873 1.09424 14.6658 0.907285C14.623 0.87004 14.5821 0.830849 14.537 0.796038C14.3632 0.652903 14.1755 0.526077 13.9762 0.418239C13.8764 0.364198 13.7739 0.314782 13.6687 0.270478C13.5631 0.22374 13.4528 0.185278 13.3408 0.150468C13.2766 0.13075 13.2099 0.116145 13.1441 0.100079C13.0859 0.0859597 13.0285 0.0706238 12.9696 0.0596696C12.9209 0.0504193 12.871 0.044577 12.8218 0.0372742C12.7361 0.0251028 12.6505 0.0139051 12.5638 0.00781939C12.5341 0.00562854 12.5042 0.00489834 12.4742 0.00343778C12.3861 -0.00094392 12.2977 -0.000700601 12.2094 0.00173368C11.703 0.0311884 11.2537 0.137566 10.86 0.303584C10.7797 0.339855 10.6984 0.375152 10.6227 0.417995C9.83351 0.847888 9.22981 1.57963 8.95109 2.43674C8.7578 3.07671 8.74125 3.7678 8.90556 4.41557C8.90727 4.42165 8.90873 4.42798 8.91043 4.43407C8.91822 4.46206 8.92626 4.49005 8.93405 4.51805C8.94354 4.5514 8.95474 4.5845 8.9652 4.61761C8.9747 4.64439 8.98468 4.67092 8.99466 4.6977H1.25853C0.565732 4.6977 0.00195312 5.26148 0.00195312 5.95427V15.1247C0.00195312 15.8177 0.565732 16.3813 1.25853 16.3813H6.15678C6.16311 16.41 6.17114 16.4377 6.17796 16.4662C6.85225 19.1193 9.2118 20.9957 12 21.0633C14.3133 21.0071 16.3004 19.6707 17.2953 17.7547C17.3101 17.76 17.3255 17.7639 17.3403 17.769C19.8189 18.7065 22.6354 16.7396 22.5852 14.0857V9.16241C22.5855 8.43602 21.9927 7.84497 21.2644 7.84497Z" fill="#464EB8"/>
<path d="M17.9774 9.18918C17.9942 8.46596 17.4207 7.86299 16.6991 7.84521C16.6962 7.84521 11.482 7.84521 11.482 7.84521C11.2899 7.84521 11.1341 8.00125 11.1341 8.19405V15.2766C11.1341 15.6033 10.869 15.8688 10.5431 15.8688H6.47664C6.37221 15.8688 6.27313 15.9161 6.20716 15.9971C6.14119 16.0784 6.1149 16.185 6.13608 16.2878C6.71228 19.102 9.11758 21.1166 12.0027 21.187C15.3756 21.1042 18.0558 18.2868 17.9774 14.9146V9.18918Z" fill="#7B83EB"/>
<path d="M12.2875 7.01445C12.3101 7.01469 12.3328 7.01298 12.3554 7.01274C12.4426 7.01152 12.529 7.00714 12.6144 6.99984C12.6436 6.99716 12.6726 6.99473 12.7013 6.99132C12.7992 6.98036 12.8963 6.966 12.9917 6.94726C12.9976 6.94604 13.0039 6.94531 13.0098 6.94409C13.462 6.85184 13.8885 6.67146 14.2675 6.41586C14.6183 6.17949 14.9216 5.87959 15.1668 5.53587C15.2301 5.45286 15.2878 5.3662 15.3416 5.27759C15.3467 5.26883 15.3523 5.26055 15.3574 5.25154C15.3988 5.18168 15.4353 5.10914 15.4708 5.03635C15.4864 5.00471 15.5025 4.9733 15.5171 4.94093C15.5546 4.85695 15.5894 4.7715 15.6195 4.6846C15.6222 4.6773 15.6249 4.67024 15.6273 4.66318C15.9747 3.63883 15.8157 2.43411 15.2194 1.53367C15.0616 1.30266 14.8744 1.09404 14.6673 0.907087C14.6244 0.869843 14.5835 0.830651 14.5385 0.795841C14.3647 0.652705 14.177 0.52588 13.9776 0.418041C13.8778 0.364 13.7753 0.314584 13.6702 0.27028C13.5645 0.223542 13.4543 0.185081 13.3423 0.150271C13.278 0.130553 13.2113 0.116191 13.1456 0.0998811C13.0874 0.0857623 13.03 0.0704264 12.9711 0.0594721C12.9224 0.0502219 12.8727 0.0443796 12.8233 0.0370768C12.7376 0.0249054 12.6519 0.0137077 12.5653 0.00762197C12.5356 0.00543112 12.5056 0.0047008 12.4759 0.00324024C12.3878 -0.000654606 12.2994 -0.00041109 12.2111 0.00202319C11.7047 0.0314779 11.2554 0.137612 10.8618 0.303874C10.7814 0.340144 10.7001 0.375441 10.6244 0.418285C9.83522 0.848421 9.23127 1.58017 8.95279 2.43727C8.75951 3.07725 8.74296 3.76834 8.90727 4.4161C8.90897 4.42218 8.91043 4.42851 8.91214 4.4346C8.91993 4.46259 8.92796 4.49059 8.93575 4.51858C8.94524 4.55193 8.95644 4.58504 8.96691 4.61814C8.98152 4.65977 8.99685 4.70091 9.01243 4.74229H9.00586C9.43794 5.95383 10.5317 6.9402 12.2875 7.01445Z" fill="#7B83EB"/>
<path d="M10.4275 4.69824H1.25657C0.563779 4.69824 0 5.26202 0 5.95482V15.1252C0 15.8183 0.563779 16.3818 1.25657 16.3818H10.4275C11.1203 16.3818 11.6838 15.818 11.6838 15.1252V5.95482C11.684 5.26202 11.1205 4.69824 10.4275 4.69824Z" fill="#464EB8"/>
<path d="M8.15396 7.25122H3.46068C3.27299 7.25122 3.12109 7.40336 3.12109 7.59105V8.44645C3.12109 8.63413 3.27299 8.78628 3.46068 8.78628H4.9748V13.5514C4.9748 13.7391 5.12669 13.8912 5.31438 13.8912H6.32071C6.50839 13.8912 6.66029 13.7391 6.66029 13.5514V8.78628H8.15396C8.34164 8.78628 8.49354 8.63413 8.49354 8.44645V7.59105C8.49354 7.40336 8.34164 7.25122 8.15396 7.25122Z" fill="white"/>
</svg>
