<svg width="309" height="113" viewBox="0 0 309 113" fill="none" xmlns="http://www.w3.org/2000/svg">
<g filter="url(#filter0_d_1_4406)">
<rect x="34.6191" y="19.8655" width="42.2594" height="41.194" rx="20.597" fill="white" shape-rendering="crispEdges"/>
<rect x="35.3701" y="20.6164" width="40.7575" height="39.6921" rx="19.846" stroke="white" stroke-opacity="0.5" stroke-width="1.50192" shape-rendering="crispEdges"/>
<path d="M65.1406 46.2996C64.7503 46.7682 64.172 47.0393 63.5621 47.0395H47.9418C47.3319 47.0393 46.7536 46.7682 46.3633 46.2996L53.9021 40.0186L54.6832 40.5529C55.3266 40.9969 56.1773 40.9969 56.8207 40.5529L57.6017 40.0186L65.1406 46.2996Z" fill="#1E88E5"/>
<path d="M65.2535 34.7817L57.5996 40.0186L56.8186 40.553C56.1752 40.9969 55.3244 40.9969 54.681 40.553L53.9 40.0186L46.2461 34.7734C46.6312 34.2181 47.2638 33.8864 47.9397 33.8855H63.56C64.2389 33.8819 64.8746 34.2183 65.2535 34.7817Z" fill="#64B5F6"/>
<path d="M53.8985 40.0185L46.3597 46.2996C46.0511 45.9308 45.8823 45.465 45.8828 44.9842V35.9408C45.8803 35.5238 46.0067 35.116 46.2446 34.7734L53.8985 40.0185Z" fill="#2196F3"/>
<path d="M65.6133 35.9409V44.9843C65.6139 45.4651 65.4451 45.9309 65.1365 46.2997L57.5977 40.0186L65.2516 34.7817C65.4883 35.1219 65.6146 35.5265 65.6133 35.9409Z" fill="#2196F3"/>
</g>
<g filter="url(#filter1_d_1_4406)">
<rect x="83.1074" y="19.9424" width="41.5289" height="41.04" rx="20.52" fill="white" shape-rendering="crispEdges"/>
<rect x="83.8584" y="20.6933" width="40.0269" height="39.5381" rx="19.769" stroke="white" stroke-opacity="0.5" stroke-width="1.50192" shape-rendering="crispEdges"/>
<path d="M103.873 30.9624H103.869C98.6307 30.9624 94.3711 35.2232 94.3711 40.4624C94.3711 42.5405 95.0408 44.4667 96.1797 46.0306L94.9957 49.5598L98.6473 48.3925C100.149 49.3877 101.941 49.9624 103.873 49.9624C109.112 49.9624 113.371 45.7005 113.371 40.4624C113.371 35.2243 109.112 30.9624 103.873 30.9624Z" fill="#4CAF50"/>
<path d="M109.401 44.3775C109.172 45.0247 108.262 45.5614 107.537 45.7182C107.04 45.8239 106.392 45.9082 104.209 45.0033C101.418 43.8467 99.6198 41.0097 99.4797 40.8257C99.3455 40.6416 98.3516 39.3235 98.3516 37.9602C98.3516 36.597 99.0439 35.9332 99.3229 35.6482C99.5521 35.4142 99.9309 35.3074 100.294 35.3074C100.412 35.3074 100.518 35.3133 100.613 35.3181C100.892 35.3299 101.032 35.3466 101.216 35.7871C101.445 36.3393 102.003 37.7026 102.07 37.8427C102.137 37.9828 102.205 38.1728 102.11 38.3569C102.021 38.5469 101.943 38.6312 101.802 38.7927C101.662 38.9542 101.529 39.0777 101.389 39.2511C101.261 39.4019 101.116 39.5634 101.278 39.8424C101.439 40.1156 101.997 41.0264 102.819 41.7579C103.879 42.7019 104.739 43.0036 105.047 43.1318C105.276 43.2268 105.549 43.2042 105.716 43.0261C105.929 42.7969 106.191 42.4169 106.459 42.0429C106.649 41.7745 106.889 41.7412 107.14 41.8362C107.397 41.9253 108.754 42.5962 109.033 42.7352C109.312 42.8753 109.496 42.9418 109.564 43.0594C109.63 43.1769 109.63 43.7291 109.401 44.3775Z" fill="#FAFAFA"/>
</g>
<g filter="url(#filter2_d_1_4406)">
<rect x="130.869" y="19.5403" width="42.3332" height="41.8443" rx="20.9222" fill="white" shape-rendering="crispEdges"/>
<rect x="131.62" y="20.2912" width="40.8313" height="40.3424" rx="20.1712" stroke="white" stroke-opacity="0.5" stroke-width="1.50192" shape-rendering="crispEdges"/>
<path d="M151.682 34.8042H150.621V35.5115H151.682C151.776 35.5115 151.866 35.4742 151.932 35.4079C151.998 35.3416 152.036 35.2516 152.036 35.1578C152.036 35.0641 151.998 34.9741 151.932 34.9078C151.866 34.8415 151.776 34.8042 151.682 34.8042Z" fill="black"/>
<path d="M142.133 44.7061C142.133 45.2689 142.356 45.8086 142.754 46.2065C143.152 46.6045 143.692 46.828 144.255 46.828H159.815C160.378 46.828 160.918 46.6045 161.316 46.2065C161.714 45.8086 161.937 45.2689 161.937 44.7061V42.5842H142.133V44.7061Z" fill="black"/>
<path d="M159.815 30.5603H144.255C143.692 30.5603 143.152 30.7839 142.754 31.1818C142.356 31.5797 142.133 32.1194 142.133 32.6822V41.1698H161.937V32.6822C161.937 32.1194 161.714 31.5797 161.316 31.1818C160.918 30.7839 160.378 30.5603 159.815 30.5603ZM147.791 37.6333C147.979 37.6333 148.159 37.7078 148.291 37.8404C148.424 37.9731 148.498 38.153 148.498 38.3406C148.498 38.5282 148.424 38.7081 148.291 38.8407C148.159 38.9733 147.979 39.0479 147.791 39.0479H146.377C146.001 39.0479 145.642 38.8988 145.376 38.6335C145.111 38.3683 144.962 38.0084 144.962 37.6333V34.8041C144.962 34.4289 145.111 34.0691 145.376 33.8038C145.642 33.5385 146.001 33.3895 146.377 33.3895H147.791C147.979 33.3895 148.159 33.464 148.291 33.5967C148.424 33.7293 148.498 33.9092 148.498 34.0968C148.498 34.2844 148.424 34.4643 148.291 34.5969C148.159 34.7296 147.979 34.8041 147.791 34.8041H146.377V37.6333H147.791ZM153.242 37.8405C153.31 37.9058 153.364 37.9838 153.401 38.0701C153.438 38.1564 153.457 38.2492 153.458 38.3431C153.459 38.437 153.441 38.5302 153.406 38.6171C153.37 38.704 153.318 38.783 153.251 38.8494C153.185 38.9158 153.106 38.9683 153.019 39.0039C152.932 39.0395 152.839 39.0573 152.745 39.0565C152.651 39.0557 152.558 39.0362 152.472 38.9991C152.386 38.9621 152.307 38.9082 152.242 38.8406L150.62 37.2188V38.3406C150.62 38.5282 150.546 38.7081 150.413 38.8407C150.281 38.9733 150.101 39.0479 149.913 39.0479C149.725 39.0479 149.546 38.9733 149.413 38.8407C149.28 38.7081 149.206 38.5282 149.206 38.3406V34.0968C149.206 33.9092 149.28 33.7293 149.413 33.5967C149.546 33.464 149.725 33.3895 149.913 33.3895H151.681C152.101 33.3894 152.508 33.539 152.828 33.8113C153.148 34.0837 153.36 34.461 153.427 34.8758C153.494 35.2906 153.411 35.7156 153.193 36.0748C152.975 36.4341 152.637 36.7039 152.238 36.8361L153.242 37.8405ZM159.108 38.3406C159.108 38.5282 159.033 38.7081 158.901 38.8407C158.768 38.9733 158.588 39.0479 158.401 39.0479C158.213 39.0479 158.033 38.9733 157.901 38.8407C157.768 38.7081 157.693 38.5282 157.693 38.3406V36.0503L157.176 36.6713C157.108 36.7475 157.024 36.8083 156.93 36.8499C156.836 36.8916 156.735 36.9131 156.632 36.9131C156.53 36.9131 156.428 36.8916 156.335 36.8499C156.241 36.8083 156.157 36.7475 156.088 36.6713L155.571 36.0503V38.3406C155.571 38.5282 155.497 38.7081 155.364 38.8407C155.232 38.9733 155.052 39.0479 154.864 39.0479C154.677 39.0479 154.497 38.9733 154.364 38.8407C154.231 38.7081 154.157 38.5282 154.157 38.3406V34.0968C154.157 33.9513 154.202 33.8093 154.285 33.6902C154.369 33.5711 154.487 33.4806 154.624 33.4311C154.76 33.3817 154.909 33.3756 155.049 33.4137C155.19 33.4518 155.315 33.5322 155.408 33.6441L156.632 35.1139L157.857 33.6441C157.95 33.5322 158.075 33.4518 158.215 33.4137C158.356 33.3756 158.504 33.3817 158.641 33.4311C158.778 33.4806 158.896 33.5711 158.98 33.6902C159.063 33.8093 159.108 33.9513 159.108 34.0968V38.3406Z" fill="black"/>
<path d="M156.094 48.2427H147.974C147.792 48.5791 147.56 48.8866 147.288 49.1551C147.19 49.2546 147.123 49.3809 147.097 49.5181C147.07 49.6553 147.085 49.7972 147.139 49.926C147.191 50.0559 147.281 50.1672 147.397 50.2454C147.513 50.3236 147.65 50.3651 147.79 50.3646H156.278C156.417 50.3651 156.554 50.3236 156.67 50.2454C156.786 50.1672 156.876 50.0559 156.928 49.926C156.982 49.7972 156.997 49.6553 156.971 49.5181C156.944 49.3809 156.878 49.2546 156.78 49.1551C156.507 48.8866 156.276 48.5791 156.094 48.2427Z" fill="black"/>
</g>
<g filter="url(#filter3_d_1_4406)">
<rect x="179.436" y="18.8491" width="43.1059" height="43.2271" rx="21.5529" fill="white" shape-rendering="crispEdges"/>
<rect x="180.187" y="19.6001" width="41.604" height="41.7251" rx="20.802" stroke="white" stroke-opacity="0.5" stroke-width="1.50192" shape-rendering="crispEdges"/>
<path d="M209.27 37.0255C210.681 37.0255 211.829 35.8743 211.829 34.4597C211.689 31.0559 206.851 31.0569 206.711 34.4597C206.711 35.8743 207.859 37.0255 209.27 37.0255Z" fill="#464EB8"/>
<path d="M210.96 37.7141H206.392H206.383C206.382 37.7141 206.382 37.7141 206.381 37.7141C206.107 37.7141 202.533 37.7141 201.381 37.7141V36.8183C201.572 36.8521 201.772 36.8748 201.982 36.8835C202.004 36.8838 202.027 36.8821 202.05 36.8818C202.137 36.8804 202.223 36.8762 202.309 36.8689C202.338 36.8663 202.367 36.8638 202.395 36.8604C202.494 36.8495 202.59 36.8351 202.686 36.8164C202.692 36.8151 202.698 36.8144 202.704 36.8134C203.156 36.7212 203.583 36.5408 203.962 36.2852C204.312 36.0488 204.616 35.7489 204.861 35.4052C204.924 35.3222 204.982 35.2355 205.035 35.1469C205.041 35.1382 205.046 35.1299 205.051 35.1209C205.093 35.051 205.129 34.9787 205.165 34.9057C205.18 34.874 205.196 34.8424 205.211 34.8103C205.248 34.7263 205.283 34.6408 205.313 34.5539C205.316 34.5466 205.319 34.5396 205.321 34.5325C205.669 33.5082 205.51 32.3037 204.913 31.403C204.755 31.172 204.568 30.9634 204.361 30.7764C204.318 30.7392 204.277 30.7 204.232 30.6652C204.059 30.522 203.871 30.3952 203.671 30.2874C203.572 30.2333 203.469 30.1839 203.364 30.1396C203.258 30.0929 203.148 30.0544 203.036 30.0196C202.972 29.9999 202.905 29.9853 202.839 29.9692C202.781 29.9551 202.724 29.9398 202.665 29.9288C202.616 29.9196 202.566 29.9137 202.517 29.9064C202.431 29.8942 202.346 29.883 202.259 29.877C202.229 29.8748 202.199 29.874 202.17 29.8726C202.081 29.8682 201.993 29.8684 201.905 29.8709C201.398 29.9003 200.949 30.0067 200.555 30.1727C200.475 30.209 200.394 30.2443 200.318 30.2871C199.529 30.717 198.925 31.4488 198.646 32.3059C198.453 32.9459 198.437 33.6369 198.601 34.2847C198.603 34.2908 198.604 34.2971 198.606 34.3032C198.614 34.3312 198.622 34.3592 198.629 34.3872C198.639 34.4205 198.65 34.4536 198.661 34.4868C198.67 34.5135 198.68 34.5401 198.69 34.5668H190.954C190.261 34.5668 189.697 35.1306 189.697 35.8234V44.9938C189.697 45.6869 190.261 46.2504 190.954 46.2504H195.852C195.858 46.2791 195.866 46.3069 195.873 46.3354C196.548 48.9885 198.907 50.8648 201.695 50.9325C204.009 50.8763 205.996 49.5398 206.991 47.6238C207.005 47.6292 207.021 47.6331 207.036 47.6382C209.514 48.5756 212.331 46.6087 212.281 43.9549V39.0315C212.281 38.3052 211.688 37.7141 210.96 37.7141Z" fill="#464EB8"/>
<path d="M207.673 39.0583C207.689 38.3351 207.116 37.7321 206.394 37.7144C206.392 37.7144 201.177 37.7144 201.177 37.7144C200.985 37.7144 200.829 37.8704 200.829 38.0632V45.1457C200.829 45.4724 200.564 45.738 200.238 45.738H196.172C196.068 45.738 195.968 45.7852 195.902 45.8663C195.837 45.9476 195.81 46.0542 195.831 46.1569C196.408 48.9712 198.813 50.9858 201.698 51.0561C205.071 50.9734 207.751 48.1559 207.673 44.7837V39.0583Z" fill="#7B83EB"/>
<path d="M201.983 36.8836C202.005 36.8838 202.028 36.8821 202.051 36.8819C202.138 36.8807 202.224 36.8763 202.31 36.869C202.339 36.8663 202.368 36.8639 202.397 36.8605C202.495 36.8495 202.592 36.8351 202.687 36.8164C202.693 36.8152 202.699 36.8145 202.705 36.8132C203.157 36.721 203.584 36.5406 203.963 36.285C204.314 36.0486 204.617 35.7487 204.862 35.405C204.925 35.322 204.983 35.2353 205.037 35.1467C205.042 35.138 205.048 35.1297 205.053 35.1207C205.094 35.0508 205.131 34.9783 205.166 34.9055C205.182 34.8738 205.198 34.8424 205.212 34.8101C205.25 34.7261 205.285 34.6406 205.315 34.5537C205.318 34.5464 205.32 34.5394 205.323 34.5323C205.67 33.508 205.511 32.3033 204.915 31.4028C204.757 31.1718 204.57 30.9632 204.363 30.7762C204.32 30.739 204.279 30.6998 204.234 30.665C204.06 30.5218 203.872 30.395 203.673 30.2872C203.573 30.2331 203.471 30.1837 203.365 30.1394C203.26 30.0927 203.15 30.0542 203.038 30.0194C202.973 29.9997 202.907 29.9853 202.841 29.969C202.783 29.9549 202.725 29.9396 202.666 29.9286C202.618 29.9194 202.568 29.9135 202.519 29.9062C202.433 29.894 202.347 29.8828 202.261 29.8768C202.231 29.8746 202.201 29.8738 202.171 29.8724C202.083 29.8685 201.995 29.8687 201.906 29.8712C201.4 29.9006 200.951 30.0068 200.557 30.173C200.477 30.2093 200.395 30.2446 200.32 30.2874C199.531 30.7176 198.927 31.4493 198.648 32.3064C198.455 32.9464 198.438 33.6375 198.603 34.2852C198.604 34.2913 198.606 34.2977 198.607 34.3037C198.615 34.3317 198.623 34.3597 198.631 34.3877C198.641 34.4211 198.652 34.4542 198.662 34.4873C198.677 34.5289 198.692 34.57 198.708 34.6114H198.701C199.133 35.823 200.227 36.8093 201.983 36.8836Z" fill="#7B83EB"/>
<path d="M200.123 34.5674H190.952C190.259 34.5674 189.695 35.1312 189.695 35.824V44.9944C189.695 45.6874 190.259 46.2509 190.952 46.2509H200.123C200.816 46.2509 201.379 45.6872 201.379 44.9944V35.824C201.379 35.1312 200.816 34.5674 200.123 34.5674Z" fill="#464EB8"/>
<path d="M197.849 37.1204H193.156C192.968 37.1204 192.816 37.2725 192.816 37.4602V38.3156C192.816 38.5033 192.968 38.6554 193.156 38.6554H194.67V43.4205C194.67 43.6082 194.822 43.7603 195.01 43.7603H196.016C196.204 43.7603 196.356 43.6082 196.356 43.4205V38.6554H197.849C198.037 38.6554 198.189 38.5033 198.189 38.3156V37.4602C198.189 37.2725 198.037 37.1204 197.849 37.1204Z" fill="white"/>
</g>
<g filter="url(#filter4_d_1_4406)">
<rect x="229.619" y="18.9624" width="44" height="43" rx="21.5" fill="white" shape-rendering="crispEdges"/>
<rect x="230.37" y="19.7134" width="42.4981" height="41.4981" rx="20.749" stroke="white" stroke-opacity="0.5" stroke-width="1.50192" shape-rendering="crispEdges"/>
<path d="M248.552 41.1333C247.231 41.1333 246.156 42.2081 246.156 43.5293V49.5169C246.156 50.838 247.231 51.9129 248.552 51.9129C249.873 51.9129 250.948 50.8381 250.948 49.5169V43.5293C250.948 42.2081 249.873 41.1333 248.552 41.1333Z" fill="#FF4340"/>
<path d="M244.813 41.1333H242.493C241.214 41.1333 240.174 42.1739 240.174 43.4529C240.174 44.732 241.214 45.7726 242.493 45.7726C243.772 45.7726 244.813 44.732 244.813 43.4529V41.1333Z" fill="#FF4340"/>
<path d="M240.168 37.3953C240.168 38.7165 241.243 39.7913 242.564 39.7913H248.552C249.873 39.7913 250.948 38.7165 250.948 37.3953C250.948 36.0741 249.873 34.9993 248.552 34.9993H242.564C241.243 34.9992 240.168 36.0741 240.168 37.3953Z" fill="#36C6FF"/>
<path d="M248.63 33.6573H250.95V31.3377C250.95 30.0586 249.909 29.0181 248.63 29.0181C247.351 29.0181 246.311 30.0587 246.311 31.3377C246.311 32.6167 247.351 33.6573 248.63 33.6573Z" fill="#36C6FF"/>
<path d="M254.685 39.7913C256.006 39.7913 257.081 38.7165 257.081 37.3953V31.4077C257.081 30.0866 256.006 29.0117 254.685 29.0117C253.364 29.0117 252.289 30.0866 252.289 31.4077V37.3953C252.289 38.7165 253.364 39.7913 254.685 39.7913Z" fill="#0DC46E"/>
<path d="M258.424 39.7914H260.743C262.023 39.7914 263.063 38.7508 263.063 37.4717C263.063 36.1927 262.022 35.1521 260.743 35.1521C259.464 35.1521 258.424 36.1927 258.424 37.4717V39.7914Z" fill="#0DC46E"/>
<path d="M263.071 43.5293C263.071 42.2081 261.996 41.1333 260.675 41.1333H254.687C253.366 41.1333 252.291 42.2081 252.291 43.5293C252.291 44.8505 253.366 45.9254 254.687 45.9254H260.675C261.996 45.9254 263.071 44.8505 263.071 43.5293Z" fill="#FDCB02"/>
<path d="M254.611 47.2671H252.291V49.5867C252.291 50.8658 253.332 51.9064 254.611 51.9064C255.89 51.9064 256.93 50.8657 256.93 49.5867C256.93 48.3077 255.89 47.2671 254.611 47.2671Z" fill="#FDCB02"/>
</g>
<defs>
<filter id="filter0_d_1_4406" x="-0.000217438" y="1.01633" width="111.498" height="110.433" filterUnits="userSpaceOnUse" color-interpolation-filters="sRGB">
<feFlood flood-opacity="0" result="BackgroundImageFix"/>
<feColorMatrix in="SourceAlpha" type="matrix" values="0 0 0 0 0 0 0 0 0 0 0 0 0 0 0 0 0 0 127 0" result="hardAlpha"/>
<feOffset dy="15.7702"/>
<feGaussianBlur stdDeviation="17.3097"/>
<feComposite in2="hardAlpha" operator="out"/>
<feColorMatrix type="matrix" values="0 0 0 0 0.439291 0 0 0 0 0.251479 0 0 0 0 0.769231 0 0 0 0.5 0"/>
<feBlend mode="normal" in2="BackgroundImageFix" result="effect1_dropShadow_1_4406"/>
<feBlend mode="normal" in="SourceGraphic" in2="effect1_dropShadow_1_4406" result="shape"/>
</filter>
<filter id="filter1_d_1_4406" x="48.4881" y="1.09323" width="110.768" height="110.279" filterUnits="userSpaceOnUse" color-interpolation-filters="sRGB">
<feFlood flood-opacity="0" result="BackgroundImageFix"/>
<feColorMatrix in="SourceAlpha" type="matrix" values="0 0 0 0 0 0 0 0 0 0 0 0 0 0 0 0 0 0 127 0" result="hardAlpha"/>
<feOffset dy="15.7702"/>
<feGaussianBlur stdDeviation="17.3097"/>
<feComposite in2="hardAlpha" operator="out"/>
<feColorMatrix type="matrix" values="0 0 0 0 0.439291 0 0 0 0 0.251479 0 0 0 0 0.769231 0 0 0 0.5 0"/>
<feBlend mode="normal" in2="BackgroundImageFix" result="effect1_dropShadow_1_4406"/>
<feBlend mode="normal" in="SourceGraphic" in2="effect1_dropShadow_1_4406" result="shape"/>
</filter>
<filter id="filter2_d_1_4406" x="96.2498" y="0.691133" width="111.573" height="111.083" filterUnits="userSpaceOnUse" color-interpolation-filters="sRGB">
<feFlood flood-opacity="0" result="BackgroundImageFix"/>
<feColorMatrix in="SourceAlpha" type="matrix" values="0 0 0 0 0 0 0 0 0 0 0 0 0 0 0 0 0 0 127 0" result="hardAlpha"/>
<feOffset dy="15.7702"/>
<feGaussianBlur stdDeviation="17.3097"/>
<feComposite in2="hardAlpha" operator="out"/>
<feColorMatrix type="matrix" values="0 0 0 0 0.439291 0 0 0 0 0.251479 0 0 0 0 0.769231 0 0 0 0.5 0"/>
<feBlend mode="normal" in2="BackgroundImageFix" result="effect1_dropShadow_1_4406"/>
<feBlend mode="normal" in="SourceGraphic" in2="effect1_dropShadow_1_4406" result="shape"/>
</filter>
<filter id="filter3_d_1_4406" x="144.816" y="-2.95639e-05" width="112.344" height="112.466" filterUnits="userSpaceOnUse" color-interpolation-filters="sRGB">
<feFlood flood-opacity="0" result="BackgroundImageFix"/>
<feColorMatrix in="SourceAlpha" type="matrix" values="0 0 0 0 0 0 0 0 0 0 0 0 0 0 0 0 0 0 127 0" result="hardAlpha"/>
<feOffset dy="15.7702"/>
<feGaussianBlur stdDeviation="17.3097"/>
<feComposite in2="hardAlpha" operator="out"/>
<feColorMatrix type="matrix" values="0 0 0 0 0.439291 0 0 0 0 0.251479 0 0 0 0 0.769231 0 0 0 0.5 0"/>
<feBlend mode="normal" in2="BackgroundImageFix" result="effect1_dropShadow_1_4406"/>
<feBlend mode="normal" in="SourceGraphic" in2="effect1_dropShadow_1_4406" result="shape"/>
</filter>
<filter id="filter4_d_1_4406" x="195" y="0.113252" width="113.239" height="112.239" filterUnits="userSpaceOnUse" color-interpolation-filters="sRGB">
<feFlood flood-opacity="0" result="BackgroundImageFix"/>
<feColorMatrix in="SourceAlpha" type="matrix" values="0 0 0 0 0 0 0 0 0 0 0 0 0 0 0 0 0 0 127 0" result="hardAlpha"/>
<feOffset dy="15.7702"/>
<feGaussianBlur stdDeviation="17.3097"/>
<feComposite in2="hardAlpha" operator="out"/>
<feColorMatrix type="matrix" values="0 0 0 0 0.439291 0 0 0 0 0.251479 0 0 0 0 0.769231 0 0 0 0.5 0"/>
<feBlend mode="normal" in2="BackgroundImageFix" result="effect1_dropShadow_1_4406"/>
<feBlend mode="normal" in="SourceGraphic" in2="effect1_dropShadow_1_4406" result="shape"/>
</filter>
</defs>
</svg>
