<svg width="16" height="16" viewBox="0 0 16 16" fill="none" xmlns="http://www.w3.org/2000/svg">
<path d="M7.72238 5.80723C7.3436 5.80723 6.97333 5.91955 6.65838 6.12999C6.34344 6.34043 6.09797 6.63954 5.95301 6.98949C5.80806 7.33943 5.77013 7.72451 5.84403 8.09601C5.91793 8.46751 6.10033 8.80876 6.36817 9.0766C6.636 9.34444 6.97725 9.52684 7.34875 9.60073C7.72026 9.67463 8.10533 9.6367 8.45528 9.49175C8.80523 9.3468 9.10433 9.10133 9.31477 8.78638C9.52521 8.47144 9.63753 8.10116 9.63753 7.72238C9.63753 7.47088 9.588 7.22184 9.49175 6.98949C9.39551 6.75713 9.25444 6.546 9.0766 6.36817C8.89876 6.19033 8.68764 6.04926 8.45528 5.95301C8.22292 5.85677 7.97388 5.80723 7.72238 5.80723ZM15.3907 3.91525C15.3866 3.31889 15.2768 2.72799 15.0664 2.16999C14.9114 1.76168 14.6715 1.39087 14.3627 1.08205C14.0539 0.773224 13.6831 0.533399 13.2748 0.378397C12.7168 0.167934 12.1259 0.0581193 11.5295 0.0540566C10.5333 -5.17826e-08 10.2399 0 7.72238 0C5.20489 0 4.91144 -5.17826e-08 3.91525 0.0540566C3.31889 0.0581193 2.72799 0.167934 2.16999 0.378397C1.76168 0.533399 1.39087 0.773224 1.08205 1.08205C0.773224 1.39087 0.533399 1.76168 0.378397 2.16999C0.167934 2.72799 0.0581193 3.31889 0.0540566 3.91525C-5.17826e-08 4.91144 0 5.20489 0 7.72238C0 10.2399 -5.17826e-08 10.5333 0.0540566 11.5295C0.062369 12.128 0.172035 12.7207 0.378397 13.2825C0.532712 13.6889 0.772338 14.0576 1.08113 14.3636C1.38863 14.6743 1.76023 14.9141 2.16999 15.0664C2.72799 15.2768 3.31889 15.3866 3.91525 15.3907C4.91144 15.4448 5.20489 15.4448 7.72238 15.4448C10.2399 15.4448 10.5333 15.4448 11.5295 15.3907C12.1259 15.3866 12.7168 15.2768 13.2748 15.0664C13.6845 14.9141 14.0561 14.6743 14.3636 14.3636C14.6724 14.0576 14.9121 13.6889 15.0664 13.2825C15.2766 12.7218 15.3864 12.1284 15.3907 11.5295C15.4448 10.5333 15.4448 10.2399 15.4448 7.72238C15.4448 5.20489 15.4448 4.91144 15.3907 3.91525ZM13.4292 10.0932C13.4044 10.5697 13.3027 11.0391 13.128 11.4832C12.9781 11.8536 12.7553 12.1901 12.4727 12.4727C12.1901 12.7553 11.8536 12.9781 11.4832 13.128C11.0349 13.293 10.5629 13.3843 10.0854 13.3983C9.47536 13.3983 9.31319 13.3983 7.72238 13.3983C6.13157 13.3983 5.9694 13.3983 5.35933 13.3983C4.88188 13.3843 4.40986 13.293 3.96158 13.128C3.57863 12.9857 3.2328 12.7587 2.94995 12.4639C2.67014 12.1869 2.45405 11.8522 2.31671 11.4832C2.15111 11.0354 2.06234 10.5628 2.05415 10.0854C2.05415 9.47536 2.05415 9.31319 2.05415 7.72238C2.05415 6.13157 2.05415 5.9694 2.05415 5.35933C2.06234 4.88196 2.15111 4.40939 2.31671 3.96158C2.45902 3.57863 2.68606 3.2328 2.98084 2.94995C3.2591 2.67165 3.59343 2.45579 3.96158 2.31671C4.40986 2.15177 4.88188 2.06049 5.35933 2.04643C5.9694 2.04643 6.13157 2.04643 7.72238 2.04643C9.31319 2.04643 9.47536 2.04643 10.0854 2.04643C10.5629 2.06049 11.0349 2.15177 11.4832 2.31671C11.8661 2.45902 12.212 2.68606 12.4948 2.98084C12.7746 3.25788 12.9907 3.59255 13.128 3.96158C13.293 4.40986 13.3843 4.88188 13.3983 5.35933C13.3983 5.9694 13.3983 6.13157 13.3983 7.72238C13.3983 9.31319 13.4524 9.47536 13.4292 10.0854V10.0932ZM12.1936 4.3477C12.1017 4.09826 11.9567 3.87173 11.7687 3.68374C11.5808 3.49576 11.3542 3.35079 11.1048 3.25885C10.7623 3.14012 10.4015 3.08261 10.0391 3.08895C9.43675 3.08895 9.26686 3.08895 7.72238 3.08895C6.17791 3.08895 6.00801 3.08895 5.40567 3.08895C5.04138 3.09251 4.68059 3.16049 4.33998 3.28973C4.09435 3.3775 3.87022 3.51655 3.68248 3.69763C3.49474 3.87871 3.3477 4.09768 3.25112 4.33998C3.13898 4.68391 3.08419 5.04395 3.08895 5.40567C3.08895 6.00801 3.08895 6.17791 3.08895 7.72238C3.08895 9.26686 3.08895 9.43675 3.08895 10.0391C3.09661 10.403 3.16445 10.7631 3.28973 11.1048C3.38168 11.3542 3.52665 11.5808 3.71463 11.7687C3.90262 11.9567 4.12915 12.1017 4.37859 12.1936C4.70808 12.3148 5.0548 12.3826 5.40567 12.3944C6.00801 12.3944 6.17791 12.3944 7.72238 12.3944C9.26686 12.3944 9.43675 12.3944 10.0391 12.3944C10.4034 12.3909 10.7642 12.3229 11.1048 12.1936C11.3542 12.1017 11.5808 11.9567 11.7687 11.7687C11.9567 11.5808 12.1017 11.3542 12.1936 11.1048C12.3229 10.7642 12.3909 10.4034 12.3944 10.0391C12.3944 9.43675 12.3944 9.26686 12.3944 7.72238C12.3944 6.17791 12.3944 6.00801 12.3944 5.40567C12.3946 5.04102 12.3265 4.67955 12.1936 4.33998V4.3477ZM7.72238 10.6723C7.33535 10.6723 6.95213 10.596 6.59465 10.4476C6.23718 10.2993 5.91249 10.0819 5.63918 9.80785C5.36587 9.53382 5.1493 9.20855 5.0019 8.8507C4.85449 8.49284 4.77914 8.10941 4.78015 7.72238C4.78016 7.13861 4.95336 6.56796 5.27785 6.08268C5.60234 5.59739 6.06352 5.2193 6.603 4.99625C7.14248 4.77321 7.73601 4.71524 8.30846 4.82969C8.8809 4.94414 9.40652 5.22587 9.81877 5.6392C10.231 6.05253 10.5114 6.57888 10.6243 7.15162C10.7373 7.72437 10.6777 8.31774 10.4533 8.85664C10.2288 9.39554 9.84952 9.85572 9.36339 10.1789C8.87725 10.5021 8.30615 10.6739 7.72238 10.6723ZM10.8113 5.35161C10.6406 5.33354 10.4826 5.25293 10.3678 5.12532C10.253 4.99771 10.1895 4.83212 10.1895 4.66046C10.1895 4.48879 10.253 4.32321 10.3678 4.19559C10.4826 4.06798 10.6406 3.98737 10.8113 3.9693C10.982 3.98737 11.14 4.06798 11.2548 4.19559C11.3697 4.32321 11.4332 4.48879 11.4332 4.66046C11.4332 4.83212 11.3697 4.99771 11.2548 5.12532C11.14 5.25293 10.982 5.33354 10.8113 5.35161Z" fill="white"/>
</svg>
