<svg width="33" height="33" viewBox="0 0 33 33" fill="none" xmlns="http://www.w3.org/2000/svg">
<path d="M27.7883 10.7525L17.2008 16.885C16.7746 17.1325 16.2383 17.1325 15.7983 16.885L5.21081 10.7525C4.45456 10.3125 4.26206 9.28123 4.83956 8.63498C5.23831 8.18123 5.69206 7.80998 6.17331 7.54873L13.6258 3.42373C15.2208 2.52998 17.8058 2.52998 19.4008 3.42373L26.8533 7.54873C27.3346 7.80998 27.7883 8.19498 28.1871 8.63498C28.7371 9.28123 28.5446 10.3125 27.7883 10.7525Z" fill="white"/>
<path d="M15.7164 19.4425V28.82C15.7164 29.865 14.6577 30.5525 13.7227 30.0987C10.8902 28.71 6.11891 26.1112 6.11891 26.1112C4.44141 25.1625 3.06641 22.77 3.06641 20.8037V13.7087C3.06641 12.6225 4.20766 11.935 5.14266 12.4712L15.0289 18.205C15.4414 18.4662 15.7164 18.9337 15.7164 19.4425Z" fill="white"/>
<path d="M17.2842 19.4425V28.82C17.2842 29.865 18.3429 30.5525 19.2779 30.0987C22.1104 28.71 26.8817 26.1112 26.8817 26.1112C28.5592 25.1625 29.9342 22.77 29.9342 20.8037V13.7087C29.9342 12.6225 28.7929 11.935 27.8579 12.4712L17.9717 18.205C17.5592 18.4662 17.2842 18.9337 17.2842 19.4425Z" fill="white"/>
</svg>
