<svg width="27" height="27" viewBox="0 0 27 27" fill="none" xmlns="http://www.w3.org/2000/svg">
<path d="M26.7264 13.3632C26.7264 20.7435 20.7435 26.7264 13.3632 26.7264C5.98292 26.7264 0 20.7435 0 13.3632C0 5.98292 5.98292 0 13.3632 0C20.7435 0 26.7264 5.98292 26.7264 13.3632ZM1.96637 13.3632C1.96637 19.6575 7.06891 24.7601 13.3632 24.7601C19.6575 24.7601 24.7601 19.6575 24.7601 13.3632C24.7601 7.06891 19.6575 1.96637 13.3632 1.96637C7.06891 1.96637 1.96637 7.06891 1.96637 13.3632Z" fill="#D7D7D7"/>
<path d="M22.8124 3.914C21.4294 2.53096 19.7596 1.46839 17.921 0.801288C16.0824 0.134187 14.1197 -0.121174 12.1716 0.0532324C10.2235 0.227639 8.33744 0.82756 6.64655 1.81064C4.95566 2.79373 3.50119 4.136 2.38582 5.7427C1.27044 7.34941 0.521362 9.18137 0.19146 11.1092C-0.138442 13.0371 -0.0411216 15.0139 0.47655 16.9001C0.994221 18.7862 1.91962 20.5358 3.18742 22.0251C4.45522 23.5145 6.0345 24.7074 7.81378 25.5197L8.63037 23.7309C7.11291 23.0382 5.76601 22.0208 4.68477 20.7506C3.60352 19.4803 2.81429 17.9882 2.37279 16.3796C1.9313 14.771 1.8483 13.0851 2.12965 11.4409C2.41101 9.79672 3.04987 8.23433 4.00112 6.86405C4.95237 5.49377 6.19282 4.349 7.6349 3.51058C9.07697 2.67215 10.6855 2.16051 12.347 2.01177C14.0084 1.86302 15.6823 2.08081 17.2503 2.64975C18.8184 3.21869 20.2425 4.12491 21.422 5.30443L22.8124 3.914Z" fill="url(#paint0_linear_96_694)"/>
<defs>
<linearGradient id="paint0_linear_96_694" x1="-1.79356e-08" y1="-6.89041" x2="18.9391" y2="-4.7145" gradientUnits="userSpaceOnUse">
<stop stop-color="#DB97ED"/>
<stop offset="1" stop-color="#7984F1"/>
</linearGradient>
</defs>
</svg>
