<svg width="60" height="60" viewBox="0 0 60 60" fill="none" xmlns="http://www.w3.org/2000/svg">
<rect width="59.1241" height="59.1445" rx="14.781" fill="#051336"/>
<g clip-path="url(#clip0_1_2349)">
<path d="M40.6003 31.5535C40.4829 31.5535 40.3798 31.5535 40.2767 31.5535C39.9506 31.5535 39.7755 31.6955 39.7084 32.0108C39.6557 32.2467 39.5957 32.4802 39.5502 32.7161C39.5334 32.8004 39.4926 32.8293 39.4207 32.8606C39.0155 33.0242 38.6127 33.1976 38.2051 33.3588C38.1547 33.3781 38.0756 33.3805 38.03 33.354C37.8143 33.2288 37.6057 33.0892 37.3923 32.9544C37.1333 32.7932 36.9199 32.8148 36.7017 33.0315C36.3061 33.4262 35.9105 33.8234 35.5173 34.2206C35.2943 34.4469 35.2751 34.6563 35.443 34.9235C35.57 35.1281 35.6971 35.3351 35.8314 35.5373C35.8793 35.6095 35.8769 35.6625 35.8434 35.7443C35.6683 36.1463 35.5077 36.5555 35.3351 36.9599C35.3135 37.0105 35.2559 37.0634 35.2056 37.0755C34.9586 37.1405 34.7093 37.191 34.4623 37.2512C34.1866 37.3186 34.0547 37.4823 34.0499 37.7687C34.0451 38.0118 34.0499 38.2526 34.0499 38.4957C34.0499 38.551 34.0499 38.6064 34.0499 38.6762C33.9852 38.6762 33.9372 38.6762 33.8917 38.6762C28.2332 38.6762 22.5723 38.6762 16.9138 38.6762C16.3959 38.6762 16.1298 38.4066 16.1298 37.8867C16.125 31.9747 16.125 26.0652 16.125 20.1557C16.125 20.1003 16.125 20.0425 16.125 19.9775H40.6003V31.5559V31.5535ZM28.3483 25.3479C28.7319 25.3479 29.1155 25.3479 29.4992 25.3479C30.3503 25.3479 31.2039 25.3647 32.0527 25.331C32.7144 25.3045 33.1964 24.9362 33.4505 24.3296C33.7143 23.699 33.6112 23.0972 33.1652 22.5773C32.8319 22.1873 32.3931 22.0092 31.8848 22.0092C29.5807 22.0092 27.2765 22.0092 24.9724 22.0092C24.8549 22.0092 24.735 22.014 24.6175 22.026C23.5098 22.1319 22.8145 23.3548 23.294 24.3658C23.6105 25.0325 24.1548 25.3479 24.8861 25.3479C26.0417 25.3479 27.195 25.3479 28.3507 25.3479H28.3483ZM19.4649 35.2099C19.4578 35.1955 19.4506 35.181 19.4434 35.1642C19.5465 35.0679 19.652 34.974 19.7503 34.8729C19.9637 34.6563 19.9732 34.365 19.7742 34.1628C19.5824 33.9678 19.2755 33.9751 19.0645 34.1845C18.6857 34.5624 18.3093 34.9427 17.9304 35.3231C17.7003 35.5566 17.6979 35.8334 17.9256 36.0645C18.3021 36.4448 18.6809 36.8251 19.0597 37.203C19.2755 37.4173 19.5656 37.4269 19.767 37.2295C19.9685 37.0297 19.9613 36.7433 19.7479 36.5194C19.6472 36.4159 19.5465 36.3124 19.429 36.1896C19.4841 36.1848 19.5105 36.1824 19.5369 36.1824C20.6494 36.1824 21.7595 36.1824 22.872 36.18C22.9392 36.18 23.0039 36.18 23.071 36.1704C23.3468 36.127 23.5242 35.843 23.4475 35.5758C23.3779 35.3303 23.2029 35.2123 22.908 35.2123C21.8147 35.2123 20.7237 35.2123 19.6304 35.2123C19.5752 35.2123 19.5201 35.2123 19.4625 35.2123L19.4649 35.2099ZM21.8003 32.0951C21.7907 32.1095 21.7811 32.124 21.7715 32.1384C21.7259 32.1384 21.6804 32.1384 21.6324 32.1384C20.5487 32.1384 19.4649 32.1384 18.3812 32.1384C18.3141 32.1384 18.2493 32.1384 18.1822 32.1456C17.9065 32.1769 17.7147 32.4537 17.7794 32.7233C17.8369 32.9713 18.0239 33.1133 18.2997 33.1133C19.4122 33.1133 20.5247 33.1133 21.6348 33.1133C21.6828 33.1133 21.7307 33.1133 21.7787 33.1133C21.7835 33.1253 21.7859 33.1374 21.7907 33.1518C21.6852 33.2529 21.5749 33.3516 21.4718 33.4575C21.2656 33.6694 21.2608 33.9582 21.4574 34.158C21.6564 34.3602 21.9369 34.3578 22.1503 34.146C22.5411 33.7584 22.9296 33.3685 23.3132 32.9761C23.5194 32.7643 23.5194 32.473 23.3132 32.2636C22.9296 31.876 22.5459 31.4885 22.1599 31.1058C21.9513 30.8963 21.6636 30.8915 21.4646 31.0889C21.2608 31.2863 21.2608 31.5727 21.4694 31.787C21.5749 31.8953 21.69 31.994 21.8003 32.0951Z" fill="white"/>
<path d="M37.1674 43.2957C36.9252 43.0526 36.6903 42.8167 36.4457 42.5712C36.5704 42.3714 36.6975 42.1619 36.8317 41.9573C36.9804 41.7359 36.9852 41.524 36.8389 41.2954C36.5368 40.826 36.3234 40.3157 36.2083 39.7692C36.1532 39.5021 36.0021 39.3456 35.7312 39.2974C35.5274 39.2613 35.3284 39.2012 35.1246 39.1626C35.0503 39.1482 35.0215 39.1217 35.0215 39.0447C35.0263 38.7703 35.0263 38.4935 35.0215 38.219C35.0215 38.1396 35.0479 38.1155 35.1246 38.1011C35.338 38.0602 35.5466 38.0072 35.76 37.9591C35.9949 37.9085 36.1436 37.7761 36.1963 37.533C36.3234 36.9577 36.5464 36.4233 36.8605 35.9274C36.9828 35.7349 36.9828 35.5447 36.8605 35.3521C36.7214 35.1331 36.5848 34.9116 36.4313 34.6685C36.6567 34.4471 36.8797 34.2256 37.1122 34.009C37.1338 33.9873 37.2082 33.9969 37.2417 34.0162C37.4239 34.1245 37.6038 34.24 37.7812 34.358C37.997 34.5024 38.208 34.5072 38.4286 34.3628C38.9081 34.0499 39.4332 33.8405 39.9894 33.7153C40.234 33.6599 40.3731 33.5155 40.421 33.27C40.4618 33.0605 40.5097 32.8535 40.5625 32.6465C40.5745 32.6032 40.6248 32.5406 40.6584 32.5406C40.9653 32.5334 41.2722 32.5358 41.5935 32.5358C41.6534 32.7982 41.7182 33.0533 41.7733 33.3109C41.8213 33.5372 41.9627 33.6647 42.1809 33.7129C42.7348 33.8356 43.2551 34.0427 43.7298 34.3508C43.972 34.5072 44.1901 34.5072 44.4227 34.3435C44.6145 34.2087 44.8207 34.0908 45.0293 33.9584C45.2523 34.1847 45.4705 34.4013 45.6791 34.6276C45.7031 34.6541 45.7031 34.7335 45.6815 34.7672C45.5688 34.9598 45.4489 35.1475 45.329 35.3353C45.1996 35.5351 45.1972 35.7349 45.3242 35.9371C45.6431 36.4378 45.8637 36.977 45.9884 37.5571C46.0339 37.7641 46.161 37.8989 46.3744 37.947C46.6046 37.9976 46.8324 38.0578 47.0625 38.1035C47.1417 38.1204 47.1632 38.1516 47.1608 38.2263C47.1585 38.4959 47.1561 38.7679 47.1608 39.0375C47.1608 39.1121 47.1393 39.1482 47.0625 39.1626C46.8492 39.2036 46.6406 39.2589 46.4272 39.3023C46.1826 39.3504 46.0339 39.4924 45.9812 39.738C45.8637 40.2892 45.6551 40.8067 45.3506 41.2809C45.1948 41.524 45.1972 41.7455 45.3602 41.979C45.4753 42.1451 45.5808 42.3208 45.6839 42.4965C45.7055 42.5326 45.7031 42.6097 45.6791 42.6361C45.4681 42.86 45.2499 43.0767 45.0293 43.3005C44.8087 43.1609 44.5954 43.0309 44.3868 42.8937C44.1782 42.7565 43.9791 42.7517 43.7658 42.8889C43.2766 43.2042 42.7444 43.4185 42.1785 43.5485C41.9579 43.599 41.8213 43.7266 41.7733 43.9529C41.7182 44.2056 41.6558 44.4584 41.5959 44.7207C41.277 44.7207 40.9605 44.7231 40.644 44.7159C40.6152 44.7159 40.5721 44.6509 40.5625 44.61C40.5097 44.3982 40.4618 44.1863 40.4186 43.9745C40.3707 43.741 40.2364 43.599 40.0014 43.546C39.4332 43.4209 38.9033 43.2018 38.4142 42.8889C38.2008 42.7517 38.0018 42.7589 37.7932 42.8961C37.5894 43.0309 37.3784 43.1609 37.1674 43.2957ZM38.6731 38.5512C38.5964 39.8318 39.6514 40.9945 40.9557 41.0667C42.2792 41.1389 43.4373 40.1038 43.5116 38.7775C43.5835 37.4608 42.5933 36.2572 41.1715 36.2067C39.8384 36.1585 38.7187 37.2129 38.6755 38.5512H38.6731Z" fill="white"/>
<path d="M28.8633 18.9666V14.4219C28.9232 14.4219 28.9736 14.4219 29.0239 14.4219C30.8653 14.4219 32.7067 14.4219 34.5457 14.4219C34.7951 14.4219 34.9989 14.4989 35.1859 14.6698C36.38 15.7819 37.5764 16.8868 38.7752 17.9941C39.1205 18.3118 39.4657 18.6296 39.8302 18.9666H28.8633Z" fill="white"/>
<path d="M16.8965 18.9788C17.6781 18.2542 18.4382 17.5513 19.1958 16.8509C19.9847 16.1215 20.7783 15.3921 21.5623 14.6579C21.7206 14.5111 21.8956 14.4341 22.109 14.4341C23.9912 14.4341 25.8757 14.4341 27.7579 14.4341C27.7891 14.4341 27.8226 14.4389 27.8658 14.4413V18.9788H16.8965Z" fill="white"/>
<path d="M28.3653 24.3705C27.188 24.3705 26.0108 24.3705 24.8335 24.3705C24.3851 24.3705 24.0902 24.0503 24.1214 23.6026C24.1406 23.3161 24.3947 23.0393 24.6777 23.0008C24.7472 22.9912 24.8191 22.9888 24.891 22.9888C27.2096 22.9888 29.5257 22.9888 31.8443 22.9888C32.0888 22.9888 32.3046 23.0441 32.4629 23.2415C32.6427 23.4654 32.6715 23.7181 32.5516 23.9757C32.4317 24.2333 32.2183 24.3705 31.9306 24.3729C30.7437 24.3729 29.5569 24.3729 28.3701 24.3729L28.3653 24.3705Z" fill="white"/>
</g>
<mask id="mask0_1_2349" style="mask-type:alpha" maskUnits="userSpaceOnUse" x="0" y="0" width="60" height="60">
<rect width="59.124" height="59.1445" rx="14.781" fill="#051336"/>
</mask>
<g mask="url(#mask0_1_2349)">
<g filter="url(#filter0_f_1_2349)">
<ellipse cx="51.2845" cy="50.7093" rx="17.136" ry="17.136" fill="#7583F2"/>
</g>
</g>
<defs>
<filter id="filter0_f_1_2349" x="9.02071" y="8.44552" width="84.5274" height="84.5274" filterUnits="userSpaceOnUse" color-interpolation-filters="sRGB">
<feFlood flood-opacity="0" result="BackgroundImageFix"/>
<feBlend mode="normal" in="SourceGraphic" in2="BackgroundImageFix" result="shape"/>
<feGaussianBlur stdDeviation="12.5639" result="effect1_foregroundBlur_1_2349"/>
</filter>
<clipPath id="clip0_1_2349">
<rect width="31.0401" height="30.3011" fill="white" transform="translate(16.125 14.4219)"/>
</clipPath>
</defs>
</svg>
