<svg width="109" height="25" viewBox="0 0 109 25" fill="none" xmlns="http://www.w3.org/2000/svg">
<path d="M64.8728 5.55069C64.9931 5.55042 65.0906 5.64786 65.0912 5.76821L65.1307 17.421C65.1383 19.5903 64.5704 21.2235 63.4292 22.3208C62.3048 23.4353 60.5279 23.997 58.098 24.0052L56.4415 24.0105C56.3212 24.0108 56.2236 23.9134 56.2231 23.793L56.2171 22.043C56.2166 21.9225 56.3141 21.8243 56.4344 21.8239L57.8558 21.8191C60.9327 21.8088 62.5887 20.6308 62.8233 18.2852C62.8364 18.16 62.7356 18.0542 62.6098 18.0544L60.6552 18.0608C58.3815 18.0684 56.8268 17.6746 55.9912 16.8791C55.1729 16.0835 54.7594 14.4623 54.7513 12.0153L54.7302 5.80311C54.7296 5.68275 54.8272 5.5851 54.9475 5.58456L56.8024 5.57822C56.9227 5.5779 57.0208 5.67528 57.0208 5.79574L57.0424 12.1116C57.0473 13.5174 57.2673 14.4974 57.703 15.0513C58.1387 15.6051 58.938 15.8802 60.1009 15.8763L62.6163 15.8678C62.7366 15.8674 62.8342 15.7692 62.8336 15.6488L62.8 5.77612C62.8 5.65566 62.8976 5.55758 63.0179 5.55703L64.8728 5.55069ZM12.2376 1.26753e-06C12.3581 -0.000405152 12.4563 0.0969757 12.4567 0.217499L12.5159 17.7856C12.5167 18.0267 12.322 18.223 12.0809 18.2238L6.39953 18.2429C4.508 18.2491 2.97016 17.6555 1.78607 16.4621C0.601817 15.2512 0.00622378 13.7259 4.61994e-05 11.8862C-0.00607719 10.0813 0.596507 8.56942 1.8072 7.35048C3.0353 6.1141 4.4912 5.49287 6.17464 5.48718C7.20754 5.48372 8.17753 5.72063 9.08412 6.19739C9.15408 6.23429 9.19705 6.30723 9.19738 6.38629L9.20323 8.17497C9.20383 8.35282 9.0011 8.45887 8.84813 8.3681C8.06276 7.90207 7.17411 7.67047 6.18207 7.67383C5.14082 7.67735 4.25705 8.07109 3.5308 8.85445C2.82184 9.62042 2.46929 10.6282 2.47346 11.8777C2.47774 13.1446 2.81967 14.1587 3.49905 14.92C4.19581 15.6813 5.16044 16.0604 6.39265 16.0562L9.94882 16.0441C10.0694 16.0436 10.1668 15.9455 10.1663 15.825L10.1139 0.225437C10.1136 0.104914 10.2109 0.00675759 10.3314 0.00635117L12.2376 1.26753e-06ZM84.576 5.22471C86.0402 5.21978 87.3494 5.65208 88.5047 6.52122C88.6077 6.59861 88.6164 6.74876 88.5264 6.84089L87.2979 8.09824C87.2215 8.17687 87.0985 8.18576 87.0075 8.12366C86.3111 7.64592 85.5032 7.40879 84.5836 7.41188C83.386 7.41594 82.4328 7.81824 81.724 8.61895C81.0326 9.40225 80.689 10.4449 80.6933 11.7465C80.6977 13.048 81.0483 14.0966 81.7452 14.8925C82.4594 15.6711 83.4153 16.0586 84.6123 16.0546C85.546 16.0515 86.3447 15.8174 87.008 15.3524C87.0974 15.2899 87.2194 15.2958 87.2979 15.372L88.554 16.5992C88.6467 16.6902 88.6402 16.8421 88.5367 16.9209C87.3879 17.7962 86.0825 18.2363 84.6199 18.2412C82.6935 18.2477 81.1469 17.6369 79.9802 16.4087C78.813 15.163 78.2261 13.6114 78.2201 11.7544C78.2136 9.93222 78.8168 8.39455 80.0274 7.14093C81.2548 5.86987 82.771 5.23085 84.576 5.22471ZM19.0329 5.70681C20.7164 5.70112 22.0109 6.11302 22.9161 6.94298C23.8214 7.773 24.2767 8.96906 24.282 10.5309L24.3069 17.9666C24.3072 18.0871 24.2099 18.1853 24.0894 18.1857L18.5022 18.2042C17.0271 18.2091 15.8546 17.8834 14.9846 17.2268C14.1147 16.5702 13.6776 15.6085 13.6733 14.3417C13.669 13.0747 14.1258 12.1101 15.0434 11.4475C15.961 10.7849 17.1138 10.4509 18.5022 10.4463C19.2378 10.4438 20.0202 10.5646 20.8492 10.8082C20.9406 10.8351 21.0027 10.9193 21.0032 11.0146L21.009 12.7562C21.0096 12.9369 20.7998 13.0438 20.6433 12.9535C20.057 12.6157 19.3717 12.4482 18.5873 12.4508C17.7717 12.4536 17.1388 12.6207 16.6886 12.952C16.2385 13.2659 16.0141 13.7177 16.016 14.3078C16.0199 15.4532 16.8723 16.0228 18.5731 16.0171L21.7911 16.0065C21.9116 16.0061 22.009 15.9079 22.0086 15.7874L21.9927 11.0337C21.9857 8.93368 20.9581 7.88706 18.9102 7.89395L14.963 7.90717C14.8425 7.90749 14.7448 7.81012 14.7444 7.68971L14.7386 5.93912C14.7383 5.81877 14.8352 5.72112 14.9555 5.72058L19.0329 5.70681ZM28.5465 3.57257C28.683 3.43464 28.9187 3.53109 28.9193 3.72551L28.9253 5.45332C28.9258 5.57383 29.0239 5.67121 29.1442 5.67083L32.2221 5.66075C32.3424 5.66037 32.4405 5.75775 32.4411 5.87827L32.447 7.62831C32.4476 7.74883 32.35 7.84696 32.2292 7.8474L29.1518 7.85796C29.0309 7.8584 28.9339 7.9561 28.9339 8.07651L28.9513 13.2213C28.9529 13.8286 29.0504 14.3316 29.2428 14.7301C29.4525 15.1285 29.7484 15.414 30.1304 15.5863C30.513 15.7412 30.869 15.8438 31.199 15.8948C31.4949 15.9382 31.8477 15.9627 32.2568 15.9678C32.3771 15.9694 32.4757 16.0665 32.4763 16.1869L32.4817 17.9375C32.4822 18.058 32.3842 18.1563 32.2639 18.155C30.3786 18.1343 28.9751 17.7575 28.0528 17.0252C27.0958 16.2648 26.6141 14.9994 26.6081 13.2293L26.5908 8.08448C26.5902 7.96407 26.4927 7.86669 26.3724 7.86696L24.7998 7.87227C24.6058 7.87281 24.5075 7.63817 24.6445 7.50026L28.5465 3.57257ZM38.3569 5.64119C40.0406 5.6355 41.3351 6.04739 42.2401 6.87736C43.1456 7.70737 43.6008 8.90344 43.6062 10.4653L43.6306 17.901C43.6311 18.0214 43.5336 18.1197 43.4133 18.1201L37.8264 18.1386C36.3508 18.1435 35.1787 17.8177 34.3084 17.1612C33.4387 16.5046 33.0014 15.5429 32.997 14.276C32.9932 13.0091 33.4495 12.0445 34.3675 11.3818C35.2849 10.7193 36.438 10.3854 37.8264 10.3806C38.5617 10.3781 39.3442 10.499 40.1733 10.7426C40.2644 10.7695 40.3267 10.8537 40.3272 10.949L40.3332 12.6906C40.3337 12.8712 40.124 12.9782 39.9674 12.8879C39.3811 12.5501 38.6956 12.3826 37.9115 12.3852C37.0959 12.388 36.463 12.5551 36.0127 12.8864C35.5624 13.2003 35.338 13.6521 35.3402 14.2422C35.344 15.3876 36.1964 15.9571 37.8968 15.9515L41.1151 15.9408C41.2354 15.9405 41.333 15.8423 41.3324 15.7217L41.3167 10.9681C41.3097 8.86805 40.2822 7.82144 38.2344 7.82832L34.2867 7.84155C34.1664 7.84187 34.0689 7.74449 34.0684 7.62408L34.0624 5.8735C34.0624 5.75315 34.1594 5.6555 34.2797 5.65495L38.3569 5.64119ZM53.3397 5.58987C53.46 5.58944 53.5581 5.68693 53.5586 5.80733L53.5646 7.55792C53.5646 7.67838 53.4676 7.77657 53.3467 7.77701L48.9574 7.7918C48.454 7.79353 48.0205 7.89021 47.6563 8.08236C47.2927 8.27446 47.1112 8.544 47.1123 8.89097C47.1133 9.09922 47.1572 9.2903 47.2445 9.46354C47.3323 9.61944 47.4282 9.74928 47.5328 9.85305C47.6547 9.95672 47.8286 10.0689 48.0546 10.1896C48.2974 10.2929 48.48 10.3703 48.6014 10.4219C48.7406 10.4562 49.2966 10.6282 50.2693 10.9373C51.2426 11.2464 51.9638 11.5044 52.4331 11.711C52.9018 11.9177 53.2589 12.2026 53.5028 12.5662C53.7645 12.9124 53.9309 13.2592 54.0013 13.606C54.0718 13.9355 54.1075 14.2654 54.1086 14.5951C54.1168 16.9206 52.5236 18.0887 49.3302 18.0994L45.0449 18.1137C44.9246 18.1141 44.826 18.0167 44.826 17.8962L44.82 16.1462C44.8195 16.0257 44.917 15.9276 45.0373 15.9271L49.3226 15.9128C50.9543 15.9073 51.7687 15.4703 51.7655 14.6025C51.7639 14.1861 51.52 13.8397 51.0334 13.5637C50.6226 13.3221 50.1252 13.1144 49.5421 12.9398L48.7769 12.7207C48.2654 12.5695 47.749 12.4037 47.2277 12.2233C46.5503 11.9653 45.9678 11.5592 45.4801 11.0056C45.0092 10.4344 44.7724 9.73194 44.7696 8.89889C44.7664 7.8403 45.1712 7.03223 45.9851 6.47413C46.799 5.8987 47.7869 5.60862 48.9498 5.60467L53.3397 5.58987ZM71.1598 5.52951C73.0863 5.52306 74.4675 5.80473 75.3026 6.37464C76.0504 6.87541 76.5213 7.48151 76.7142 8.19242C76.925 8.88588 77.0323 9.80526 77.0361 10.9505L77.0589 17.7872C77.0594 17.9077 76.9619 18.0059 76.8416 18.0063L74.9872 18.0127C74.8664 18.013 74.7683 17.9157 74.7677 17.7951L74.745 10.9844C74.7445 10.6722 74.7347 10.412 74.7168 10.2039C74.6984 9.97839 74.6366 9.70078 74.5315 9.37147C74.4264 9.02471 74.2773 8.74721 74.0861 8.53956C73.8942 8.31473 73.6162 8.12458 73.2515 7.96965C72.8863 7.79733 72.443 7.7123 71.9223 7.71404L69.1727 7.72303C69.0524 7.72352 68.9549 7.82166 68.9554 7.94212L68.9885 17.8147C68.989 17.9352 68.8915 18.0334 68.7712 18.0338L66.9168 18.0396C66.7965 18.04 66.6984 17.9426 66.6979 17.8221L66.6572 5.7629C66.6567 5.64254 66.7542 5.54484 66.8745 5.54435L71.1598 5.52951Z" fill="url(#paint0_linear_1_1245)"/>
<defs>
<linearGradient id="paint0_linear_1_1245" x1="-18.3868" y1="1.82471" x2="-11.3349" y2="38.5266" gradientUnits="userSpaceOnUse">
<stop stop-color="#E5A9E7"/>
<stop offset="1" stop-color="#7182F2"/>
</linearGradient>
</defs>
</svg>
