<svg width="28" height="28" viewBox="0 0 28 28" fill="none" xmlns="http://www.w3.org/2000/svg">
<path d="M19.5113 0H7.98875C2.98375 0 0 2.98375 0 7.98875V19.4975C0 24.5163 2.98375 27.5 7.98875 27.5H19.4975C24.5025 27.5 27.4862 24.5163 27.4862 19.5113V7.98875C27.5 2.98375 24.5163 0 19.5113 0ZM20.46 13.1037C20.46 13.64 20.0338 14.0662 19.4975 14.0662C18.9613 14.0662 18.535 13.64 18.535 13.1037V12.8563L14.795 16.5962C14.5888 16.8025 14.3137 16.8988 14.025 16.8713C13.7362 16.8438 13.475 16.6925 13.3237 16.445L11.9213 14.355L8.64875 17.6275C8.45625 17.82 8.2225 17.9025 7.975 17.9025C7.7275 17.9025 7.48 17.8062 7.30125 17.6275C6.93 17.2562 6.93 16.6512 7.30125 16.2662L11.3987 12.1688C11.605 11.9625 11.88 11.8662 12.1688 11.8937C12.4575 11.9212 12.7187 12.0725 12.87 12.32L14.2725 14.41L17.1737 11.5087H16.9263C16.39 11.5087 15.9637 11.0825 15.9637 10.5463C15.9637 10.01 16.39 9.58375 16.9263 9.58375H19.4838C19.6075 9.58375 19.7313 9.61125 19.855 9.6525C20.0888 9.74875 20.2812 9.94125 20.3775 10.175C20.4325 10.2987 20.4463 10.4225 20.4463 10.5463V13.1037H20.46Z" fill="white"/>
</svg>
