<svg width="60" height="60" viewBox="0 0 60 60" fill="none" xmlns="http://www.w3.org/2000/svg">
<rect width="59.7539" height="59.7746" rx="15" fill="#051336"/>
<g clip-path="url(#clip0_1_2339)">
<path d="M39.0756 33.292H33.3132V43.6096C33.2025 43.6096 33.1177 43.6096 33.033 43.6096C30.2613 43.6096 27.4895 43.6096 24.7178 43.6073C22.6573 43.6073 20.5991 43.6144 18.5386 43.6026C18.0794 43.6002 17.6814 43.4167 17.4553 42.9885C17.3847 42.8544 17.3376 42.692 17.3376 42.5414C17.3329 38.8732 17.3352 35.2026 17.3352 31.5343C17.3352 30.9249 17.3352 30.3132 17.3352 29.7038C17.3352 29.6426 17.3282 29.5838 17.3235 29.4943C17.2622 29.532 17.2246 29.5485 17.1963 29.5743C16.7583 29.9602 15.993 29.9485 15.6162 29.5108C15.4655 29.3343 15.3524 29.092 15.3171 28.8637C15.2888 28.6873 15.3972 28.4826 15.4631 28.2967C16.0165 26.7061 16.5511 25.1108 17.1374 23.532C17.3352 22.9979 17.2905 22.4708 17.2999 21.9367C17.307 21.5932 17.4035 21.3014 17.6532 21.0567C17.8557 20.8567 18.1006 20.7484 18.3785 20.7484C21.2821 20.7437 24.1856 20.7484 27.0892 20.7461C30.3649 20.7461 33.6405 20.7461 36.9162 20.7461C38.4092 20.7461 39.9022 20.7461 41.3952 20.7461C41.9415 20.7461 42.4478 21.259 42.4596 21.8143C42.462 21.9532 42.4714 22.092 42.4573 22.2284C42.389 22.8426 42.5821 23.4026 42.7869 23.9649C43.0366 24.652 43.2791 25.3414 43.5217 26.0332C43.7972 26.812 44.0515 27.5955 44.3482 28.3649C44.4825 28.7132 44.4872 29.0238 44.3011 29.339C44.0704 29.7296 43.5688 29.9414 43.1143 29.8167C42.8976 29.7579 42.6951 29.6449 42.4714 29.5485C42.4714 29.5932 42.462 29.6567 42.462 29.7226C42.462 32.4214 42.4643 35.1226 42.4643 37.8214C42.4643 39.3696 42.4643 40.9179 42.4643 42.4661C42.4643 43.0002 42.0828 43.4873 41.553 43.5438C41.0208 43.6026 40.4815 43.5955 39.9446 43.6096C39.662 43.6167 39.3794 43.6096 39.078 43.6096V33.292H39.0756ZM20.7145 33.2826V40.172H29.908C29.908 40.0355 29.908 39.9132 29.908 39.7885C29.908 37.7061 29.908 35.6238 29.908 33.5414C29.908 33.3689 29.824 33.2826 29.6561 33.2826C27.0798 33.2826 24.5059 33.2826 21.9296 33.2826C21.527 33.2826 21.1266 33.2826 20.7122 33.2826H20.7145ZM29.8986 24.1085C29.8986 24.1085 29.8986 24.1085 29.8986 24.1108C29.4582 24.1108 29.0179 24.1155 28.5775 24.1085C28.4433 24.1061 28.4009 24.1508 28.4032 24.2802C28.4056 24.4237 28.3821 24.5673 28.3773 24.7108C28.3538 25.4943 28.3326 26.2779 28.3161 27.0614C28.302 27.6567 28.2926 28.2543 28.2879 28.852C28.2784 29.7908 29.105 30.5579 30.0375 30.4567C30.9489 30.3602 31.507 29.612 31.5094 28.7579C31.5094 28.4096 31.4575 28.0614 31.4458 27.7132C31.4269 27.1861 31.4222 26.659 31.4152 26.132C31.4057 25.5226 31.3987 24.9132 31.3987 24.3037C31.3987 24.1579 31.3563 24.1037 31.2056 24.1085C30.7723 24.1179 30.3366 24.1108 29.9033 24.1108L29.8986 24.1085ZM33.4098 24.1085C33.4098 24.2802 33.4027 24.419 33.4098 24.5555C33.4404 25.012 33.4804 25.4661 33.5134 25.9202C33.5346 26.2073 33.544 26.4967 33.5652 26.7837C33.6123 27.4755 33.6617 28.1696 33.7135 28.8614C33.7394 29.2026 33.8242 29.5273 34.0338 29.8049C34.4012 30.299 34.898 30.5108 35.508 30.452C36.417 30.3649 36.9868 29.5696 36.9256 28.7461C36.8879 28.252 36.7608 27.7626 36.6713 27.2708C36.5912 26.8285 36.5064 26.3885 36.4287 25.9461C36.3322 25.3932 36.2403 24.8402 36.1532 24.2849C36.132 24.1461 36.0755 24.1014 35.9342 24.1037C35.4043 24.1132 34.8769 24.1061 34.347 24.1061C34.0385 24.1061 33.7324 24.1061 33.4074 24.1061L33.4098 24.1085ZM39.4901 24.1085C39.4901 24.1085 39.4901 24.1085 39.4901 24.1108C39.0945 24.1108 38.6965 24.1179 38.3009 24.1085C38.1195 24.1037 38.1078 24.1814 38.1407 24.3296C38.2279 24.732 38.3079 25.1367 38.388 25.5414C38.5175 26.1955 38.6517 26.8496 38.7742 27.5061C38.8684 28.0073 38.9626 28.5085 39.0309 29.0143C39.085 29.4073 39.231 29.7461 39.516 30.019C40.1542 30.6308 41.1409 30.612 41.7343 30.012C42.1511 29.5908 42.3324 29.0873 42.1605 28.499C41.9721 27.8567 41.7673 27.2214 41.5742 26.5814C41.3457 25.8214 41.115 25.0637 40.9007 24.3014C40.8583 24.1485 40.7923 24.1037 40.644 24.1061C40.2601 24.1132 39.8763 24.1085 39.4924 24.1085H39.4901ZM22.8645 28.6637C22.8245 29.7179 23.5451 30.4685 24.4423 30.4708C25.2077 30.4732 25.8694 29.939 25.9989 29.2049C26.0342 29.0096 26.0201 28.8049 26.0389 28.6073C26.1072 27.7932 26.1849 26.9767 26.2485 26.1626C26.3003 25.5273 26.3333 24.8896 26.3851 24.2543C26.3945 24.132 26.3545 24.1132 26.2532 24.1132C25.4337 24.1132 24.6166 24.1085 23.7971 24.1155C23.7358 24.1155 23.6346 24.1979 23.6228 24.2567C23.5121 24.8402 23.4179 25.4237 23.319 26.0096C23.2225 26.5767 23.1236 27.1437 23.027 27.7108C22.9611 28.092 22.8975 28.4732 22.8645 28.6661V28.6637ZM21.6612 24.1485C21.6188 24.1296 21.6094 24.1202 21.5976 24.1202C20.7169 24.1155 19.8338 24.1108 18.9531 24.1132C18.906 24.1132 18.8306 24.1767 18.8141 24.2261C18.7317 24.4755 18.6611 24.7273 18.5904 24.979C18.2866 26.0637 17.9828 27.1461 17.6791 28.2308C17.6249 28.4285 17.5142 28.6355 17.5401 28.8237C17.6343 29.4732 17.9428 29.9696 18.6022 30.2167C19.4853 30.5485 20.5049 30.0143 20.698 29.0826C20.7428 28.8637 20.7616 28.6379 20.804 28.4167C20.9029 27.9132 21.0089 27.4143 21.1101 26.9132C21.2326 26.3085 21.3574 25.7037 21.4775 25.099C21.5411 24.7814 21.5976 24.4637 21.6588 24.1437L21.6612 24.1485Z" fill="white"/>
<path d="M29.8829 19.5343C26.0586 19.5343 22.2366 19.5296 18.4123 19.539C17.8518 19.539 17.3031 19.0119 17.329 18.4661C17.3502 18.0449 17.3361 17.6237 17.3337 17.2025C17.3314 16.6825 17.8353 16.1672 18.3557 16.1672C20.2444 16.1672 22.1353 16.1672 24.024 16.1672C28.8115 16.1672 33.599 16.1672 38.3865 16.1672C39.3637 16.1672 40.3387 16.1766 41.3159 16.1649C41.8482 16.1578 42.3992 16.5696 42.4392 17.1202C42.4746 17.619 42.4769 18.1272 42.4298 18.6261C42.3804 19.1508 41.8976 19.5367 41.3725 19.5367C38.6078 19.5367 35.8432 19.5367 33.0762 19.5367C32.0118 19.5367 30.9474 19.5367 29.8829 19.5367V19.5343Z" fill="white"/>
</g>
<mask id="mask0_1_2339" style="mask-type:alpha" maskUnits="userSpaceOnUse" x="0" y="0" width="60" height="60">
<rect width="59.7539" height="59.7746" rx="15" fill="#051336"/>
</mask>
<g mask="url(#mask0_1_2339)">
<g filter="url(#filter0_f_1_2339)">
<ellipse cx="51.8322" cy="51.2495" rx="17.3186" ry="17.3186" fill="#7583F2"/>
</g>
</g>
<defs>
<filter id="filter0_f_1_2339" x="0.513672" y="-0.0690918" width="102.637" height="102.637" filterUnits="userSpaceOnUse" color-interpolation-filters="sRGB">
<feFlood flood-opacity="0" result="BackgroundImageFix"/>
<feBlend mode="normal" in="SourceGraphic" in2="BackgroundImageFix" result="shape"/>
<feGaussianBlur stdDeviation="17" result="effect1_foregroundBlur_1_2339"/>
</filter>
<clipPath id="clip0_1_2339">
<rect width="29.13" height="27.4494" fill="white" transform="translate(15.3125 16.1626)"/>
</clipPath>
</defs>
</svg>
