<svg width="20" height="14" viewBox="0 0 20 14" fill="none" xmlns="http://www.w3.org/2000/svg">
<path d="M19.2577 12.4141C18.8674 12.8827 18.2892 13.1538 17.6793 13.154H2.05894C1.44906 13.1538 0.870771 12.8827 0.480469 12.4141L8.01934 6.13306L8.80036 6.66745C9.44374 7.11139 10.2945 7.11139 10.9379 6.66745L11.7189 6.13306L19.2577 12.4141Z" fill="#1E88E5"/>
<path d="M19.3707 0.896166L11.7168 6.13307L10.9357 6.66746C10.2924 7.1114 9.44158 7.1114 8.79821 6.66746L8.01718 6.13307L0.363281 0.88792C0.74842 0.332564 1.381 0.000914706 2.05686 2.83557e-05H17.6772C18.3561 -0.00355558 18.9918 0.332795 19.3707 0.896166Z" fill="#64B5F6"/>
<path d="M8.01572 6.13305L0.476854 12.4141C0.168289 12.0453 -0.000541521 11.5796 3.65333e-05 11.0987V2.05534C-0.00246837 1.63825 0.123894 1.23053 0.361783 0.887939L8.01572 6.13305Z" fill="#2196F3"/>
<path d="M19.7305 2.05543V11.0988C19.7311 11.5796 19.5623 12.0454 19.2537 12.4142L11.7148 6.13314L19.3688 0.89624C19.6055 1.23637 19.7318 1.64104 19.7305 2.05543Z" fill="#2196F3"/>
</svg>
