<svg width="80" height="81" viewBox="0 0 80 81" fill="none" xmlns="http://www.w3.org/2000/svg">
<rect width="80" height="80.0277" rx="20" fill="#051336"/>
<mask id="mask0_1_6451" style="mask-type:alpha" maskUnits="userSpaceOnUse" x="0" y="0" width="80" height="81">
<rect width="80" height="80.0277" rx="20" fill="#051336"/>
</mask>
<g mask="url(#mask0_1_6451)">
<path d="M28.0796 21.7324H45.5645C47.7799 21.7324 49.5367 23.4888 49.5367 25.7037V27.2934C49.5367 29.5083 47.7799 31.2706 45.5645 31.2706H28.0796C25.8642 31.2706 24.1016 29.5083 24.1016 27.2934V25.7037C24.1016 23.4888 25.8642 21.7324 28.0796 21.7324Z" fill="white"/>
<path d="M28.0796 32.8604H45.5645C47.7799 32.8604 49.5367 34.6179 49.5367 36.8342V38.4248C49.5367 40.6411 47.7799 42.3986 45.5645 42.3986H28.0796C25.8642 42.3986 24.1016 40.6411 24.1016 38.4248V36.8342C24.1016 34.6179 25.8642 32.8604 28.0796 32.8604Z" fill="white"/>
<path d="M28.0804 43.9883C25.865 43.9883 24.1016 45.7445 24.1016 47.9595V49.5491C24.1016 51.764 25.865 53.5265 28.0804 53.5265H40.3385C40.1226 52.7673 39.9985 51.9693 39.9985 51.1419C39.9985 48.1859 41.4788 45.5717 43.7321 43.9883H28.0804Z" fill="white"/>
<path d="M48.7435 43.9883C44.7826 43.9883 41.5898 47.181 41.5898 51.1419C41.5898 55.1029 44.7826 58.2956 48.7435 58.2956C52.7044 58.2956 55.8971 55.1029 55.8971 51.1419C55.8971 47.181 52.7044 43.9883 48.7435 43.9883ZM52.9676 48.1567C53.1278 48.1522 53.2855 48.1963 53.4202 48.2831C53.5549 48.3699 53.6602 48.4954 53.7223 48.6431C53.7844 48.7908 53.8004 48.9539 53.7683 49.1109C53.7361 49.2678 53.6572 49.4114 53.542 49.5228L48.0278 55.0386C47.9539 55.1128 47.8661 55.1717 47.7694 55.2119C47.6727 55.2521 47.569 55.2728 47.4642 55.2728C47.3595 55.2728 47.2558 55.2521 47.1591 55.2119C47.0624 55.1717 46.9746 55.1128 46.9007 55.0386L43.4093 51.5425C43.3332 51.469 43.2724 51.3811 43.2307 51.2839C43.1889 51.1867 43.167 51.0821 43.1662 50.9764C43.1654 50.8706 43.1857 50.7657 43.2259 50.6679C43.2662 50.57 43.3255 50.4812 43.4005 50.4066C43.4755 50.332 43.5647 50.2731 43.6628 50.2334C43.7608 50.1937 43.8658 50.174 43.9716 50.1754C44.0774 50.1767 44.1818 50.1993 44.2788 50.2415C44.3758 50.2838 44.4633 50.345 44.5363 50.4216L47.4642 53.3495L52.4227 48.3972C52.5663 48.2494 52.7617 48.1632 52.9676 48.1567Z" fill="white"/>
<g filter="url(#filter0_f_1_6451)">
<circle cx="69.3936" cy="68.6138" r="23.1865" fill="#7583F2"/>
</g>
</g>
<defs>
<filter id="filter0_f_1_6451" x="12.207" y="11.4272" width="114.373" height="114.373" filterUnits="userSpaceOnUse" color-interpolation-filters="sRGB">
<feFlood flood-opacity="0" result="BackgroundImageFix"/>
<feBlend mode="normal" in="SourceGraphic" in2="BackgroundImageFix" result="shape"/>
<feGaussianBlur stdDeviation="17" result="effect1_foregroundBlur_1_6451"/>
</filter>
</defs>
</svg>
