<svg width="20" height="20" viewBox="0 0 20 20" fill="none" xmlns="http://www.w3.org/2000/svg">
<path fill-rule="evenodd" clip-rule="evenodd" d="M18.834 11.5595C19.2352 11.3358 19.5434 10.9764 19.7034 10.5459C19.9581 9.87303 19.9872 9.13557 19.7863 8.4447C19.6104 7.74737 19.2125 7.12615 18.6526 6.67476C18.2964 6.3842 17.8482 6.23014 17.3886 6.24027L18.834 11.5595ZM18.3075 12.0715L19.7582 17.4106C19.8259 17.662 19.7913 17.93 19.662 18.1561C19.5327 18.3821 19.3192 18.5478 19.0681 18.6169C18.8166 18.6845 18.5486 18.6498 18.3226 18.5205C18.0966 18.3911 17.9309 18.1776 17.8618 17.9266L13.3269 1.24119C13.2585 0.98954 13.2929 0.721022 13.4225 0.49471C13.552 0.268398 13.7662 0.102829 14.0179 0.0344283C14.2695 -0.0339728 14.538 0.000396487 14.7644 0.129975C14.9907 0.259554 15.1562 0.473728 15.2246 0.725381L18.3075 12.0701V12.0715ZM5.68065 9.18346L7.24105 14.9246C10.6965 14.3273 14.1162 14.3275 16.8324 16.5836L13.0347 2.60768C11.9486 6.09886 9.00205 7.90901 5.68065 9.18346ZM6.60617 15.0415C5.45972 15.2617 4.31394 15.5363 3.19296 15.8053L3.07992 15.8323C3.07165 15.8341 3.06339 15.8363 3.05512 15.8388C2.57144 15.9912 2.04911 15.9649 1.58319 15.7646C1.37976 15.6802 1.19685 15.5531 1.04687 15.3918C0.896894 15.2306 0.78336 15.0389 0.713973 14.8299L0.0574229 12.7108C-0.00179646 12.5016 -0.0154098 12.2821 0.0175028 12.0672C0.0504154 11.8522 0.129087 11.6469 0.2482 11.465C0.518038 11.0434 0.930255 10.7327 1.40984 10.5895L1.42324 10.5855L1.54075 10.5497C2.71199 10.1934 3.91094 9.82862 5.07548 9.40797L6.60617 15.0415ZM5.19522 15.9922C5.72935 15.872 6.26594 15.7581 6.80186 15.6571L7.72693 18.5322C7.79102 18.695 7.80772 18.8725 7.77511 19.0444C7.74249 19.2162 7.66189 19.3753 7.54263 19.5033C7.46467 19.5806 7.3704 19.6394 7.26674 19.6755C7.16739 19.7104 7.06104 19.7205 6.95689 19.705C6.67855 19.6628 6.39395 19.4258 6.21635 18.9171L5.19522 15.9922Z" fill="url(#paint0_linear_1_2273)"/>
<defs>
<linearGradient id="paint0_linear_1_2273" x1="1.87606" y1="1.53722" x2="17.3146" y2="18.1879" gradientUnits="userSpaceOnUse">
<stop stop-color="#E5A9E7"/>
<stop offset="1" stop-color="#7182F2"/>
</linearGradient>
</defs>
</svg>
