<svg width="24" height="24" viewBox="0 0 24 24" fill="none" xmlns="http://www.w3.org/2000/svg">
<path d="M20.2102 7.81994L12.5102 12.2799C12.2002 12.4599 11.8102 12.4599 11.4902 12.2799L3.79021 7.81994C3.24021 7.49994 3.10021 6.74994 3.52021 6.27994C3.81021 5.94994 4.14021 5.67994 4.49021 5.48994L9.91021 2.48994C11.0702 1.83994 12.9502 1.83994 14.1102 2.48994L19.5302 5.48994C19.8802 5.67994 20.2102 5.95994 20.5002 6.27994C20.9002 6.74994 20.7602 7.49994 20.2102 7.81994Z" fill="url(#paint0_linear_1_2283)"/>
<path d="M11.4305 14.1401V20.9601C11.4305 21.7201 10.6605 22.2201 9.98047 21.8901C7.92047 20.8801 4.45047 18.9901 4.45047 18.9901C3.23047 18.3001 2.23047 16.5601 2.23047 15.1301V9.97012C2.23047 9.18012 3.06047 8.68012 3.74047 9.07012L10.9305 13.2401C11.2305 13.4301 11.4305 13.7701 11.4305 14.1401Z" fill="url(#paint1_linear_1_2283)"/>
<path d="M12.5703 14.1401V20.9601C12.5703 21.7201 13.3403 22.2201 14.0203 21.8901C16.0803 20.8801 19.5503 18.9901 19.5503 18.9901C20.7703 18.3001 21.7703 16.5601 21.7703 15.1301V9.97012C21.7703 9.18012 20.9403 8.68012 20.2603 9.07012L13.0703 13.2401C12.7703 13.4301 12.5703 13.7701 12.5703 14.1401Z" fill="url(#paint2_linear_1_2283)"/>
<defs>
<linearGradient id="paint0_linear_1_2283" x1="4.91935" y1="2.81445" x2="11.8854" y2="15.2778" gradientUnits="userSpaceOnUse">
<stop stop-color="#E5A9E7"/>
<stop offset="1" stop-color="#7182F2"/>
</linearGradient>
<linearGradient id="paint1_linear_1_2283" x1="3.097" y1="9.95318" x2="12.9507" y2="17.3627" gradientUnits="userSpaceOnUse">
<stop stop-color="#E5A9E7"/>
<stop offset="1" stop-color="#7182F2"/>
</linearGradient>
<linearGradient id="paint2_linear_1_2283" x1="13.4368" y1="9.95318" x2="23.2906" y2="17.3627" gradientUnits="userSpaceOnUse">
<stop stop-color="#E5A9E7"/>
<stop offset="1" stop-color="#7182F2"/>
</linearGradient>
</defs>
</svg>
