<svg width="22" height="22" viewBox="0 0 22 22" fill="none" xmlns="http://www.w3.org/2000/svg">
<path d="M21.7015 10.6074C16.1289 9.0686 14.9701 7.90854 13.4311 2.33699C13.3822 2.15979 13.2213 2.0376 13.038 2.0376C12.8547 2.0376 12.6938 2.1598 12.6449 2.33699C11.1062 7.90958 9.94609 9.06842 4.37455 10.6074C4.19735 10.6562 4.07617 10.8172 4.07617 11.0005C4.07617 11.1838 4.19838 11.3447 4.37455 11.3935C9.94714 12.9323 11.106 14.0924 12.6449 19.6639C12.6938 19.8411 12.8547 19.9633 13.038 19.9633C13.2213 19.9633 13.3822 19.8411 13.4311 19.6639C14.9699 14.0913 16.1299 12.9325 21.7015 11.3935C21.8787 11.3447 21.9999 11.1838 21.9999 11.0005C21.9999 10.8172 21.8776 10.6562 21.7015 10.6074Z" fill="url(#paint0_linear_1_2295)"/>
<path d="M4.08774 8.6643C4.13662 8.8415 4.29752 8.96369 4.48083 8.96369C4.66413 8.96369 4.82504 8.84149 4.87392 8.6643C5.5868 6.08373 6.08274 5.58771 8.66328 4.87494C8.84048 4.82606 8.96166 4.66515 8.96166 4.48185C8.96166 4.29854 8.83945 4.13764 8.66328 4.08875C6.08271 3.37588 5.58669 2.88096 4.87392 0.299395C4.82504 0.122195 4.66413 0 4.48083 0C4.29752 0 4.13662 0.122206 4.08774 0.299395C3.37486 2.87997 2.87892 3.37598 0.298378 4.08875C0.121179 4.13764 0 4.29854 0 4.48185C0 4.66515 0.122206 4.82606 0.298378 4.87494C2.87895 5.58781 3.37497 6.08274 4.08774 8.6643Z" fill="url(#paint1_linear_1_2295)"/>
<path d="M9.27508 17.7362C7.10999 17.1384 6.69451 16.7229 6.09681 14.5579C6.04793 14.3807 5.88702 14.2585 5.70372 14.2585C5.52041 14.2585 5.35951 14.3808 5.31063 14.5579C4.71283 16.723 4.29734 17.1385 2.13236 17.7362C1.95516 17.7851 1.83398 17.946 1.83398 18.1293C1.83398 18.3126 1.95619 18.4735 2.13236 18.5224C4.29745 19.1202 4.71293 19.5357 5.31063 21.7007C5.35951 21.8779 5.52041 22 5.70372 22C5.88702 22 6.04793 21.8778 6.09681 21.7007C6.69461 19.5356 7.1101 19.1201 9.27508 18.5224C9.45228 18.4735 9.57345 18.3126 9.57345 18.1293C9.57345 17.946 9.45125 17.7851 9.27508 17.7362Z" fill="url(#paint2_linear_1_2295)"/>
<defs>
<linearGradient id="paint0_linear_1_2295" x1="5.76436" y1="3.43551" x2="19.8142" y2="18.4298" gradientUnits="userSpaceOnUse">
<stop stop-color="#E5A9E7"/>
<stop offset="1" stop-color="#7182F2"/>
</linearGradient>
<linearGradient id="paint1_linear_1_2295" x1="0.844078" y1="0.699023" x2="7.86972" y2="8.19609" gradientUnits="userSpaceOnUse">
<stop stop-color="#E5A9E7"/>
<stop offset="1" stop-color="#7182F2"/>
</linearGradient>
<linearGradient id="paint2_linear_1_2295" x1="2.56295" y1="14.8623" x2="8.63066" y2="21.3369" gradientUnits="userSpaceOnUse">
<stop stop-color="#E5A9E7"/>
<stop offset="1" stop-color="#7182F2"/>
</linearGradient>
</defs>
</svg>
