<svg width="28" height="27" viewBox="0 0 28 27" fill="none" xmlns="http://www.w3.org/2000/svg">
<path d="M19.5113 0H7.98875C2.98375 0 0 2.89333 0 7.74667V18.9067C0 23.7733 2.98375 26.6667 7.98875 26.6667H19.4975C24.5025 26.6667 27.4862 23.7733 27.4862 18.92V7.74667C27.5 2.89333 24.5163 0 19.5113 0ZM9.77625 19.8667C9.77625 20.24 9.47375 20.5333 9.08875 20.5333H5.2525C4.8675 20.5333 4.565 20.24 4.565 19.8667V13.7067C4.565 12.8667 5.26625 12.1867 6.1325 12.1867H9.08875C9.47375 12.1867 9.77625 12.48 9.77625 12.8533V19.8667ZM16.3488 19.8667C16.3488 20.24 16.0463 20.5333 15.6613 20.5333H11.825C11.44 20.5333 11.1375 20.24 11.1375 19.8667V7.65333C11.1375 6.81333 11.8387 6.13333 12.705 6.13333H14.795C15.6613 6.13333 16.3625 6.81333 16.3625 7.65333V19.8667H16.3488ZM22.935 19.8667C22.935 20.24 22.6325 20.5333 22.2475 20.5333H18.4113C18.0263 20.5333 17.7238 20.24 17.7238 19.8667V15.1333C17.7238 14.76 18.0263 14.4667 18.4113 14.4667H21.3675C22.2338 14.4667 22.935 15.1467 22.935 15.9867V19.8667Z" fill="white"/>
</svg>
