<svg width="22" height="22" viewBox="0 0 22 22" fill="none" xmlns="http://www.w3.org/2000/svg">
<circle cx="10.8105" cy="10.8105" r="10.8105" fill="#FFD9D9"/>
<path d="M7.17227 15.0379C6.80875 15.0379 6.56641 14.7955 6.56641 14.432C6.56641 14.2503 6.62699 14.1291 6.74817 14.0079L14.0186 6.73753C14.2609 6.49518 14.685 6.55577 14.8668 6.79812C15.0485 7.04046 15.0485 7.3434 14.8668 7.58574L7.59638 14.8561C7.4752 14.9773 7.35403 15.0379 7.17227 15.0379Z" fill="black"/>
<path d="M14.4464 15.0379C14.2647 15.0379 14.1435 14.9773 14.0223 14.8561L6.75193 7.58573C6.50959 7.34338 6.57017 6.97986 6.81252 6.73752C7.05487 6.55576 7.3578 6.55576 7.60015 6.73752L14.8705 14.0079C15.1129 14.2503 15.1129 14.6138 14.8705 14.8561C14.7494 14.9773 14.6282 15.0379 14.4464 15.0379Z" fill="black"/>
</svg>
