<svg width="23" height="23" viewBox="0 0 23 23" fill="none" xmlns="http://www.w3.org/2000/svg">
<path d="M8.38431 12.1216C7.06311 12.1216 5.98828 13.1964 5.98828 14.5176V20.5051C5.98828 21.8263 7.06311 22.9012 8.38431 22.9012C9.70551 22.9012 10.7803 21.8264 10.7803 20.5052V14.5176C10.7803 13.1964 9.70551 12.1216 8.38431 12.1216Z" fill="#FF4340"/>
<path d="M4.64512 12.1216H2.32549C1.04643 12.1216 0.00585938 13.1622 0.00585938 14.4412C0.00585938 15.7203 1.04647 16.7608 2.32549 16.7608C3.60451 16.7608 4.64512 15.7202 4.64512 14.4412V12.1216Z" fill="#FF4340"/>
<path d="M0 8.38358C0 9.70478 1.07483 10.7796 2.39603 10.7796H8.38355C9.70479 10.7796 10.7796 9.70478 10.7796 8.38358C10.7796 7.06238 9.70479 5.98755 8.3836 5.98755H2.39603C1.07483 5.9875 0 7.06238 0 8.38358Z" fill="#36C6FF"/>
<path d="M8.46221 4.64561H10.7818V2.32598C10.7818 1.04692 9.74123 0.00634766 8.46221 0.00634766C7.18315 0.00634766 6.14258 1.04696 6.14258 2.32598C6.14258 3.605 7.18315 4.64561 8.46221 4.64561Z" fill="#36C6FF"/>
<path d="M14.5171 10.7796C15.8383 10.7796 16.9132 9.70479 16.9132 8.3836V2.39603C16.9132 1.07483 15.8383 0 14.5171 0C13.1959 0 12.1211 1.07483 12.1211 2.39603V8.38355C12.1211 9.70479 13.1959 10.7796 14.5171 10.7796Z" fill="#0DC46E"/>
<path d="M18.2559 10.7796H20.5755C21.8546 10.7796 22.8951 9.73903 22.8951 8.46001C22.8951 7.18095 21.8545 6.14038 20.5755 6.14038C19.2965 6.14038 18.2559 7.18099 18.2559 8.46001V10.7796Z" fill="#0DC46E"/>
<path d="M22.9027 14.5176C22.9027 13.1964 21.8278 12.1216 20.5066 12.1216H14.5191C13.1979 12.1216 12.123 13.1964 12.123 14.5176C12.123 15.8388 13.1979 16.9136 14.5191 16.9136H20.5066C21.8278 16.9137 22.9027 15.8388 22.9027 14.5176Z" fill="#FDCB02"/>
<path d="M14.4427 18.2554H12.123V20.575C12.123 21.8541 13.1637 22.8946 14.4427 22.8946C15.7217 22.8946 16.7623 21.854 16.7623 20.575C16.7623 19.296 15.7217 18.2554 14.4427 18.2554Z" fill="#FDCB02"/>
</svg>
