<svg width="28" height="28" viewBox="0 0 28 28" fill="none" xmlns="http://www.w3.org/2000/svg">
<path d="M24.1725 4.785L21.3538 7.60375C21.1475 7.81 20.8862 7.90625 20.625 7.90625C20.3638 7.90625 20.1025 7.81 19.8962 7.60375C19.4975 7.205 19.4975 6.545 19.8962 6.14625L22.715 3.3275C20.295 1.265 17.1738 0 13.75 0C6.16 0 0 6.16 0 13.75C0 21.34 6.16 27.5 13.75 27.5C21.34 27.5 27.5 21.34 27.5 13.75C27.5 10.3262 26.235 7.205 24.1725 4.785ZM16.1562 13.5025C17.0362 13.8187 18.2188 14.4512 18.2188 16.4725C18.2188 18.1912 16.8575 19.6075 15.1938 19.6075H14.7812V19.9513C14.7812 20.515 14.3137 20.9825 13.75 20.9825C13.1863 20.9825 12.7188 20.515 12.7188 19.9513V19.6075H12.6088C10.78 19.6075 9.28125 18.0675 9.28125 16.17C9.28125 15.5925 9.74875 15.125 10.3125 15.125C10.8762 15.125 11.3438 15.5925 11.3438 16.1562C11.3438 16.9125 11.9075 17.5312 12.6088 17.5312H12.7188V14.4787L11.3438 13.9975C10.4638 13.6813 9.28125 13.0488 9.28125 11.0275C9.28125 9.30875 10.6425 7.8925 12.3062 7.8925H12.7188V7.5625C12.7188 6.99875 13.1863 6.53125 13.75 6.53125C14.3137 6.53125 14.7812 6.99875 14.7812 7.5625V7.90625H14.8912C16.72 7.90625 18.2188 9.44625 18.2188 11.3438C18.2188 11.9075 17.7512 12.375 17.1875 12.375C16.6238 12.375 16.1562 11.9075 16.1562 11.3438C16.1562 10.5875 15.5925 9.96875 14.8912 9.96875H14.7812V13.0213L16.1562 13.5025Z" fill="white"/>
</svg>
