<svg width="27" height="27" viewBox="0 0 27 27" fill="none" xmlns="http://www.w3.org/2000/svg">
<path d="M26.5353 12.9688C19.7221 11.0875 18.3053 9.66916 16.4237 2.85726C16.364 2.64061 16.1672 2.49122 15.9431 2.49122C15.719 2.49122 15.5223 2.64063 15.4625 2.85726C13.5812 9.67044 12.1629 11.0873 5.35097 12.9688C5.13433 13.0286 4.98617 13.2253 4.98617 13.4494C4.98617 13.6735 5.13558 13.8703 5.35097 13.93C12.1642 15.8114 13.581 17.2297 15.4625 24.0416C15.5223 24.2582 15.719 24.4076 15.9431 24.4076C16.1672 24.4076 16.364 24.2582 16.4237 24.0416C18.3051 17.2284 19.7234 15.8116 26.5353 13.93C26.7519 13.8703 26.9001 13.6735 26.9001 13.4494C26.9001 13.2253 26.7507 13.0286 26.5353 12.9688Z" fill="white"/>
<path d="M4.99792 10.5932C5.05769 10.8098 5.25441 10.9592 5.47852 10.9592C5.70264 10.9592 5.89936 10.8098 5.95913 10.5932C6.83071 7.43811 7.43705 6.83166 10.5921 5.96022C10.8087 5.90045 10.9569 5.70372 10.9569 5.47961C10.9569 5.2555 10.8075 5.05877 10.5921 4.99901C7.43702 4.12743 6.83058 3.52232 5.95913 0.366047C5.89936 0.149399 5.70264 0 5.47852 0C5.25441 0 5.05769 0.149412 4.99792 0.366047C4.12634 3.52111 3.52 4.12756 0.364961 4.99901C0.148313 5.05877 0.000156879 5.2555 0.000156879 5.47961C0.000156879 5.70372 0.149569 5.90045 0.364961 5.96022C3.52003 6.83179 4.12647 7.4369 4.99792 10.5932Z" fill="white"/>
<path d="M11.3425 21.6846C8.69539 20.9537 8.18741 20.4457 7.45665 17.7987C7.39689 17.5821 7.20016 17.4327 6.97605 17.4327C6.75193 17.4327 6.55521 17.5821 6.49544 17.7987C5.76456 20.4458 5.25658 20.9538 2.60962 21.6846C2.39297 21.7443 2.24482 21.941 2.24482 22.1652C2.24482 22.3893 2.39423 22.586 2.60962 22.6458C5.2567 23.3766 5.76469 23.8846 6.49544 26.5316C6.55521 26.7482 6.75193 26.8976 6.97605 26.8976C7.20016 26.8976 7.39689 26.7482 7.45665 26.5316C8.18753 23.8845 8.69552 23.3765 11.3425 22.6458C11.5591 22.586 11.7073 22.3893 11.7073 22.1652C11.7073 21.941 11.5579 21.7443 11.3425 21.6846Z" fill="white"/>
</svg>
