<svg width="24" height="24" viewBox="0 0 24 24" fill="none" xmlns="http://www.w3.org/2000/svg">
<path d="M17.49 9.60001L5.6 16.77C4.9 17.19 4 16.69 4 15.87V7.87001C4 4.38001 7.77 2.20001 10.8 3.94001L15.39 6.58001L17.48 7.78001C18.17 8.19001 18.18 9.19001 17.49 9.60001Z" fill="white"/>
<path d="M18.0908 15.46L14.0408 17.8L10.0008 20.13C8.55079 20.96 6.91079 20.79 5.72079 19.95C5.14079 19.55 5.21079 18.66 5.82079 18.3L18.5308 10.68C19.1308 10.32 19.9208 10.66 20.0308 11.35C20.2808 12.9 19.6408 14.57 18.0908 15.46Z" fill="white"/>
</svg>
