<svg width="19" height="19" viewBox="0 0 19 19" fill="none" xmlns="http://www.w3.org/2000/svg">
<path d="M9.50237 0H9.49763C4.25956 0 0 4.26075 0 9.5C0 11.5781 0.66975 13.5043 1.80856 15.0682L0.624625 18.5974L4.27619 17.4301C5.77838 18.4253 7.57031 19 9.50237 19C14.7404 19 19 14.7381 19 9.5C19 4.26194 14.7404 0 9.50237 0Z" fill="#4CAF50"/>
<path d="M15.0302 13.4151C14.801 14.0623 13.8913 14.599 13.1658 14.7558C12.6694 14.8615 12.021 14.9458 9.83841 14.0409C7.04659 12.8843 5.24872 10.0473 5.10859 9.86328C4.97441 9.67922 3.98047 8.3611 3.98047 6.99785C3.98047 5.6346 4.67278 4.97078 4.95184 4.68578C5.18103 4.45185 5.55984 4.34497 5.92322 4.34497C6.04078 4.34497 6.14647 4.35091 6.24147 4.35566C6.52053 4.36753 6.66066 4.38416 6.84472 4.82472C7.07391 5.37691 7.63203 6.74016 7.69853 6.88028C7.76622 7.02041 7.83391 7.21041 7.73891 7.39447C7.64984 7.58447 7.57147 7.66878 7.43134 7.83028C7.29122 7.99178 7.15822 8.11528 7.01809 8.28866C6.88984 8.43947 6.74497 8.60097 6.90647 8.88003C7.06797 9.15316 7.62609 10.064 8.44784 10.7955C9.50828 11.7395 10.368 12.0412 10.6756 12.1694C10.9048 12.2644 11.1779 12.2418 11.3453 12.0637C11.5579 11.8345 11.8203 11.4545 12.0875 11.0805C12.2775 10.8121 12.5174 10.7788 12.7692 10.8738C13.0257 10.9629 14.383 11.6338 14.662 11.7728C14.9411 11.9129 15.1252 11.9794 15.1928 12.097C15.2593 12.2145 15.2593 12.7667 15.0302 13.4151Z" fill="#FAFAFA"/>
</svg>
