<svg width="19" height="19" viewBox="0 0 19 19" fill="none" xmlns="http://www.w3.org/2000/svg">
<g clip-path="url(#clip0_578_7211)">
<path d="M17.8113 3.86577C17.1423 3.07049 15.9071 2.74609 13.5482 2.74609H4.98533C2.57242 2.74609 1.31631 3.09142 0.649816 3.93811C0 4.76364 0 5.97999 0 7.66345V10.8721C0 14.1335 0.771003 15.7894 4.98533 15.7894H13.5483C15.5939 15.7894 16.7275 15.5031 17.4608 14.8013C18.2128 14.0816 18.5337 12.9065 18.5337 10.8721V7.66345C18.5337 5.8881 18.4834 4.66457 17.8113 3.86577ZM11.8987 9.71077L8.01033 11.743C7.9234 11.7884 7.82834 11.8109 7.7334 11.8109C7.62591 11.8109 7.51865 11.782 7.42365 11.7245C7.24477 11.6161 7.13554 11.4222 7.13554 11.2131V7.16172C7.13554 6.95295 7.24447 6.75924 7.42299 6.65079C7.60157 6.54234 7.82368 6.53492 8.00896 6.63118L11.8973 8.65028C12.0952 8.75299 12.2194 8.95722 12.2197 9.18004C12.2199 9.40305 12.0962 9.60757 11.8987 9.71077Z" fill="white"/>
</g>
<defs>
<clipPath id="clip0_578_7211">
<rect width="18.5337" height="18.5337" fill="white"/>
</clipPath>
</defs>
</svg>
