<svg width="20" height="20" viewBox="0 0 20 20" fill="none" xmlns="http://www.w3.org/2000/svg">
<path d="M9.20829 12.4587L7.66663 14.0003C7.34163 14.3253 6.82496 14.3253 6.49163 14.0087C6.39996 13.917 6.30829 13.8337 6.21663 13.742C5.35829 12.8753 4.58329 11.967 3.89163 11.017C3.20829 10.067 2.65829 9.11699 2.25829 8.17533C1.86663 7.22533 1.66663 6.31699 1.66663 5.45033C1.66663 4.88366 1.76663 4.34199 1.96663 3.84199C2.16663 3.33366 2.48329 2.86699 2.92496 2.45033C3.45829 1.92533 4.04163 1.66699 4.65829 1.66699C4.89163 1.66699 5.12496 1.71699 5.33329 1.81699C5.54996 1.91699 5.74163 2.06699 5.89163 2.28366L7.82496 5.00866C7.97496 5.21699 8.08329 5.40866 8.15829 5.59199C8.23329 5.76699 8.27496 5.94199 8.27496 6.10033C8.27496 6.30033 8.21663 6.50033 8.09996 6.69199C7.99163 6.88366 7.83329 7.08366 7.63329 7.28366L6.99996 7.94199C6.90829 8.03366 6.86663 8.14199 6.86663 8.27533C6.86663 8.34199 6.87496 8.40033 6.89163 8.46699C6.91663 8.53366 6.94163 8.58366 6.95829 8.63366C7.10829 8.90866 7.36663 9.26699 7.73329 9.70033C8.10829 10.1337 8.50829 10.5753 8.94163 11.017C9.02496 11.1003 9.11663 11.1837 9.19996 11.267C9.53329 11.592 9.54163 12.1253 9.20829 12.4587Z" fill="white"/>
<path d="M18.3083 15.2752C18.3083 15.5085 18.2667 15.7502 18.1833 15.9835C18.1583 16.0502 18.1333 16.1169 18.1 16.1835C17.9583 16.4835 17.775 16.7669 17.5333 17.0335C17.125 17.4835 16.675 17.8085 16.1667 18.0169C16.1583 18.0169 16.15 18.0252 16.1417 18.0252C15.65 18.2252 15.1167 18.3335 14.5417 18.3335C13.6917 18.3335 12.7833 18.1335 11.825 17.7252C10.8667 17.3169 9.90833 16.7669 8.95833 16.0752C8.63333 15.8335 8.30833 15.5919 8 15.3335L10.725 12.6085C10.9583 12.7835 11.1667 12.9169 11.3417 13.0085C11.3833 13.0252 11.4333 13.0502 11.4917 13.0752C11.5583 13.1002 11.625 13.1085 11.7 13.1085C11.8417 13.1085 11.95 13.0585 12.0417 12.9669L12.675 12.3419C12.8833 12.1335 13.0833 11.9752 13.275 11.8752C13.4667 11.7585 13.6583 11.7002 13.8667 11.7002C14.025 11.7002 14.1917 11.7335 14.375 11.8085C14.5583 11.8835 14.75 11.9919 14.9583 12.1335L17.7167 14.0919C17.9333 14.2419 18.0833 14.4169 18.175 14.6252C18.2583 14.8335 18.3083 15.0419 18.3083 15.2752Z" fill="white"/>
</svg>
