<svg width="218" height="45" viewBox="0 0 218 45" fill="none" xmlns="http://www.w3.org/2000/svg">
<path d="M30.66 0.357215C40.125 -1.59794 46.3101 4.67574 44.4852 14.2117C44.0039 16.7261 42.8237 19.0679 42.531 21.6111C42.3285 23.3715 42.721 25.117 43.4803 27.0516C44.4804 29.5998 44.8812 32.6249 44.657 35.365C44.1048 42.1122 38.2232 45.859 30.8719 44.3904C28.4768 43.9119 26.1999 42.8636 23.8269 42.2361C22.9305 41.9992 21.7935 41.9291 20.9725 42.2732C17.2721 43.8242 13.5102 45.0582 9.45782 44.5242C6.83414 44.1784 4.78727 43.1388 2.80645 40.8602C-1.46582 35.945 -0.0491327 30.9915 1.75469 26.0799C2.75353 23.3601 2.84307 21.2198 1.73614 18.5545C1.54094 18.0845 1.37811 17.6 1.23907 17.1053C0.0385962 12.8333 -0.463981 7.88626 2.06915 4.24295C4.49197 0.758539 8.88996 -0.662286 14.1482 0.347449C16.9685 0.889201 19.6521 2.86289 22.3992 2.866C25.1482 2.86884 27.84 0.939946 30.66 0.357215ZM174.179 10.3621C174.401 10.3616 174.581 10.5414 174.582 10.7635L174.655 32.2674C174.669 36.2706 173.621 39.2845 171.515 41.3094C169.44 43.3661 166.161 44.4027 161.677 44.4178L158.62 44.4275C158.398 44.4281 158.218 44.2484 158.217 44.0262L158.206 40.7967C158.205 40.5743 158.385 40.3931 158.607 40.3924L161.23 40.3836C166.908 40.3645 169.964 38.1907 170.397 33.8621C170.421 33.6311 170.235 33.4358 170.003 33.4363L166.396 33.448C162.2 33.4621 159.331 32.7354 157.789 31.2674C156.279 29.7992 155.516 26.8074 155.501 22.2918L155.462 10.8279C155.461 10.6058 155.641 10.4256 155.863 10.4246L159.286 10.4129C159.508 10.4123 159.689 10.592 159.689 10.8143L159.729 22.4695C159.738 25.0637 160.144 26.8722 160.948 27.8943C161.752 28.9164 163.227 29.424 165.373 29.4168L170.015 29.4012C170.237 29.4004 170.417 29.2192 170.416 28.9969L170.354 10.7781C170.354 10.5558 170.534 10.3748 170.756 10.3738L174.179 10.3621ZM35.781 3.7117C32.5511 3.22351 29.4905 3.87124 26.5896 5.22635C29.5387 7.94034 32.474 10.456 35.1853 13.1922C37.6177 15.6467 37.5087 15.7541 35.5086 18.9139C31.2645 13.8296 26.7387 9.11393 20.4266 6.07791C17.1576 4.55437 13.815 3.31611 10.117 3.59159C6.38023 3.87013 3.80549 6.06875 3.73419 9.78592C3.6793 12.657 4.45764 15.5446 4.88262 18.5447C8.28494 15.0023 11.2172 11.8394 14.3035 8.83475C15.4307 7.73734 16.9416 7.63624 18.0496 8.75272C18.3068 9.01201 18.523 9.23712 18.6434 9.36698C18.233 9.85187 17.8357 10.2426 17.3953 10.6941C15.9529 12.1366 14.5284 13.56 12.8484 15.24C11.9088 16.1797 11.1399 16.949 10.2605 17.9715C6.55446 21.9884 4.2206 27.0565 3.64727 32.6883C3.2384 36.7061 4.92352 39.8264 8.18047 40.7283C11.7451 41.7151 15.1316 40.9033 18.5809 39.3475C16.8654 37.9749 15.3085 36.8255 13.866 35.5477C12.4138 34.2612 11.0257 32.892 9.69708 31.4773C7.41043 29.0425 7.42651 28.7186 9.51153 25.8201C9.99049 26.4065 10.4508 26.9794 10.9207 27.5437C14.6914 32.0719 19.081 35.8584 24.3631 38.5203C27.8002 40.2524 31.3886 41.4932 35.3377 41.031C38.5877 40.6506 40.819 38.4656 41.2049 35.2381C41.5757 32.1353 40.8468 29.2252 39.6492 26.4666C36.8412 29.4622 34.1962 32.4673 31.3475 35.2644C29.039 37.531 28.7006 37.4214 26.4734 35.6814C29.9826 31.5835 33.7443 27.6426 36.9607 23.2986C39.7848 19.4845 41.4864 15.0472 41.2566 10.1219C41.0974 6.71218 38.9816 4.19565 35.781 3.7117ZM77.0467 0.118934C77.2691 0.118184 77.4502 0.297889 77.451 0.520301L77.5603 32.9402C77.5618 33.3851 77.2024 33.7473 76.7576 33.7488L66.2732 33.784C62.7826 33.7956 59.9447 32.7001 57.7596 30.4978C55.5742 28.2633 54.4751 25.4484 54.4637 22.0535C54.4524 18.7228 55.5644 15.9328 57.7986 13.6834C60.0649 11.4018 62.7516 10.2554 65.8582 10.2449C67.7643 10.2385 69.5543 10.6757 71.2273 11.5555C71.3564 11.6236 71.4357 11.7582 71.4363 11.9041L71.4471 15.2049C71.4482 15.5331 71.0741 15.7288 70.7918 15.5613C69.3425 14.7013 67.7026 14.2739 65.8719 14.2801C63.9504 14.2866 62.3195 15.0132 60.9793 16.4588C59.671 17.8723 59.0204 19.7321 59.0281 22.0379C59.036 24.3758 59.667 26.2472 60.9207 27.6521C62.2065 29.057 63.9866 29.7565 66.2605 29.7488L72.823 29.7264C73.0455 29.7256 73.2252 29.5445 73.2244 29.3221L73.1277 0.534949C73.127 0.312538 73.3067 0.131402 73.5291 0.130652L77.0467 0.118934ZM210.539 9.76053C213.241 9.75143 215.657 10.5492 217.789 12.1531C217.979 12.2959 217.995 12.573 217.829 12.743L215.562 15.0633C215.421 15.2084 215.194 15.2248 215.026 15.1102C213.741 14.2286 212.25 13.791 210.553 13.7967C208.343 13.8042 206.584 14.5466 205.276 16.0242C204 17.4697 203.366 19.3937 203.374 21.7957C203.382 24.1975 204.029 26.1325 205.315 27.6014C206.633 29.0381 208.397 29.7533 210.606 29.7459C212.329 29.7401 213.803 29.3081 215.027 28.45C215.192 28.3346 215.417 28.3455 215.562 28.4861L217.88 30.7508C218.051 30.9187 218.039 31.199 217.848 31.3445C215.728 32.9597 213.319 33.772 210.62 33.781C207.065 33.793 204.211 32.6658 202.058 30.3992C199.904 28.1005 198.821 25.2372 198.81 21.8103C198.798 18.4477 199.911 15.6101 202.145 13.2967C204.41 10.9511 207.208 9.77185 210.539 9.76053ZM89.5867 10.6502C92.6933 10.6397 95.0821 11.3998 96.7527 12.9314C98.4233 14.4631 99.2635 16.6703 99.2732 19.5525L99.3191 33.2742C99.3198 33.4965 99.1401 33.6778 98.9178 33.6785L88.6072 33.7127C85.8851 33.7218 83.7214 33.1206 82.116 31.909C80.5106 30.6974 79.704 28.9227 79.6961 26.5848C79.6882 24.2468 80.5311 22.4667 82.2244 21.2439C83.9177 20.0212 86.0452 19.4049 88.6072 19.3963C89.9648 19.3917 91.4086 19.6147 92.9383 20.0643C93.107 20.1138 93.2217 20.2693 93.2225 20.4451L93.2332 23.659C93.2343 23.9924 92.8473 24.1897 92.5584 24.0232C91.4765 23.3997 90.2118 23.0907 88.7644 23.0955C87.2592 23.1006 86.0912 23.409 85.2605 24.0203C84.4298 24.5996 84.0157 25.4333 84.0193 26.5223C84.0265 28.636 85.5995 29.6871 88.7381 29.6766L94.6766 29.657C94.899 29.6563 95.0787 29.4751 95.0779 29.2527L95.0486 20.4803C95.0356 16.605 93.1393 14.6736 89.3602 14.6863L82.076 14.7107C81.8538 14.7113 81.6735 14.5316 81.6727 14.3094L81.6619 11.0789C81.6614 10.8568 81.8402 10.6766 82.0623 10.6756L89.5867 10.6502ZM107.143 6.7117C107.395 6.45715 107.83 6.63515 107.831 6.99393L107.842 10.1824C107.843 10.4048 108.024 10.5845 108.246 10.5838L113.926 10.5652C114.148 10.5645 114.329 10.7442 114.33 10.9666L114.341 14.1961C114.342 14.4185 114.162 14.5996 113.939 14.6004L108.26 14.6199C108.037 14.6207 107.858 14.801 107.858 15.0232L107.89 24.5174C107.893 25.6381 108.073 26.5662 108.428 27.3016C108.815 28.0368 109.361 28.5637 110.066 28.8816C110.772 29.1675 111.429 29.3569 112.038 29.451C112.584 29.531 113.235 29.5762 113.99 29.5857C114.212 29.5887 114.394 29.7678 114.395 29.99L114.405 33.2205C114.406 33.4428 114.225 33.6243 114.003 33.6219C110.524 33.5836 107.934 32.8884 106.232 31.5369C104.466 30.1337 103.577 27.7986 103.566 24.532L103.534 15.0379C103.533 14.8157 103.353 14.636 103.131 14.6365L100.229 14.6463C99.8707 14.6473 99.6894 14.2143 99.9422 13.9598L107.143 6.7117ZM125.247 10.5291C128.354 10.5186 130.743 11.2787 132.413 12.8103C134.084 14.342 134.924 16.5492 134.934 19.4314L134.979 33.1531C134.98 33.3754 134.8 33.5567 134.578 33.5574L124.268 33.5916C121.545 33.6007 119.382 32.9995 117.776 31.7879C116.171 30.5763 115.364 28.8016 115.356 26.4637C115.349 24.1257 116.191 22.3456 117.885 21.1228C119.578 19.9002 121.706 19.2839 124.268 19.2752C125.625 19.2706 127.069 19.4936 128.599 19.9432C128.767 19.9928 128.882 20.1482 128.883 20.324L128.894 23.5379C128.895 23.8713 128.508 24.0687 128.219 23.9021C127.137 23.2786 125.872 22.9696 124.425 22.9744C122.92 22.9795 121.752 23.2879 120.921 23.8992C120.09 24.4785 119.676 25.3123 119.68 26.4012C119.687 28.5149 121.26 29.566 124.398 29.5555L130.337 29.5359C130.559 29.5352 130.739 29.354 130.738 29.1316L130.709 20.3592C130.696 16.4839 128.8 14.5525 125.021 14.5652L117.736 14.5896C117.514 14.5902 117.334 14.4105 117.333 14.1883L117.322 10.9578C117.322 10.7357 117.501 10.5555 117.723 10.5545L125.247 10.5291ZM152.896 10.4344C153.118 10.4336 153.299 10.6135 153.3 10.8357L153.311 14.0662C153.311 14.2885 153.132 14.4697 152.909 14.4705L144.809 14.4978C143.88 14.501 143.08 14.6794 142.408 15.034C141.737 15.3885 141.402 15.8859 141.404 16.5262C141.406 16.9105 141.487 17.2631 141.648 17.5828C141.81 17.8705 141.987 18.1101 142.18 18.3016C142.405 18.4929 142.726 18.7 143.143 18.9227C143.591 19.1132 143.928 19.2561 144.152 19.3514C144.409 19.4146 145.435 19.7321 147.23 20.3025C149.026 20.8729 150.357 21.3489 151.223 21.7303C152.088 22.1116 152.747 22.6375 153.197 23.3084C153.68 23.9473 153.987 24.5872 154.117 25.2273C154.247 25.8353 154.313 26.4441 154.315 27.0525C154.33 31.3439 151.39 33.4995 145.497 33.5193L137.589 33.5457C137.367 33.5464 137.185 33.3667 137.185 33.1443L137.174 29.9148C137.173 29.6925 137.353 29.5114 137.575 29.5105L145.483 29.4842C148.494 29.474 149.997 28.6676 149.991 27.0662C149.988 26.2978 149.538 25.6585 148.64 25.1492C147.882 24.7034 146.964 24.32 145.888 23.9978L144.476 23.5936C143.532 23.3145 142.579 23.0086 141.617 22.6756C140.367 22.1995 139.292 21.4501 138.392 20.4285C137.523 19.3745 137.086 18.0781 137.081 16.5408C137.075 14.5873 137.822 13.0961 139.324 12.0662C140.826 11.0043 142.649 10.469 144.795 10.4617L152.896 10.4344ZM185.781 10.323C189.336 10.3111 191.885 10.8309 193.426 11.8826C194.806 12.8067 195.675 13.9252 196.031 15.2371C196.42 16.5168 196.618 18.2134 196.625 20.3269L196.667 32.9432C196.668 33.1656 196.488 33.3467 196.266 33.3475L192.844 33.3592C192.621 33.3599 192.44 33.1802 192.439 32.9578L192.397 20.3894C192.396 19.8133 192.378 19.3331 192.345 18.949C192.311 18.5329 192.197 18.0206 192.003 17.4129C191.809 16.773 191.534 16.2609 191.181 15.8777C190.827 15.4628 190.314 15.1119 189.641 14.826C188.967 14.508 188.149 14.3511 187.188 14.3543L182.114 14.3709C181.892 14.3718 181.712 14.5529 181.713 14.7752L181.774 32.9939C181.775 33.2163 181.595 33.3975 181.373 33.3982L177.951 33.409C177.729 33.4097 177.548 33.23 177.547 33.0076L177.472 10.7537C177.471 10.5316 177.651 10.3513 177.873 10.3504L185.781 10.323ZM22.4568 19.367C24.0803 19.367 25.3961 20.683 25.3963 22.3064C25.3963 23.9301 24.0804 25.2459 22.4568 25.2459C20.8334 25.2457 19.5174 23.9299 19.5174 22.3064C19.5176 20.6831 20.8335 19.3672 22.4568 19.367Z" fill="url(#paint0_linear_1_577)"/>
<defs>
<linearGradient id="paint0_linear_1_577" x1="20.5329" y1="3.48642" x2="33.5463" y2="71.2156" gradientUnits="userSpaceOnUse">
<stop stop-color="#E5A9E7"/>
<stop offset="1" stop-color="#7182F2"/>
</linearGradient>
</defs>
</svg>
