<svg width="21" height="21" viewBox="0 0 21 21" fill="none" xmlns="http://www.w3.org/2000/svg">
<path d="M18.0425 7.39375C17.1237 3.35125 13.5975 1.53125 10.5 1.53125C10.5 1.53125 10.5 1.53125 10.4912 1.53125C7.40246 1.53125 3.86746 3.3425 2.94871 7.385C1.92496 11.9 4.68996 15.7237 7.19246 18.13C8.11996 19.0225 9.30996 19.4688 10.5 19.4688C11.69 19.4688 12.88 19.0225 13.7987 18.13C16.3012 15.7237 19.0662 11.9087 18.0425 7.39375ZM10.5 11.7775C8.97746 11.7775 7.74371 10.5438 7.74371 9.02125C7.74371 7.49875 8.97746 6.265 10.5 6.265C12.0225 6.265 13.2562 7.49875 13.2562 9.02125C13.2562 10.5438 12.0225 11.7775 10.5 11.7775Z" fill="white"/>
</svg>
