<svg width="22" height="22" viewBox="0 0 22 22" fill="none" xmlns="http://www.w3.org/2000/svg">
<path d="M15.5834 3.20801H6.41671C3.66671 3.20801 1.83337 4.58301 1.83337 7.79134V14.208C1.83337 17.4163 3.66671 18.7913 6.41671 18.7913H15.5834C18.3334 18.7913 20.1667 17.4163 20.1667 14.208V7.79134C20.1667 4.58301 18.3334 3.20801 15.5834 3.20801ZM16.0142 8.79051L13.145 11.0822C12.54 11.568 11.77 11.8063 11 11.8063C10.23 11.8063 9.45087 11.568 8.85504 11.0822L5.98587 8.79051C5.69254 8.55217 5.64671 8.11217 5.87587 7.81884C6.11421 7.52551 6.54504 7.47051 6.83837 7.70884L9.70754 10.0005C10.4042 10.5597 11.5867 10.5597 12.2834 10.0005L15.1525 7.70884C15.4459 7.47051 15.8859 7.51634 16.115 7.81884C16.3534 8.11217 16.3075 8.55217 16.0142 8.79051Z" fill="white"/>
</svg>
