<svg width="182" height="50" viewBox="0 0 182 50" fill="none" xmlns="http://www.w3.org/2000/svg">
<path d="M28.5004 49.8143C56.3622 45.8341 56.3628 4.22838 28.5005 0.248046C45.2464 12.2673 45.2011 37.7899 28.5004 49.8143Z" fill="#007DFC"/>
<path d="M17.4721 48.8229C19.2069 49.3805 20.9417 49.7523 22.8004 49.8762C37.1992 36.6663 37.2086 13.3315 22.8005 0.124023C20.9417 0.309896 19.1449 0.681644 17.4721 1.17731C29.5684 14.457 29.5645 35.5476 17.4721 48.8229Z" fill="#007DFC"/>
<path d="M11.0282 45.7248C22.772 34.6408 22.8835 15.393 11.0282 4.33691C-3.44124 13.9832 -3.44733 36.0744 11.0282 45.7248Z" fill="#007DFC"/>
<path d="M77.431 16.9868C72.936 16.9868 70.363 20.2418 70.363 25.1398C70.363 30.1928 73.277 32.9518 77.462 32.9518C81.399 32.9518 83.786 30.7818 83.786 27.1548V27.0618H76.935V23.5588H87.475V36.2998H84.127L83.879 33.6958C82.639 35.4318 80.066 36.6408 76.997 36.6408C70.642 36.6408 66.209 32.0218 66.209 25.0468C66.209 18.1648 70.704 13.2668 77.524 13.2668C82.701 13.2668 86.7 16.2738 87.351 20.8928H83.166C82.453 18.2268 80.159 16.9868 77.431 16.9868ZM100.812 20.9238V24.4268H99.417C96.689 24.4268 94.984 25.8838 94.984 28.8598V36.2998H91.202V21.0168H94.767L94.984 23.2488C95.635 21.7298 97.092 20.7068 99.138 20.7068C99.665 20.7068 100.192 20.7688 100.812 20.9238ZM107.323 36.7028C104.068 36.7028 102.084 34.8118 102.084 31.9288C102.084 29.1078 104.13 27.3408 107.757 27.0618L112.345 26.7208V26.3798C112.345 24.3028 111.105 23.4658 109.183 23.4658C106.951 23.4658 105.711 24.3958 105.711 26.0078H102.487C102.487 22.6908 105.215 20.5208 109.369 20.5208C113.492 20.5208 116.034 22.7528 116.034 26.9998V36.2998H112.717L112.438 34.0368C111.787 35.6178 109.71 36.7028 107.323 36.7028ZM108.563 33.8508C110.888 33.8508 112.376 32.4558 112.376 30.0998V29.2938L109.183 29.5418C106.827 29.7588 105.928 30.5338 105.928 31.7738C105.928 33.1688 106.858 33.8508 108.563 33.8508ZM119.75 43.3988V20.9858H123.253L123.501 23.3108C124.431 21.5438 126.446 20.5208 128.771 20.5208C133.08 20.5208 135.932 23.6518 135.932 28.4568C135.932 33.2308 133.328 36.7028 128.771 36.7028C126.477 36.7028 124.493 35.8038 123.532 34.2538V43.3988H119.75ZM123.563 28.6428C123.563 31.4018 125.268 33.2928 127.872 33.2928C130.538 33.2928 132.119 31.3708 132.119 28.6428C132.119 25.9148 130.538 23.9618 127.872 23.9618C125.268 23.9618 123.563 25.8838 123.563 28.6428ZM142.725 36.2998H138.943V13.2358H142.756V22.9698C143.717 21.4818 145.515 20.5208 147.716 20.5208C151.498 20.5208 153.482 22.9078 153.482 26.8758V36.2998H149.7V27.7748C149.7 25.2018 148.429 23.9618 146.507 23.9618C144.12 23.9618 142.725 25.6358 142.725 27.9298V36.2998ZM156.299 28.6118C156.299 23.8378 159.74 20.5518 164.483 20.5518C169.226 20.5518 172.667 23.8378 172.667 28.6118C172.667 33.3858 169.226 36.6718 164.483 36.6718C159.74 36.6718 156.299 33.3858 156.299 28.6118ZM160.081 28.6118C160.081 31.4018 161.879 33.2928 164.483 33.2928C167.087 33.2928 168.885 31.4018 168.885 28.6118C168.885 25.8218 167.087 23.9308 164.483 23.9308C161.879 23.9308 160.081 25.8218 160.081 28.6118Z" fill="#1D1F17"/>
</svg>
