<svg width="287" height="170" viewBox="0 0 287 170" fill="none" xmlns="http://www.w3.org/2000/svg">
<rect width="261.192" height="169.377" rx="15" fill="url(#paint0_linear_118_4809)"/>
<rect x="14.5977" y="15.6641" width="112.236" height="37.8118" rx="5" fill="white"/>
<rect x="134.357" y="15.6641" width="112.236" height="37.8118" rx="5" fill="white"/>
<rect x="14.5977" y="65.8193" width="231.996" height="87.8943" rx="5" fill="white"/>
<path d="M283.925 20.2466C283.635 20.2412 283.376 20.5006 283.381 20.7906L283.396 40.4424H275.782L275.768 20.7906C275.768 20.4916 275.523 20.2466 275.224 20.2466H272.186L279.572 12.8601L286.959 20.2466H283.92H283.925Z" fill="#577DEA"/>
<path d="M129.286 63.9046C129.586 62.9833 130.889 62.9833 131.188 63.9046L133.548 71.1662C133.682 71.5782 134.066 71.8572 134.499 71.8572H142.134C143.103 71.8572 143.506 73.0968 142.722 73.6662L136.545 78.1541C136.194 78.4088 136.048 78.8601 136.182 79.2722L138.541 86.5338C138.84 87.4551 137.786 88.2212 137.002 87.6518L130.825 83.1639C130.475 82.9093 130 82.9093 129.65 83.1639L123.472 87.6518C122.689 88.2212 121.634 87.4551 121.934 86.5338L124.293 79.2722C124.427 78.8601 124.28 78.4088 123.93 78.1541L117.753 73.6662C116.969 73.0968 117.372 71.8572 118.34 71.8572H125.976C126.409 71.8572 126.793 71.5782 126.927 71.1662L129.286 63.9046Z" fill="#577DEA"/>
<path d="M164.681 51.139C164.98 50.2177 166.284 50.2177 166.583 51.139L167.653 54.4329C167.787 54.845 168.171 55.1239 168.604 55.1239H172.068C173.037 55.1239 173.439 56.3635 172.656 56.9329L169.854 58.9687C169.503 59.2234 169.357 59.6747 169.49 60.0868L170.561 63.3807C170.86 64.3021 169.806 65.0682 169.022 64.4988L166.22 62.463C165.869 62.2083 165.395 62.2083 165.044 62.463L162.242 64.4988C161.459 65.0682 160.404 64.3021 160.703 63.3807L161.774 60.0868C161.908 59.6747 161.761 59.2234 161.41 58.9687L158.608 56.9329C157.825 56.3635 158.227 55.1239 159.196 55.1239H162.66C163.093 55.1239 163.477 54.845 163.611 54.4329L164.681 51.139Z" fill="#577DEA"/>
<path d="M93.6136 79.2923C93.9129 78.371 95.2163 78.371 95.5157 79.2923L95.7096 79.8891C95.8435 80.3011 96.2274 80.5801 96.6606 80.5801H97.2882C98.2569 80.5801 98.6597 81.8197 97.8759 82.3891L97.3683 82.7579C97.0178 83.0126 96.8711 83.4639 97.005 83.876L97.1989 84.4728C97.4983 85.3941 96.4438 86.1602 95.6601 85.5908L95.1524 85.222C94.8019 84.9673 94.3273 84.9673 93.9768 85.222L93.4692 85.5908C92.6854 86.1602 91.631 85.3941 91.9303 84.4728L92.1242 83.876C92.2581 83.4639 92.1114 83.0126 91.761 82.7579L91.2533 82.3891C90.4696 81.8197 90.8723 80.5801 91.8411 80.5801H92.4686C92.9018 80.5801 93.2858 80.3011 93.4196 79.8891L93.6136 79.2923Z" fill="#577DEA"/>
<defs>
<linearGradient id="paint0_linear_118_4809" x1="130.596" y1="0" x2="130.596" y2="103.838" gradientUnits="userSpaceOnUse">
<stop stop-color="#E0E4FF"/>
<stop offset="1" stop-color="#EEF0FE" stop-opacity="0"/>
</linearGradient>
</defs>
</svg>
