<svg width="249" height="178" viewBox="0 0 249 178" fill="none" xmlns="http://www.w3.org/2000/svg">
<g opacity="0.3">
<path d="M124.262 176.983L17 115.055L124.262 53.127L231.524 115.055L124.262 176.983Z" stroke="white" stroke-width="1.5"/>
<path d="M124.262 176.983L17 115.055L124.262 53.127L231.524 115.055L124.262 176.983Z" stroke="white" stroke-width="1.5"/>
<path d="M124.262 176.983L17 115.055L124.262 53.127L231.524 115.055L124.262 176.983Z" stroke="white" stroke-width="1.5"/>
</g>
<g opacity="0.5">
<path d="M124.262 149.925L17 87.997L124.262 26.0693L231.524 87.997L124.262 149.925Z" stroke="white" stroke-width="1.5"/>
<path d="M124.262 149.925L17 87.997L124.262 26.0693L231.524 87.997L124.262 149.925Z" stroke="white" stroke-width="1.5"/>
<path d="M124.262 149.925L17 87.997L124.262 26.0693L231.524 87.997L124.262 149.925Z" stroke="white" stroke-width="1.5"/>
</g>
<g filter="url(#filter0_d_118_4785)">
<path d="M124.262 125.588L17 63.6601L124.262 1.73242L231.524 63.6601L124.262 125.588Z" fill="url(#paint0_linear_118_4785)" shape-rendering="crispEdges"/>
<path d="M124.262 125.588L17 63.6601L124.262 1.73242L231.524 63.6601L124.262 125.588Z" stroke="white" stroke-width="3" shape-rendering="crispEdges"/>
<path d="M124.262 125.588L17 63.6601L124.262 1.73242L231.524 63.6601L124.262 125.588Z" stroke="white" stroke-width="3" shape-rendering="crispEdges"/>
<path d="M124.262 125.588L17 63.6601L124.262 1.73242L231.524 63.6601L124.262 125.588Z" stroke="url(#paint1_linear_118_4785)" stroke-width="3" shape-rendering="crispEdges"/>
</g>
<circle cx="125.49" cy="58.3088" r="21.927" fill="white"/>
<path fill-rule="evenodd" clip-rule="evenodd" d="M113.283 59.0588V56.5155C113.281 56.1844 113.518 55.8972 113.845 55.838L115.298 55.5749V55.5727C115.568 55.5333 115.787 55.3403 115.859 55.0794C116.072 54.3164 116.373 53.5797 116.752 52.8847C116.888 52.6566 116.875 52.3694 116.719 52.1545L115.881 50.9377C115.697 50.6724 115.719 50.315 115.938 50.0782L117.734 48.2869C117.964 48.0458 118.337 48.0107 118.611 48.2036L119.867 49.0236C120.082 49.1793 120.369 49.1924 120.597 49.0565C121.288 48.664 122.025 48.3593 122.792 48.1466C123.055 48.0786 123.25 47.8572 123.286 47.5853L123.533 46.1492C123.593 45.8225 123.88 45.5857 124.211 45.5879H126.75C127.081 45.5857 127.368 45.8225 127.427 46.1492L127.69 47.5962H127.692C127.725 47.8681 127.923 48.0896 128.186 48.1575C128.951 48.3702 129.69 48.675 130.381 49.0674C130.609 49.2034 130.896 49.1902 131.111 49.0345L132.33 48.1926H132.328C132.604 48.0019 132.977 48.037 133.209 48.2759L135.022 50.0782C135.261 50.3128 135.294 50.6855 135.101 50.9596L134.266 52.1721H134.264C134.112 52.3782 134.088 52.6544 134.202 52.8846C134.595 53.5775 134.902 54.3142 135.119 55.0794C135.191 55.3403 135.41 55.5332 135.68 55.5727L137.134 55.8358V55.838C137.46 55.8972 137.697 56.1844 137.695 56.5154V59.0587C137.697 59.392 137.46 59.6771 137.134 59.7384L135.68 60.0015C135.41 60.0366 135.189 60.2295 135.119 60.4904C134.902 61.2556 134.597 61.9945 134.209 62.6896C134.073 62.9176 134.086 63.2048 134.242 63.4197L135.077 64.6322H135.079C135.274 64.8997 135.25 65.268 135.022 65.507L133.226 67.3027V67.3049C132.992 67.5417 132.621 67.5746 132.349 67.3816L131.093 66.5397C130.878 66.3862 130.593 66.373 130.363 66.5068C129.67 66.8992 128.933 67.2062 128.168 67.4211C127.905 67.4912 127.71 67.7127 127.675 67.9824L127.412 69.4294V69.4316C127.35 69.7583 127.065 69.9951 126.732 69.9929H124.211C123.88 69.9951 123.592 69.7583 123.533 69.4316L123.27 67.9845L123.268 67.9824C123.235 67.7127 123.038 67.4912 122.775 67.4211C122.009 67.2062 121.273 66.8992 120.58 66.5068C120.35 66.3774 120.063 66.3906 119.845 66.5397L118.633 67.3816C118.361 67.5746 117.991 67.5417 117.756 67.3049L115.938 65.507C115.699 65.2724 115.666 64.8997 115.859 64.6278L116.695 63.4153H116.697C116.85 63.2005 116.866 62.9154 116.736 62.6852C116.344 61.9902 116.037 61.2513 115.82 60.4839C115.75 60.223 115.528 60.03 115.259 59.9971L113.805 59.734V59.7318C113.496 59.6573 113.279 59.3767 113.283 59.0588ZM118.896 57.7893C118.898 60.9246 121.115 63.6217 124.191 64.2329C127.265 64.8424 130.343 63.1936 131.543 60.2973C132.742 57.401 131.727 54.0598 129.12 52.3186C126.513 50.5778 123.038 50.9198 120.821 53.1364C119.589 54.3686 118.899 56.0415 118.903 57.7846L118.896 57.7893ZM125.48 63.286C128.105 63.286 130.363 61.4311 130.874 58.8571C131.387 56.2831 130.01 53.7069 127.585 52.7026C125.16 51.6984 122.364 52.547 120.907 54.7285C119.449 56.9101 119.736 59.8196 121.591 61.6745C122.621 62.7071 124.02 63.2882 125.48 63.286Z" fill="#7282F2"/>
<defs>
<filter id="filter0_d_118_4785" x="0" y="0" width="248.523" height="155.32" filterUnits="userSpaceOnUse" color-interpolation-filters="sRGB">
<feFlood flood-opacity="0" result="BackgroundImageFix"/>
<feColorMatrix in="SourceAlpha" type="matrix" values="0 0 0 0 0 0 0 0 0 0 0 0 0 0 0 0 0 0 127 0" result="hardAlpha"/>
<feOffset dy="14"/>
<feGaussianBlur stdDeviation="7"/>
<feComposite in2="hardAlpha" operator="out"/>
<feColorMatrix type="matrix" values="0 0 0 0 0 0 0 0 0 0 0 0 0 0 0 0 0 0 0.03 0"/>
<feBlend mode="normal" in2="BackgroundImageFix" result="effect1_dropShadow_118_4785"/>
<feBlend mode="normal" in="SourceGraphic" in2="effect1_dropShadow_118_4785" result="shape"/>
</filter>
<linearGradient id="paint0_linear_118_4785" x1="124.262" y1="1.73242" x2="124.262" y2="125.588" gradientUnits="userSpaceOnUse">
<stop stop-color="white"/>
<stop offset="1" stop-color="white" stop-opacity="0"/>
</linearGradient>
<linearGradient id="paint1_linear_118_4785" x1="124.262" y1="1.73242" x2="124.262" y2="125.588" gradientUnits="userSpaceOnUse">
<stop stop-color="#446EE8" stop-opacity="0"/>
<stop offset="1" stop-color="#446EE8"/>
</linearGradient>
</defs>
</svg>
