<svg width="304" height="185" viewBox="0 0 304 185" fill="none" xmlns="http://www.w3.org/2000/svg">
<path d="M302.999 45.8749C303.649 45.3611 303.759 44.4177 303.245 43.7679L294.872 33.1783C294.358 32.5285 293.415 32.4182 292.765 32.932C292.115 33.4458 292.005 34.3892 292.519 35.039L299.962 44.452L290.549 51.8948C289.899 52.4086 289.789 53.3519 290.303 54.0018C290.816 54.6516 291.76 54.7619 292.41 54.2481L302.999 45.8749ZM1.43555 165.687L2.87161 166.12C6.31537 154.706 10.638 135.813 19.3537 119.676C28.0448 103.585 40.8783 90.6559 61.1883 90.6559V89.1559V87.6559C39.2856 87.6559 25.6451 101.715 16.7141 118.251C7.8078 134.741 3.36036 154.114 -0.000514865 165.253L1.43555 165.687ZM61.1883 89.1559V90.6559C71.2076 90.6559 78.7646 95.1677 85.2233 102.134C91.733 109.155 97.0203 118.55 102.491 128.163C107.916 137.696 113.519 147.436 120.602 154.771C127.737 162.159 136.449 167.187 148.061 167.187V165.687V164.187C137.459 164.187 129.482 159.648 122.76 152.687C115.986 145.672 110.561 136.279 105.098 126.679C99.6807 117.16 94.218 107.422 87.4232 100.094C80.5773 92.7103 72.2754 87.6559 61.1883 87.6559V89.1559ZM148.061 165.687V167.187C155.137 167.187 160.354 164.845 164.278 160.718C168.141 156.655 170.65 150.969 172.6 144.457C174.551 137.94 175.996 130.394 177.613 122.541C179.237 114.653 181.044 106.401 183.726 98.3173C189.083 82.1748 197.893 66.8137 215.572 56.6368C233.293 46.4359 260.155 41.3094 301.895 46.1881L302.069 44.6983L302.243 43.2084C260.168 38.2905 232.572 43.3893 214.075 54.0368C195.537 64.7083 186.372 80.8188 180.879 97.3725C178.137 105.637 176.301 114.039 174.675 121.936C173.042 129.869 171.629 137.241 169.726 143.597C167.821 149.958 165.479 155.102 162.104 158.651C158.791 162.135 154.383 164.187 148.061 164.187V165.687Z" fill="url(#paint0_linear_118_4803)"/>
<line x1="259.344" y1="2.18557e-08" x2="259.344" y2="184.315" stroke="#5C80EB" stroke-dasharray="5 5"/>
<circle cx="258.845" cy="42.8254" r="9.60083" fill="white"/>
<circle cx="258.844" cy="42.8252" r="5.95508" fill="#5C80EB"/>
<defs>
<linearGradient id="paint0_linear_118_4803" x1="269.198" y1="-3.7302" x2="25.6457" y2="148.573" gradientUnits="userSpaceOnUse">
<stop stop-color="#5C80EB"/>
<stop offset="1" stop-color="white"/>
</linearGradient>
</defs>
</svg>
