<svg width="192" height="139" viewBox="0 0 192 139" fill="none" xmlns="http://www.w3.org/2000/svg">
<path d="M69.1132 134.365C23.3604 135.238 -9.52762 85.5242 9.01341 43.765C23.5539 6.64018 73.4666 -8.06675 105.776 15.204L102.425 18.5872C101.867 19.1457 101.719 19.9674 102.014 20.6927C102.309 21.4181 103.016 21.8932 103.805 21.8932H114.847C115.913 21.8932 116.786 21.0201 116.786 19.9544V8.8101C116.837 7.13464 114.616 6.21662 113.467 7.44915L108.556 12.3986C63.8171 -19.5395 -0.698529 14.0999 0.0064972 69.1343C-0.731758 123.02 61.6018 156.993 106.502 127.244L103.69 124.432C93.335 130.922 81.4199 134.357 69.0943 134.357L69.1132 134.365Z" fill="url(#paint0_linear_118_4802)"/>
<rect x="26.5879" y="46.4014" width="143.628" height="91.8962" rx="15" fill="url(#paint1_linear_118_4802)"/>
<g filter="url(#filter0_d_118_4802)">
<circle cx="66.6812" cy="71.8198" r="8.31006" fill="#587EEA"/>
<line x1="66.3403" y1="77.2207" x2="77.5493" y2="93.1201" stroke="#587EEA"/>
<line x1="66.4316" y1="29.126" x2="66.4316" y2="67.1786" stroke="#587EEA"/>
</g>
<rect x="98.4043" y="55.3184" width="27.0391" height="17.1478" rx="5" fill="white"/>
<rect x="131.805" y="55.3184" width="27.0391" height="17.1478" rx="5" fill="white"/>
<rect x="98.4043" y="76.1113" width="60.4404" height="28.8317" rx="5" fill="white"/>
<path d="M188.32 69.9155C188.03 69.9209 187.77 69.6615 187.776 69.3715L187.79 49.7197H180.177L180.162 69.3715C180.162 69.6705 179.918 69.9155 179.619 69.9155H176.58L183.967 77.302L191.353 69.9155H188.315H188.32Z" fill="#577DEA"/>
<defs>
<filter id="filter0_d_118_4802" x="54.3711" y="29.126" width="27.5859" height="72.2822" filterUnits="userSpaceOnUse" color-interpolation-filters="sRGB">
<feFlood flood-opacity="0" result="BackgroundImageFix"/>
<feColorMatrix in="SourceAlpha" type="matrix" values="0 0 0 0 0 0 0 0 0 0 0 0 0 0 0 0 0 0 127 0" result="hardAlpha"/>
<feOffset dy="4"/>
<feGaussianBlur stdDeviation="2"/>
<feComposite in2="hardAlpha" operator="out"/>
<feColorMatrix type="matrix" values="0 0 0 0 0 0 0 0 0 0 0 0 0 0 0 0 0 0 0.05 0"/>
<feBlend mode="normal" in2="BackgroundImageFix" result="effect1_dropShadow_118_4802"/>
<feBlend mode="normal" in="SourceGraphic" in2="effect1_dropShadow_118_4802" result="shape"/>
</filter>
<linearGradient id="paint0_linear_118_4802" x1="58.3933" y1="0" x2="58.3933" y2="138.298" gradientUnits="userSpaceOnUse">
<stop stop-color="#446EE8"/>
<stop offset="1" stop-color="white"/>
</linearGradient>
<linearGradient id="paint1_linear_118_4802" x1="98.4021" y1="46.4014" x2="98.4021" y2="102.739" gradientUnits="userSpaceOnUse">
<stop stop-color="#E0E4FF"/>
<stop offset="1" stop-color="#EEF0FE" stop-opacity="0"/>
</linearGradient>
</defs>
</svg>
