<svg width="203" height="119" viewBox="0 0 203 119" fill="none" xmlns="http://www.w3.org/2000/svg">
<path d="M202.5 105.1V11.6H145.5L122.5 32.6H95L55 57.6H31L10.5 74.1H0V105.1H202.5Z" fill="url(#paint0_linear_34_151)"/>
<g filter="url(#filter0_d_34_151)">
<rect x="59.5" y="25.1" width="84" height="26" rx="13" fill="url(#paint1_linear_34_151)"/>
<rect x="60.5" y="26.1" width="82" height="24" rx="12" stroke="white" stroke-opacity="0.5" stroke-width="2"/>
</g>
<path d="M98.3963 34.8272V42.1H97.299V34.8272H98.3963ZM100.971 38.8613V42.1H99.9091V36.6454H100.928V37.5332H100.996C101.121 37.2444 101.318 37.0124 101.585 36.8372C101.855 36.662 102.195 36.5744 102.604 36.5744C102.976 36.5744 103.302 36.6525 103.581 36.8088C103.86 36.9627 104.077 37.1923 104.231 37.4977C104.385 37.8031 104.462 38.1807 104.462 38.6305V42.1H103.4V38.7584C103.4 38.363 103.297 38.054 103.091 37.8315C102.885 37.6066 102.602 37.4942 102.242 37.4942C101.996 37.4942 101.777 37.5474 101.585 37.654C101.396 37.7605 101.246 37.9167 101.134 38.1227C101.025 38.3263 100.971 38.5725 100.971 38.8613ZM109.973 37.9771L109.011 38.1476C108.97 38.0245 108.906 37.9073 108.819 37.796C108.734 37.6847 108.618 37.5936 108.471 37.5226C108.324 37.4515 108.141 37.416 107.92 37.416C107.62 37.416 107.369 37.4835 107.168 37.6184C106.966 37.751 106.866 37.9227 106.866 38.1334C106.866 38.3156 106.933 38.4624 107.068 38.5737C107.203 38.685 107.421 38.7761 107.722 38.8471L108.588 39.046C109.09 39.162 109.464 39.3407 109.71 39.5822C109.956 39.8237 110.08 40.1374 110.08 40.5233C110.08 40.85 109.985 41.1412 109.795 41.3969C109.608 41.6502 109.347 41.849 109.011 41.9934C108.677 42.1379 108.29 42.2101 107.849 42.2101C107.239 42.2101 106.74 42.0799 106.354 41.8194C105.969 41.5567 105.732 41.1838 105.644 40.7008L106.67 40.5446C106.734 40.8121 106.866 41.0145 107.065 41.1518C107.263 41.2868 107.523 41.3542 107.842 41.3542C108.19 41.3542 108.469 41.282 108.677 41.1376C108.885 40.9908 108.989 40.8121 108.989 40.6014C108.989 40.4309 108.925 40.2877 108.798 40.1717C108.672 40.0557 108.479 39.9681 108.219 39.9089L107.295 39.7065C106.786 39.5905 106.41 39.4058 106.166 39.1525C105.925 38.8992 105.804 38.5784 105.804 38.1902C105.804 37.8682 105.894 37.5865 106.074 37.345C106.254 37.1035 106.502 36.9153 106.82 36.7804C107.137 36.6431 107.5 36.5744 107.91 36.5744C108.499 36.5744 108.963 36.7022 109.302 36.9579C109.64 37.2112 109.864 37.551 109.973 37.9771ZM111.247 42.1V36.6454H112.309V42.1H111.247ZM111.783 35.8038C111.599 35.8038 111.44 35.7423 111.307 35.6192C111.177 35.4937 111.112 35.3445 111.112 35.1717C111.112 34.9965 111.177 34.8474 111.307 34.7243C111.44 34.5988 111.599 34.5361 111.783 34.5361C111.968 34.5361 112.125 34.5988 112.256 34.7243C112.388 34.8474 112.454 34.9965 112.454 35.1717C112.454 35.3445 112.388 35.4937 112.256 35.6192C112.125 35.7423 111.968 35.8038 111.783 35.8038ZM116.024 44.2591C115.591 44.2591 115.218 44.2022 114.906 44.0886C114.595 43.975 114.342 43.8246 114.146 43.6376C113.949 43.4506 113.802 43.2458 113.705 43.0233L114.618 42.6469C114.682 42.751 114.767 42.8611 114.874 42.9771C114.982 43.0955 115.129 43.1961 115.314 43.279C115.501 43.3618 115.741 43.4032 116.035 43.4032C116.437 43.4032 116.77 43.305 117.033 43.1085C117.295 42.9144 117.427 42.6042 117.427 42.1781V41.1057H117.359C117.295 41.2217 117.203 41.3507 117.082 41.4927C116.964 41.6348 116.801 41.7579 116.592 41.862C116.384 41.9662 116.113 42.0183 115.779 42.0183C115.348 42.0183 114.96 41.9177 114.614 41.7165C114.271 41.5129 113.999 41.2134 113.798 40.818C113.599 40.4203 113.499 39.9314 113.499 39.3514C113.499 38.7714 113.598 38.2742 113.794 37.8599C113.993 37.4456 114.265 37.1284 114.611 36.9082C114.956 36.6857 115.348 36.5744 115.786 36.5744C116.125 36.5744 116.398 36.6312 116.607 36.7449C116.815 36.8561 116.977 36.9863 117.093 37.1355C117.211 37.2846 117.303 37.416 117.366 37.5297H117.445V36.6454H118.485V42.2207C118.485 42.6895 118.376 43.0742 118.158 43.3748C117.941 43.6755 117.646 43.898 117.274 44.0424C116.905 44.1869 116.488 44.2591 116.024 44.2591ZM116.013 41.1376C116.319 41.1376 116.577 41.0666 116.788 40.9245C117.001 40.7801 117.162 40.5742 117.271 40.3067C117.382 40.0368 117.438 39.7136 117.438 39.3372C117.438 38.9702 117.383 38.6471 117.274 38.3677C117.165 38.0884 117.005 37.8706 116.795 37.7143C116.584 37.5557 116.324 37.4764 116.013 37.4764C115.694 37.4764 115.428 37.5593 115.214 37.725C115.001 37.8883 114.84 38.1109 114.732 38.3926C114.625 38.6743 114.572 38.9892 114.572 39.3372C114.572 39.6947 114.626 40.0084 114.735 40.2782C114.844 40.5481 115.005 40.7588 115.218 40.9103C115.433 41.0619 115.699 41.1376 116.013 41.1376ZM120.971 38.8613V42.1H119.909V34.8272H120.957V37.5332H121.024C121.152 37.2397 121.347 37.0065 121.61 36.8336C121.873 36.6608 122.216 36.5744 122.64 36.5744C123.014 36.5744 123.341 36.6513 123.62 36.8052C123.902 36.9591 124.12 37.1888 124.273 37.4942C124.43 37.7972 124.508 38.176 124.508 38.6305V42.1H123.446V38.7584C123.446 38.3583 123.343 38.0481 123.137 37.828C122.931 37.6054 122.645 37.4942 122.278 37.4942C122.027 37.4942 121.802 37.5474 121.603 37.654C121.406 37.7605 121.251 37.9167 121.138 38.1227C121.027 38.3263 120.971 38.5725 120.971 38.8613ZM128.471 36.6454V37.4977H125.491V36.6454H128.471ZM126.29 35.3386H127.352V40.4984C127.352 40.7044 127.383 40.8594 127.445 40.9636C127.506 41.0654 127.585 41.1353 127.683 41.1731C127.782 41.2086 127.89 41.2264 128.006 41.2264C128.091 41.2264 128.165 41.2205 128.229 41.2086C128.293 41.1968 128.343 41.1873 128.379 41.1802L128.57 42.0574C128.509 42.081 128.421 42.1047 128.308 42.1284C128.194 42.1544 128.052 42.1686 127.881 42.171C127.602 42.1757 127.342 42.126 127.1 42.0219C126.859 41.9177 126.663 41.7567 126.514 41.5389C126.365 41.3211 126.29 41.0477 126.29 40.7186V35.3386ZM133.645 37.9771L132.683 38.1476C132.642 38.0245 132.578 37.9073 132.491 37.796C132.406 37.6847 132.29 37.5936 132.143 37.5226C131.996 37.4515 131.813 37.416 131.592 37.416C131.292 37.416 131.041 37.4835 130.839 37.6184C130.638 37.751 130.538 37.9227 130.538 38.1334C130.538 38.3156 130.605 38.4624 130.74 38.5737C130.875 38.685 131.093 38.7761 131.393 38.8471L132.26 39.046C132.762 39.162 133.136 39.3407 133.382 39.5822C133.628 39.8237 133.751 40.1374 133.751 40.5233C133.751 40.85 133.657 41.1412 133.467 41.3969C133.28 41.6502 133.019 41.849 132.683 41.9934C132.349 42.1379 131.962 42.2101 131.521 42.2101C130.911 42.2101 130.412 42.0799 130.026 41.8194C129.64 41.5567 129.404 41.1838 129.316 40.7008L130.342 40.5446C130.406 40.8121 130.538 41.0145 130.737 41.1518C130.935 41.2868 131.195 41.3542 131.514 41.3542C131.862 41.3542 132.14 41.282 132.349 41.1376C132.557 40.9908 132.661 40.8121 132.661 40.6014C132.661 40.4309 132.597 40.2877 132.469 40.1717C132.344 40.0557 132.151 39.9681 131.891 39.9089L130.967 39.7065C130.458 39.5905 130.082 39.4058 129.838 39.1525C129.597 38.8992 129.476 38.5784 129.476 38.1902C129.476 37.8682 129.566 37.5865 129.746 37.345C129.926 37.1035 130.174 36.9153 130.491 36.7804C130.809 36.6431 131.172 36.5744 131.582 36.5744C132.171 36.5744 132.635 36.7022 132.974 36.9579C133.312 37.2112 133.536 37.551 133.645 37.9771Z" fill="#F9FAFF"/>
<path d="M70.1996 42.1V41.3045L72.6605 38.7548C72.9233 38.4778 73.1399 38.2352 73.3104 38.0268C73.4832 37.8161 73.6122 37.6161 73.6974 37.4267C73.7827 37.2373 73.8253 37.0361 73.8253 36.823C73.8253 36.5815 73.7685 36.3732 73.6548 36.198C73.5412 36.0204 73.3861 35.8843 73.1896 35.7896C72.9931 35.6925 72.7718 35.644 72.5256 35.644C72.2652 35.644 72.0379 35.6973 71.8438 35.8038C71.6496 35.9103 71.5005 36.0607 71.3963 36.2548C71.2921 36.4489 71.2401 36.6762 71.2401 36.9366H70.1925C70.1925 36.4939 70.2943 36.1068 70.4979 35.7754C70.7015 35.444 70.9808 35.1871 71.3359 35.0048C71.6911 34.8201 72.0947 34.7278 72.5469 34.7278C73.0038 34.7278 73.4063 34.819 73.7543 35.0013C74.1046 35.1812 74.3781 35.4274 74.5746 35.7399C74.7711 36.05 74.8693 36.4004 74.8693 36.791C74.8693 37.0609 74.8184 37.3249 74.7166 37.5829C74.6172 37.841 74.4432 38.1286 74.1946 38.4459C73.946 38.7607 73.6004 39.1431 73.1577 39.5929L71.7124 41.1057V41.1589H74.9865V42.1H70.1996ZM78.733 42.1994C78.2879 42.1994 77.8878 42.1142 77.5327 41.9437C77.1799 41.7709 76.8982 41.5342 76.6875 41.2335C76.4768 40.9328 76.3643 40.5896 76.3501 40.2037H77.4155C77.4415 40.5162 77.58 40.773 77.831 40.9743C78.0819 41.1755 78.3826 41.2761 78.733 41.2761C79.0123 41.2761 79.2597 41.2122 79.4751 41.0844C79.6929 40.9541 79.8634 40.7754 79.9865 40.5481C80.112 40.3209 80.1747 40.0616 80.1747 39.7704C80.1747 39.4745 80.1108 39.2105 79.983 38.9785C79.8551 38.7465 79.6787 38.5642 79.4538 38.4317C79.2313 38.2991 78.9756 38.2316 78.6868 38.2292C78.4666 38.2292 78.2453 38.2671 78.0227 38.3429C77.8002 38.4186 77.6203 38.5181 77.483 38.6412L76.478 38.492L76.8864 34.8272H80.8849V35.7683H77.799L77.5682 37.8031H77.6108C77.7528 37.6658 77.9411 37.551 78.1754 37.4586C78.4122 37.3663 78.6655 37.3201 78.9354 37.3201C79.3781 37.3201 79.7723 37.4255 80.1179 37.6362C80.4659 37.8469 80.7393 38.1345 80.9382 38.4991C81.1394 38.8613 81.2389 39.278 81.2365 39.7491C81.2389 40.2202 81.1323 40.6405 80.9169 41.0098C80.7038 41.3791 80.4079 41.6703 80.0291 41.8834C79.6527 42.0941 79.2206 42.1994 78.733 42.1994ZM85.0655 42.2207C84.5044 42.2183 84.025 42.0704 83.6273 41.7768C83.2296 41.4833 82.9254 41.0559 82.7147 40.4949C82.504 39.9338 82.3986 39.2579 82.3986 38.4672C82.3986 37.6788 82.504 37.0053 82.7147 36.4466C82.9277 35.8879 83.2331 35.4617 83.6309 35.1682C84.031 34.8746 84.5092 34.7278 85.0655 34.7278C85.6219 34.7278 86.0989 34.8758 86.4966 35.1717C86.8944 35.4653 87.1986 35.8914 87.4093 36.4501C87.6223 37.0065 87.7289 37.6788 87.7289 38.4672C87.7289 39.2603 87.6235 39.9373 87.4128 40.4984C87.2021 41.0571 86.8979 41.4844 86.5002 41.7804C86.1025 42.0739 85.6242 42.2207 85.0655 42.2207ZM85.0655 41.2726C85.5579 41.2726 85.9426 41.0323 86.2196 40.5517C86.499 40.0711 86.6387 39.3763 86.6387 38.4672C86.6387 37.8635 86.5748 37.3533 86.4469 36.9366C86.3214 36.5176 86.1403 36.2004 85.9036 35.9849C85.6692 35.7671 85.3899 35.6582 85.0655 35.6582C84.5755 35.6582 84.1908 35.8997 83.9114 36.3826C83.632 36.8656 83.4912 37.5604 83.4888 38.4672C83.4888 39.0732 83.5516 39.5858 83.677 40.0048C83.8049 40.4215 83.986 40.7375 84.2203 40.953C84.4547 41.166 84.7364 41.2726 85.0655 41.2726ZM91.5206 42.2207C90.9595 42.2183 90.4801 42.0704 90.0824 41.7768C89.6847 41.4833 89.3804 41.0559 89.1697 40.4949C88.959 39.9338 88.8537 39.2579 88.8537 38.4672C88.8537 37.6788 88.959 37.0053 89.1697 36.4466C89.3828 35.8879 89.6882 35.4617 90.0859 35.1682C90.486 34.8746 90.9643 34.7278 91.5206 34.7278C92.0769 34.7278 92.554 34.8758 92.9517 35.1717C93.3494 35.4653 93.6536 35.8914 93.8643 36.4501C94.0774 37.0065 94.1839 37.6788 94.1839 38.4672C94.1839 39.2603 94.0786 39.9373 93.8679 40.4984C93.6572 41.0571 93.353 41.4844 92.9553 41.7804C92.5575 42.0739 92.0793 42.2207 91.5206 42.2207ZM91.5206 41.2726C92.013 41.2726 92.3977 41.0323 92.6747 40.5517C92.9541 40.0711 93.0938 39.3763 93.0938 38.4672C93.0938 37.8635 93.0298 37.3533 92.902 36.9366C92.7765 36.5176 92.5954 36.2004 92.3587 35.9849C92.1243 35.7671 91.8449 35.6582 91.5206 35.6582C91.0305 35.6582 90.6458 35.8997 90.3665 36.3826C90.0871 36.8656 89.9463 37.5604 89.9439 38.4672C89.9439 39.0732 90.0066 39.5858 90.1321 40.0048C90.2599 40.4215 90.4411 40.7375 90.6754 40.953C90.9098 41.166 91.1915 41.2726 91.5206 41.2726Z" fill="#F9FAFF"/>
<defs>
<filter id="filter0_d_34_151" x="13.4" y="-2.28882e-05" width="176.2" height="118.2" filterUnits="userSpaceOnUse" color-interpolation-filters="sRGB">
<feFlood flood-opacity="0" result="BackgroundImageFix"/>
<feColorMatrix in="SourceAlpha" type="matrix" values="0 0 0 0 0 0 0 0 0 0 0 0 0 0 0 0 0 0 127 0" result="hardAlpha"/>
<feOffset dy="21"/>
<feGaussianBlur stdDeviation="23.05"/>
<feComposite in2="hardAlpha" operator="out"/>
<feColorMatrix type="matrix" values="0 0 0 0 0.439291 0 0 0 0 0.251479 0 0 0 0 0.769231 0 0 0 0.5 0"/>
<feBlend mode="normal" in2="BackgroundImageFix" result="effect1_dropShadow_34_151"/>
<feBlend mode="normal" in="SourceGraphic" in2="effect1_dropShadow_34_151" result="shape"/>
</filter>
<linearGradient id="paint0_linear_34_151" x1="72" y1="97.1" x2="56.5" y2="12.1" gradientUnits="userSpaceOnUse">
<stop stop-color="white" stop-opacity="0"/>
<stop offset="1" stop-color="#E3A8E7"/>
</linearGradient>
<linearGradient id="paint1_linear_34_151" x1="59.5" y1="18.3969" x2="112.507" y2="38.0722" gradientUnits="userSpaceOnUse">
<stop stop-color="#DB97ED"/>
<stop offset="1" stop-color="#7984F1"/>
</linearGradient>
</defs>
</svg>
