<svg width="302" height="132" viewBox="0 0 302 132" fill="none" xmlns="http://www.w3.org/2000/svg">
<path d="M247.5 105.1V11.6001H190.5L167.5 32.6001H140L100 57.6001H76L55.5 74.1001H45V105.1H247.5Z" fill="url(#paint0_linear_231_1173)"/>
<g filter="url(#filter0_d_231_1173)">
<rect x="104.5" y="25.1001" width="84" height="26" rx="13" fill="url(#paint1_linear_231_1173)"/>
<rect x="105.5" y="26.1001" width="82" height="24" rx="12" stroke="white" stroke-opacity="0.5" stroke-width="2"/>
</g>
<path d="M143.396 34.8274V42.1001H142.299V34.8274H143.396ZM145.971 38.8615V42.1001H144.909V36.6456H145.928V37.5333H145.996C146.121 37.2445 146.318 37.0125 146.585 36.8373C146.855 36.6621 147.195 36.5745 147.604 36.5745C147.976 36.5745 148.302 36.6527 148.581 36.8089C148.86 36.9628 149.077 37.1924 149.231 37.4978C149.385 37.8032 149.462 38.1808 149.462 38.6306V42.1001H148.4V38.7585C148.4 38.3631 148.297 38.0542 148.091 37.8316C147.885 37.6067 147.602 37.4943 147.242 37.4943C146.996 37.4943 146.777 37.5475 146.585 37.6541C146.396 37.7606 146.246 37.9169 146.134 38.1228C146.025 38.3264 145.971 38.5726 145.971 38.8615ZM154.973 37.9772L154.011 38.1477C153.97 38.0246 153.906 37.9074 153.819 37.7961C153.734 37.6849 153.618 37.5937 153.471 37.5227C153.324 37.4517 153.141 37.4161 152.92 37.4161C152.62 37.4161 152.369 37.4836 152.168 37.6186C151.966 37.7511 151.866 37.9228 151.866 38.1335C151.866 38.3158 151.933 38.4626 152.068 38.5738C152.203 38.6851 152.421 38.7762 152.722 38.8473L153.588 39.0461C154.09 39.1621 154.464 39.3409 154.71 39.5823C154.956 39.8238 155.08 40.1375 155.08 40.5234C155.08 40.8501 154.985 41.1413 154.795 41.397C154.608 41.6503 154.347 41.8492 154.011 41.9936C153.677 42.138 153.29 42.2102 152.849 42.2102C152.239 42.2102 151.74 42.08 151.354 41.8196C150.969 41.5568 150.732 41.1839 150.644 40.7009L151.67 40.5447C151.734 40.8122 151.866 41.0146 152.065 41.1519C152.263 41.2869 152.523 41.3544 152.842 41.3544C153.19 41.3544 153.469 41.2822 153.677 41.1377C153.885 40.991 153.989 40.8122 153.989 40.6015C153.989 40.4311 153.925 40.2878 153.798 40.1718C153.672 40.0558 153.479 39.9682 153.219 39.909L152.295 39.7066C151.786 39.5906 151.41 39.406 151.166 39.1527C150.925 38.8993 150.804 38.5786 150.804 38.1903C150.804 37.8683 150.894 37.5866 151.074 37.3451C151.254 37.1036 151.502 36.9154 151.82 36.7805C152.137 36.6432 152.5 36.5745 152.91 36.5745C153.499 36.5745 153.963 36.7024 154.302 36.9581C154.64 37.2114 154.864 37.5511 154.973 37.9772ZM156.247 42.1001V36.6456H157.309V42.1001H156.247ZM156.783 35.8039C156.599 35.8039 156.44 35.7424 156.307 35.6193C156.177 35.4938 156.112 35.3447 156.112 35.1718C156.112 34.9966 156.177 34.8475 156.307 34.7244C156.44 34.5989 156.599 34.5362 156.783 34.5362C156.968 34.5362 157.125 34.5989 157.256 34.7244C157.388 34.8475 157.454 34.9966 157.454 35.1718C157.454 35.3447 157.388 35.4938 157.256 35.6193C157.125 35.7424 156.968 35.8039 156.783 35.8039ZM161.024 44.2592C160.591 44.2592 160.218 44.2024 159.906 44.0887C159.595 43.9751 159.342 43.8248 159.146 43.6377C158.949 43.4507 158.802 43.2459 158.705 43.0234L159.618 42.647C159.682 42.7511 159.767 42.8612 159.874 42.9772C159.982 43.0956 160.129 43.1962 160.314 43.2791C160.501 43.3619 160.741 43.4034 161.035 43.4034C161.437 43.4034 161.77 43.3051 162.033 43.1086C162.295 42.9145 162.427 42.6044 162.427 42.1782V41.1058H162.359C162.295 41.2218 162.203 41.3508 162.082 41.4929C161.964 41.6349 161.801 41.758 161.592 41.8622C161.384 41.9663 161.113 42.0184 160.779 42.0184C160.348 42.0184 159.96 41.9178 159.614 41.7166C159.271 41.513 158.999 41.2135 158.798 40.8181C158.599 40.4204 158.499 39.9315 158.499 39.3515C158.499 38.7715 158.598 38.2743 158.794 37.86C158.993 37.4457 159.265 37.1285 159.611 36.9083C159.956 36.6858 160.348 36.5745 160.786 36.5745C161.125 36.5745 161.398 36.6313 161.607 36.745C161.815 36.8563 161.977 36.9865 162.093 37.1356C162.211 37.2848 162.303 37.4161 162.366 37.5298H162.445V36.6456H163.485V42.2208C163.485 42.6896 163.376 43.0743 163.158 43.375C162.941 43.6756 162.646 43.8982 162.274 44.0426C161.905 44.187 161.488 44.2592 161.024 44.2592ZM161.013 41.1377C161.319 41.1377 161.577 41.0667 161.788 40.9247C162.001 40.7803 162.162 40.5743 162.271 40.3068C162.382 40.0369 162.438 39.7137 162.438 39.3373C162.438 38.9704 162.383 38.6472 162.274 38.3679C162.165 38.0885 162.005 37.8707 161.795 37.7144C161.584 37.5558 161.324 37.4765 161.013 37.4765C160.694 37.4765 160.428 37.5594 160.214 37.7251C160.001 37.8884 159.84 38.111 159.732 38.3927C159.625 38.6744 159.572 38.9893 159.572 39.3373C159.572 39.6948 159.626 40.0085 159.735 40.2784C159.844 40.5483 160.005 40.759 160.218 40.9105C160.433 41.062 160.699 41.1377 161.013 41.1377ZM165.971 38.8615V42.1001H164.909V34.8274H165.957V37.5333H166.024C166.152 37.2398 166.347 37.0066 166.61 36.8338C166.873 36.6609 167.216 36.5745 167.64 36.5745C168.014 36.5745 168.341 36.6515 168.62 36.8054C168.902 36.9592 169.12 37.1889 169.273 37.4943C169.43 37.7973 169.508 38.1761 169.508 38.6306V42.1001H168.446V38.7585C168.446 38.3584 168.343 38.0483 168.137 37.8281C167.931 37.6055 167.645 37.4943 167.278 37.4943C167.027 37.4943 166.802 37.5475 166.603 37.6541C166.406 37.7606 166.251 37.9169 166.138 38.1228C166.027 38.3264 165.971 38.5726 165.971 38.8615ZM173.471 36.6456V37.4978H170.491V36.6456H173.471ZM171.29 35.3387H172.352V40.4985C172.352 40.7045 172.383 40.8596 172.445 40.9637C172.506 41.0655 172.585 41.1354 172.683 41.1733C172.782 41.2088 172.89 41.2265 173.006 41.2265C173.091 41.2265 173.165 41.2206 173.229 41.2088C173.293 41.1969 173.343 41.1875 173.379 41.1804L173.57 42.0575C173.509 42.0812 173.421 42.1048 173.308 42.1285C173.194 42.1545 173.052 42.1688 172.881 42.1711C172.602 42.1759 172.342 42.1261 172.1 42.022C171.859 41.9178 171.663 41.7568 171.514 41.539C171.365 41.3212 171.29 41.0478 171.29 40.7187V35.3387ZM178.645 37.9772L177.683 38.1477C177.642 38.0246 177.578 37.9074 177.491 37.7961C177.406 37.6849 177.29 37.5937 177.143 37.5227C176.996 37.4517 176.813 37.4161 176.592 37.4161C176.292 37.4161 176.041 37.4836 175.839 37.6186C175.638 37.7511 175.538 37.9228 175.538 38.1335C175.538 38.3158 175.605 38.4626 175.74 38.5738C175.875 38.6851 176.093 38.7762 176.393 38.8473L177.26 39.0461C177.762 39.1621 178.136 39.3409 178.382 39.5823C178.628 39.8238 178.751 40.1375 178.751 40.5234C178.751 40.8501 178.657 41.1413 178.467 41.397C178.28 41.6503 178.019 41.8492 177.683 41.9936C177.349 42.138 176.962 42.2102 176.521 42.2102C175.911 42.2102 175.412 42.08 175.026 41.8196C174.64 41.5568 174.404 41.1839 174.316 40.7009L175.342 40.5447C175.406 40.8122 175.538 41.0146 175.737 41.1519C175.935 41.2869 176.195 41.3544 176.514 41.3544C176.862 41.3544 177.14 41.2822 177.349 41.1377C177.557 40.991 177.661 40.8122 177.661 40.6015C177.661 40.4311 177.597 40.2878 177.469 40.1718C177.344 40.0558 177.151 39.9682 176.891 39.909L175.967 39.7066C175.458 39.5906 175.082 39.406 174.838 39.1527C174.597 38.8993 174.476 38.5786 174.476 38.1903C174.476 37.8683 174.566 37.5866 174.746 37.3451C174.926 37.1036 175.174 36.9154 175.491 36.7805C175.809 36.6432 176.172 36.5745 176.582 36.5745C177.171 36.5745 177.635 36.7024 177.974 36.9581C178.312 37.2114 178.536 37.5511 178.645 37.9772Z" fill="#F9FAFF"/>
<path d="M115.2 42.1001V41.3046L117.661 38.7549C117.923 38.4779 118.14 38.2353 118.31 38.0269C118.483 37.8162 118.612 37.6162 118.697 37.4268C118.783 37.2374 118.825 37.0362 118.825 36.8231C118.825 36.5816 118.768 36.3733 118.655 36.1981C118.541 36.0206 118.386 35.8844 118.19 35.7897C117.993 35.6927 117.772 35.6441 117.526 35.6441C117.265 35.6441 117.038 35.6974 116.844 35.8039C116.65 35.9105 116.5 36.0608 116.396 36.2549C116.292 36.4491 116.24 36.6763 116.24 36.9367H115.192C115.192 36.494 115.294 36.107 115.498 35.7755C115.701 35.4441 115.981 35.1872 116.336 35.0049C116.691 34.8203 117.095 34.7279 117.547 34.7279C118.004 34.7279 118.406 34.8191 118.754 35.0014C119.105 35.1813 119.378 35.4275 119.575 35.74C119.771 36.0501 119.869 36.4005 119.869 36.7911C119.869 37.061 119.818 37.325 119.717 37.5831C119.617 37.8411 119.443 38.1287 119.195 38.446C118.946 38.7608 118.6 39.1432 118.158 39.593L116.712 41.1058V41.159H119.987V42.1001H115.2ZM123.733 42.1995C123.288 42.1995 122.888 42.1143 122.533 41.9438C122.18 41.771 121.898 41.5343 121.688 41.2336C121.477 40.933 121.364 40.5897 121.35 40.2038H122.415C122.442 40.5163 122.58 40.7732 122.831 40.9744C123.082 41.1756 123.383 41.2762 123.733 41.2762C124.012 41.2762 124.26 41.2123 124.475 41.0845C124.693 40.9543 124.863 40.7755 124.987 40.5483C125.112 40.321 125.175 40.0617 125.175 39.7706C125.175 39.4746 125.111 39.2107 124.983 38.9786C124.855 38.7466 124.679 38.5643 124.454 38.4318C124.231 38.2992 123.976 38.2317 123.687 38.2294C123.467 38.2294 123.245 38.2672 123.023 38.343C122.8 38.4188 122.62 38.5182 122.483 38.6413L121.478 38.4921L121.886 34.8274H125.885V35.7684H122.799L122.568 37.8032H122.611C122.753 37.6659 122.941 37.5511 123.175 37.4588C123.412 37.3664 123.665 37.3203 123.935 37.3203C124.378 37.3203 124.772 37.4256 125.118 37.6363C125.466 37.847 125.739 38.1347 125.938 38.4992C126.139 38.8615 126.239 39.2781 126.237 39.7492C126.239 40.2204 126.132 40.6406 125.917 41.0099C125.704 41.3792 125.408 41.6704 125.029 41.8835C124.653 42.0942 124.221 42.1995 123.733 42.1995ZM130.066 42.2208C129.504 42.2185 129.025 42.0705 128.627 41.7769C128.23 41.4834 127.925 41.0561 127.715 40.495C127.504 39.9339 127.399 39.258 127.399 38.4673C127.399 37.6789 127.504 37.0054 127.715 36.4467C127.928 35.888 128.233 35.4618 128.631 35.1683C129.031 34.8747 129.509 34.7279 130.066 34.7279C130.622 34.7279 131.099 34.8759 131.497 35.1718C131.894 35.4654 132.199 35.8915 132.409 36.4502C132.622 37.0066 132.729 37.6789 132.729 38.4673C132.729 39.2604 132.624 39.9375 132.413 40.4985C132.202 41.0572 131.898 41.4846 131.5 41.7805C131.102 42.0741 130.624 42.2208 130.066 42.2208ZM130.066 41.2727C130.558 41.2727 130.943 41.0324 131.22 40.5518C131.499 40.0712 131.639 39.3764 131.639 38.4673C131.639 37.8636 131.575 37.3534 131.447 36.9367C131.321 36.5177 131.14 36.2005 130.904 35.985C130.669 35.7672 130.39 35.6583 130.066 35.6583C129.575 35.6583 129.191 35.8998 128.911 36.3828C128.632 36.8657 128.491 37.5606 128.489 38.4673C128.489 39.0733 128.552 39.5859 128.677 40.0049C128.805 40.4216 128.986 40.7376 129.22 40.9531C129.455 41.1661 129.736 41.2727 130.066 41.2727ZM136.521 42.2208C135.96 42.2185 135.48 42.0705 135.082 41.7769C134.685 41.4834 134.38 41.0561 134.17 40.495C133.959 39.9339 133.854 39.258 133.854 38.4673C133.854 37.6789 133.959 37.0054 134.17 36.4467C134.383 35.888 134.688 35.4618 135.086 35.1683C135.486 34.8747 135.964 34.7279 136.521 34.7279C137.077 34.7279 137.554 34.8759 137.952 35.1718C138.349 35.4654 138.654 35.8915 138.864 36.4502C139.077 37.0066 139.184 37.6789 139.184 38.4673C139.184 39.2604 139.079 39.9375 138.868 40.4985C138.657 41.0572 138.353 41.4846 137.955 41.7805C137.558 42.0741 137.079 42.2208 136.521 42.2208ZM136.521 41.2727C137.013 41.2727 137.398 41.0324 137.675 40.5518C137.954 40.0712 138.094 39.3764 138.094 38.4673C138.094 37.8636 138.03 37.3534 137.902 36.9367C137.777 36.5177 137.595 36.2005 137.359 35.985C137.124 35.7672 136.845 35.6583 136.521 35.6583C136.031 35.6583 135.646 35.8998 135.366 36.3828C135.087 36.8657 134.946 37.5606 134.944 38.4673C134.944 39.0733 135.007 39.5859 135.132 40.0049C135.26 40.4216 135.441 40.7376 135.675 40.9531C135.91 41.1661 136.192 41.2727 136.521 41.2727Z" fill="#F9FAFF"/>
<path d="M52.2045 98.2819H53.0455L55.0227 103.111H55.0909L57.0682 98.2819H57.9091V104.1H57.25V99.6796H57.1932L55.375 104.1H54.7386L52.9205 99.6796H52.8636V104.1H52.2045V98.2819ZM61.0036 104.191C60.6096 104.191 60.264 104.097 59.9666 103.91C59.6712 103.722 59.4401 103.46 59.2734 103.123C59.1087 102.786 59.0263 102.392 59.0263 101.941C59.0263 101.486 59.1087 101.09 59.2734 100.751C59.4401 100.412 59.6712 100.148 59.9666 99.9609C60.264 99.7734 60.6096 99.6796 61.0036 99.6796C61.3975 99.6796 61.7422 99.7734 62.0376 99.9609C62.335 100.148 62.5661 100.412 62.7308 100.751C62.8975 101.09 62.9808 101.486 62.9808 101.941C62.9808 102.392 62.8975 102.786 62.7308 103.123C62.5661 103.46 62.335 103.722 62.0376 103.91C61.7422 104.097 61.3975 104.191 61.0036 104.191ZM61.0036 103.589C61.3028 103.589 61.549 103.512 61.7422 103.359C61.9354 103.205 62.0784 103.004 62.1712 102.754C62.264 102.504 62.3104 102.233 62.3104 101.941C62.3104 101.649 62.264 101.378 62.1712 101.126C62.0784 100.874 61.9354 100.67 61.7422 100.515C61.549 100.36 61.3028 100.282 61.0036 100.282C60.7043 100.282 60.4581 100.36 60.2649 100.515C60.0717 100.67 59.9287 100.874 59.8359 101.126C59.7431 101.378 59.6967 101.649 59.6967 101.941C59.6967 102.233 59.7431 102.504 59.8359 102.754C59.9287 103.004 60.0717 103.205 60.2649 103.359C60.4581 103.512 60.7043 103.589 61.0036 103.589ZM64.6747 101.475V104.1H64.0043V99.7365H64.652V100.418H64.7088C64.8111 100.197 64.9664 100.019 65.1747 99.8842C65.383 99.7478 65.652 99.6796 65.9815 99.6796C66.277 99.6796 66.5355 99.7402 66.7571 99.8615C66.9787 99.9808 67.151 100.163 67.2741 100.407C67.3973 100.649 67.4588 100.956 67.4588 101.327V104.1H66.7884V101.373C66.7884 101.03 66.6993 100.763 66.5213 100.572C66.3433 100.379 66.099 100.282 65.7884 100.282C65.5743 100.282 65.383 100.328 65.2145 100.421C65.0478 100.514 64.9162 100.649 64.8196 100.827C64.723 101.005 64.6747 101.221 64.6747 101.475Z" fill="#787878"/>
<path d="M81.8864 98.9069V98.2819H86.25V98.9069H84.4205V104.1H83.7159V98.9069H81.8864ZM89.4027 102.316V99.7365H90.0732V104.1H89.4027V103.361H89.3572C89.255 103.583 89.0959 103.771 88.88 103.927C88.6641 104.08 88.3913 104.157 88.0618 104.157C87.7891 104.157 87.5466 104.097 87.3345 103.978C87.1224 103.857 86.9557 103.675 86.8345 103.432C86.7133 103.188 86.6527 102.88 86.6527 102.509V99.7365H87.3232V102.464C87.3232 102.782 87.4122 103.036 87.5902 103.225C87.7701 103.414 87.9993 103.509 88.2777 103.509C88.4444 103.509 88.6139 103.467 88.7862 103.381C88.9605 103.296 89.1063 103.165 89.2237 102.989C89.343 102.813 89.4027 102.589 89.4027 102.316ZM93.1307 104.191C92.7102 104.191 92.3475 104.098 92.0426 103.913C91.7396 103.725 91.5057 103.464 91.3409 103.129C91.178 102.791 91.0966 102.399 91.0966 101.952C91.0966 101.505 91.178 101.111 91.3409 100.771C91.5057 100.428 91.7348 100.161 92.0284 99.9694C92.3239 99.7762 92.6686 99.6796 93.0625 99.6796C93.2898 99.6796 93.5142 99.7175 93.7358 99.7933C93.9574 99.869 94.1591 99.9921 94.3409 100.163C94.5227 100.331 94.6676 100.555 94.7756 100.833C94.8835 101.111 94.9375 101.454 94.9375 101.861V102.146H91.5739V101.566H94.2557C94.2557 101.32 94.2064 101.1 94.108 100.907C94.0114 100.714 93.8731 100.561 93.6932 100.45C93.5152 100.338 93.3049 100.282 93.0625 100.282C92.7955 100.282 92.5644 100.348 92.3693 100.481C92.1761 100.611 92.0275 100.782 91.9233 100.992C91.8191 101.202 91.767 101.428 91.767 101.668V102.055C91.767 102.384 91.8239 102.664 91.9375 102.893C92.053 103.12 92.2131 103.293 92.4176 103.413C92.6222 103.53 92.8598 103.589 93.1307 103.589C93.3068 103.589 93.4659 103.564 93.608 103.515C93.7519 103.464 93.8759 103.388 93.9801 103.288C94.0843 103.185 94.1648 103.058 94.2216 102.907L94.8693 103.089C94.8011 103.308 94.6866 103.502 94.5256 103.668C94.3646 103.833 94.1657 103.962 93.929 104.055C93.6922 104.146 93.4261 104.191 93.1307 104.191Z" fill="#787878"/>
<path d="M110.261 104.1L108.67 98.2819H109.386L110.602 103.021H110.659L111.898 98.2819H112.693L113.932 103.021H113.989L115.205 98.2819H115.92L114.33 104.1H113.602L112.318 99.4637H112.273L110.989 104.1H110.261ZM118.131 104.191C117.71 104.191 117.348 104.098 117.043 103.913C116.74 103.725 116.506 103.464 116.341 103.129C116.178 102.791 116.097 102.399 116.097 101.952C116.097 101.505 116.178 101.111 116.341 100.771C116.506 100.428 116.735 100.161 117.028 99.9694C117.324 99.7762 117.669 99.6796 118.062 99.6796C118.29 99.6796 118.514 99.7175 118.736 99.7933C118.957 99.869 119.159 99.9921 119.341 100.163C119.523 100.331 119.668 100.555 119.776 100.833C119.884 101.111 119.938 101.454 119.938 101.861V102.146H116.574V101.566H119.256C119.256 101.32 119.206 101.1 119.108 100.907C119.011 100.714 118.873 100.561 118.693 100.45C118.515 100.338 118.305 100.282 118.062 100.282C117.795 100.282 117.564 100.348 117.369 100.481C117.176 100.611 117.027 100.782 116.923 100.992C116.819 101.202 116.767 101.428 116.767 101.668V102.055C116.767 102.384 116.824 102.664 116.938 102.893C117.053 103.12 117.213 103.293 117.418 103.413C117.622 103.53 117.86 103.589 118.131 103.589C118.307 103.589 118.466 103.564 118.608 103.515C118.752 103.464 118.876 103.388 118.98 103.288C119.084 103.185 119.165 103.058 119.222 102.907L119.869 103.089C119.801 103.308 119.687 103.502 119.526 103.668C119.365 103.833 119.166 103.962 118.929 104.055C118.692 104.146 118.426 104.191 118.131 104.191ZM122.605 104.191C122.241 104.191 121.92 104.099 121.642 103.915C121.364 103.73 121.146 103.468 120.989 103.131C120.831 102.792 120.753 102.392 120.753 101.93C120.753 101.471 120.831 101.074 120.989 100.736C121.146 100.399 121.365 100.139 121.645 99.9552C121.925 99.7715 122.249 99.6796 122.616 99.6796C122.901 99.6796 123.125 99.727 123.29 99.8217C123.456 99.9145 123.583 100.021 123.67 100.14C123.759 100.257 123.829 100.354 123.878 100.43H123.935V98.2819H124.605V104.1H123.957V103.43H123.878C123.829 103.509 123.759 103.61 123.668 103.731C123.577 103.85 123.447 103.957 123.278 104.052C123.11 104.145 122.885 104.191 122.605 104.191ZM122.696 103.589C122.965 103.589 123.192 103.519 123.378 103.379C123.563 103.236 123.705 103.04 123.801 102.79C123.898 102.539 123.946 102.248 123.946 101.918C123.946 101.593 123.899 101.307 123.804 101.063C123.709 100.817 123.569 100.626 123.384 100.489C123.198 100.351 122.969 100.282 122.696 100.282C122.412 100.282 122.175 100.355 121.986 100.501C121.798 100.645 121.657 100.841 121.562 101.089C121.47 101.335 121.423 101.611 121.423 101.918C121.423 102.229 121.471 102.511 121.565 102.765C121.662 103.017 121.804 103.218 121.991 103.367C122.181 103.515 122.416 103.589 122.696 103.589Z" fill="#787878"/>
<path d="M138.886 98.9069V98.2819H143.25V98.9069H141.42V104.1H140.716V98.9069H138.886ZM144.917 101.475V104.1H144.246V98.2819H144.917V100.418H144.974C145.076 100.193 145.229 100.014 145.434 99.8813C145.64 99.7469 145.915 99.6796 146.258 99.6796C146.555 99.6796 146.816 99.7393 147.039 99.8586C147.263 99.976 147.436 100.157 147.559 100.401C147.684 100.644 147.746 100.952 147.746 101.327V104.1H147.076V101.373C147.076 101.026 146.986 100.758 146.806 100.569C146.628 100.378 146.381 100.282 146.065 100.282C145.845 100.282 145.648 100.328 145.474 100.421C145.301 100.514 145.165 100.649 145.065 100.827C144.966 101.005 144.917 101.221 144.917 101.475ZM151.723 102.316V99.7365H152.393V104.1H151.723V103.361H151.678C151.575 103.583 151.416 103.771 151.2 103.927C150.984 104.08 150.712 104.157 150.382 104.157C150.109 104.157 149.867 104.097 149.655 103.978C149.443 103.857 149.276 103.675 149.155 103.432C149.034 103.188 148.973 102.88 148.973 102.509V99.7365H149.643V102.464C149.643 102.782 149.732 103.036 149.911 103.225C150.09 103.414 150.32 103.509 150.598 103.509C150.765 103.509 150.934 103.467 151.107 103.381C151.281 103.296 151.427 103.165 151.544 102.989C151.663 102.813 151.723 102.589 151.723 102.316ZM153.621 104.1V99.7365H154.269V100.396H154.315C154.394 100.18 154.538 100.004 154.746 99.87C154.955 99.7355 155.19 99.6683 155.451 99.6683C155.5 99.6683 155.562 99.6692 155.636 99.6711C155.71 99.673 155.765 99.6759 155.803 99.6796V100.361C155.781 100.356 155.728 100.347 155.647 100.336C155.567 100.323 155.483 100.316 155.394 100.316C155.182 100.316 154.993 100.361 154.826 100.45C154.661 100.537 154.531 100.658 154.434 100.813C154.339 100.967 154.292 101.142 154.292 101.339V104.1H153.621Z" fill="#787878"/>
<path d="M170.205 104.1V98.2819H173.693V98.9069H170.909V100.873H173.432V101.498H170.909V104.1H170.205ZM174.809 104.1V99.7365H175.479V104.1H174.809ZM175.15 99.0092C175.019 99.0092 174.906 98.9647 174.812 98.8757C174.719 98.7867 174.673 98.6796 174.673 98.5546C174.673 98.4296 174.719 98.3226 174.812 98.2336C174.906 98.1446 175.019 98.1001 175.15 98.1001C175.281 98.1001 175.392 98.1446 175.485 98.2336C175.58 98.3226 175.627 98.4296 175.627 98.5546C175.627 98.6796 175.58 98.7867 175.485 98.8757C175.392 98.9647 175.281 99.0092 175.15 99.0092ZM176.707 104.1V99.7365H177.355V100.396H177.401C177.48 100.18 177.624 100.004 177.832 99.87C178.041 99.7355 178.276 99.6683 178.537 99.6683C178.586 99.6683 178.648 99.6692 178.722 99.6711C178.795 99.673 178.851 99.6759 178.889 99.6796V100.361C178.866 100.356 178.814 100.347 178.733 100.336C178.653 100.323 178.569 100.316 178.48 100.316C178.268 100.316 178.079 100.361 177.912 100.45C177.747 100.537 177.616 100.658 177.52 100.813C177.425 100.967 177.378 101.142 177.378 101.339V104.1H176.707Z" fill="#787878"/>
<path d="M196.386 99.7365C196.352 99.4486 196.214 99.2251 195.972 99.066C195.729 98.9069 195.432 98.8274 195.08 98.8274C194.822 98.8274 194.597 98.869 194.403 98.9524C194.212 99.0357 194.063 99.1503 193.955 99.2961C193.848 99.442 193.795 99.6077 193.795 99.7933C193.795 99.9486 193.832 100.082 193.906 100.194C193.982 100.304 194.079 100.396 194.196 100.469C194.313 100.541 194.437 100.601 194.565 100.648C194.694 100.694 194.812 100.731 194.92 100.759L195.511 100.918C195.663 100.958 195.831 101.013 196.017 101.083C196.205 101.153 196.384 101.249 196.554 101.37C196.726 101.489 196.868 101.643 196.98 101.83C197.092 102.018 197.148 102.248 197.148 102.521C197.148 102.835 197.065 103.119 196.901 103.373C196.738 103.627 196.499 103.828 196.185 103.978C195.872 104.128 195.492 104.202 195.045 104.202C194.629 104.202 194.268 104.135 193.963 104.001C193.66 103.866 193.421 103.679 193.247 103.438C193.075 103.198 192.977 102.918 192.955 102.6H193.682C193.701 102.82 193.775 103.002 193.903 103.146C194.034 103.288 194.199 103.394 194.398 103.464C194.598 103.532 194.814 103.566 195.045 103.566C195.314 103.566 195.556 103.522 195.77 103.435C195.984 103.346 196.153 103.223 196.278 103.066C196.403 102.907 196.466 102.721 196.466 102.509C196.466 102.316 196.412 102.159 196.304 102.038C196.196 101.916 196.054 101.818 195.878 101.742C195.702 101.666 195.511 101.6 195.307 101.543L194.591 101.339C194.136 101.208 193.777 101.021 193.511 100.779C193.246 100.537 193.114 100.219 193.114 99.8274C193.114 99.5016 193.202 99.2175 193.378 98.9751C193.556 98.7308 193.795 98.5414 194.094 98.4069C194.395 98.2706 194.731 98.2024 195.102 98.2024C195.477 98.2024 195.811 98.2696 196.102 98.4041C196.394 98.5367 196.625 98.7185 196.795 98.9495C196.968 99.1806 197.059 99.4429 197.068 99.7365H196.386ZM199.499 104.202C199.223 104.202 198.972 104.15 198.746 104.046C198.521 103.94 198.342 103.788 198.21 103.589C198.077 103.388 198.011 103.146 198.011 102.861C198.011 102.611 198.06 102.409 198.158 102.254C198.257 102.096 198.388 101.973 198.553 101.884C198.718 101.795 198.9 101.729 199.099 101.685C199.299 101.64 199.501 101.604 199.704 101.577C199.969 101.543 200.184 101.518 200.349 101.501C200.515 101.482 200.637 101.45 200.712 101.407C200.79 101.363 200.829 101.288 200.829 101.18V101.157C200.829 100.877 200.752 100.659 200.599 100.504C200.447 100.348 200.217 100.271 199.908 100.271C199.588 100.271 199.337 100.341 199.156 100.481C198.974 100.621 198.846 100.771 198.772 100.93L198.136 100.702C198.249 100.437 198.401 100.231 198.59 100.083C198.781 99.9334 198.99 99.8293 199.215 99.7706C199.442 99.7099 199.666 99.6796 199.886 99.6796C200.026 99.6796 200.187 99.6967 200.369 99.7308C200.552 99.763 200.729 99.8302 200.9 99.9325C201.072 100.035 201.215 100.189 201.329 100.396C201.442 100.602 201.499 100.879 201.499 101.225V104.1H200.829V103.509H200.795C200.749 103.604 200.674 103.705 200.567 103.813C200.461 103.921 200.32 104.013 200.144 104.089C199.968 104.164 199.753 104.202 199.499 104.202ZM199.602 103.6C199.867 103.6 200.09 103.548 200.272 103.444C200.456 103.34 200.594 103.205 200.687 103.04C200.781 102.876 200.829 102.702 200.829 102.521V101.907C200.8 101.941 200.738 101.972 200.641 102.001C200.547 102.027 200.437 102.051 200.312 102.072C200.189 102.091 200.068 102.108 199.951 102.123C199.835 102.136 199.742 102.147 199.67 102.157C199.496 102.18 199.333 102.217 199.181 102.268C199.031 102.317 198.91 102.392 198.817 102.492C198.727 102.591 198.681 102.725 198.681 102.896C198.681 103.129 198.767 103.305 198.94 103.424C199.114 103.541 199.335 103.6 199.602 103.6ZM204.621 99.7365V100.305H202.359V99.7365H204.621ZM203.018 98.691H203.689V102.85C203.689 103.039 203.716 103.182 203.771 103.276C203.828 103.369 203.9 103.432 203.987 103.464C204.076 103.494 204.17 103.509 204.268 103.509C204.342 103.509 204.403 103.505 204.45 103.498C204.498 103.488 204.536 103.481 204.564 103.475L204.7 104.077C204.655 104.094 204.591 104.111 204.51 104.129C204.429 104.147 204.325 104.157 204.2 104.157C204.011 104.157 203.825 104.116 203.643 104.035C203.464 103.953 203.314 103.829 203.195 103.663C203.077 103.496 203.018 103.286 203.018 103.032V98.691Z" fill="#787878"/>
<path d="M222.386 99.7365C222.352 99.4486 222.214 99.2251 221.972 99.066C221.729 98.9069 221.432 98.8274 221.08 98.8274C220.822 98.8274 220.597 98.869 220.403 98.9524C220.212 99.0357 220.063 99.1503 219.955 99.2961C219.848 99.442 219.795 99.6077 219.795 99.7933C219.795 99.9486 219.832 100.082 219.906 100.194C219.982 100.304 220.079 100.396 220.196 100.469C220.313 100.541 220.437 100.601 220.565 100.648C220.694 100.694 220.812 100.731 220.92 100.759L221.511 100.918C221.663 100.958 221.831 101.013 222.017 101.083C222.205 101.153 222.384 101.249 222.554 101.37C222.726 101.489 222.868 101.643 222.98 101.83C223.092 102.018 223.148 102.248 223.148 102.521C223.148 102.835 223.065 103.119 222.901 103.373C222.738 103.627 222.499 103.828 222.185 103.978C221.872 104.128 221.492 104.202 221.045 104.202C220.629 104.202 220.268 104.135 219.963 104.001C219.66 103.866 219.421 103.679 219.247 103.438C219.075 103.198 218.977 102.918 218.955 102.6H219.682C219.701 102.82 219.775 103.002 219.903 103.146C220.034 103.288 220.199 103.394 220.398 103.464C220.598 103.532 220.814 103.566 221.045 103.566C221.314 103.566 221.556 103.522 221.77 103.435C221.984 103.346 222.153 103.223 222.278 103.066C222.403 102.907 222.466 102.721 222.466 102.509C222.466 102.316 222.412 102.159 222.304 102.038C222.196 101.916 222.054 101.818 221.878 101.742C221.702 101.666 221.511 101.6 221.307 101.543L220.591 101.339C220.136 101.208 219.777 101.021 219.511 100.779C219.246 100.537 219.114 100.219 219.114 99.8274C219.114 99.5016 219.202 99.2175 219.378 98.9751C219.556 98.7308 219.795 98.5414 220.094 98.4069C220.395 98.2706 220.731 98.2024 221.102 98.2024C221.477 98.2024 221.811 98.2696 222.102 98.4041C222.394 98.5367 222.625 98.7185 222.795 98.9495C222.968 99.1806 223.059 99.4429 223.068 99.7365H222.386ZM226.965 102.316V99.7365H227.636V104.1H226.965V103.361H226.92C226.817 103.583 226.658 103.771 226.442 103.927C226.227 104.08 225.954 104.157 225.624 104.157C225.352 104.157 225.109 104.097 224.897 103.978C224.685 103.857 224.518 103.675 224.397 103.432C224.276 103.188 224.215 102.88 224.215 102.509V99.7365H224.886V102.464C224.886 102.782 224.975 103.036 225.153 103.225C225.333 103.414 225.562 103.509 225.84 103.509C226.007 103.509 226.176 103.467 226.349 103.381C226.523 103.296 226.669 103.165 226.786 102.989C226.906 102.813 226.965 102.589 226.965 102.316ZM229.534 101.475V104.1H228.864V99.7365H229.511V100.418H229.568C229.67 100.197 229.826 100.019 230.034 99.8842C230.242 99.7478 230.511 99.6796 230.841 99.6796C231.136 99.6796 231.395 99.7402 231.616 99.8615C231.838 99.9808 232.01 100.163 232.134 100.407C232.257 100.649 232.318 100.956 232.318 101.327V104.1H231.648V101.373C231.648 101.03 231.559 100.763 231.381 100.572C231.203 100.379 230.958 100.282 230.648 100.282C230.434 100.282 230.242 100.328 230.074 100.421C229.907 100.514 229.776 100.649 229.679 100.827C229.582 101.005 229.534 101.221 229.534 101.475Z" fill="#787878"/>
<rect x="197.5" y="60.1011" width="31" height="14" rx="7" fill="black"/>
<path d="M208.381 64.2829H209.261V68.1096C209.261 68.5168 209.166 68.8776 208.974 69.192C208.783 69.5045 208.514 69.7507 208.168 69.9306C207.821 70.1086 207.415 70.1977 206.949 70.1977C206.485 70.1977 206.08 70.1086 205.733 69.9306C205.386 69.7507 205.117 69.5045 204.926 69.192C204.735 68.8776 204.639 68.5168 204.639 68.1096V64.2829H205.517V68.0386C205.517 68.3018 205.575 68.5357 205.69 68.7403C205.808 68.9448 205.973 69.1058 206.188 69.2232C206.402 69.3388 206.655 69.3965 206.949 69.3965C207.244 69.3965 207.499 69.3388 207.713 69.2232C207.929 69.1058 208.094 68.9448 208.207 68.7403C208.323 68.5357 208.381 68.3018 208.381 68.0386V64.2829ZM213.739 66.8028L212.969 66.9391C212.937 66.8407 212.886 66.7469 212.816 66.6579C212.748 66.5689 212.655 66.496 212.538 66.4391C212.42 66.3823 212.273 66.3539 212.097 66.3539C211.857 66.3539 211.656 66.4079 211.495 66.5158C211.334 66.6219 211.254 66.7592 211.254 66.9278C211.254 67.0736 211.308 67.191 211.415 67.2801C211.523 67.3691 211.698 67.442 211.938 67.4988L212.631 67.6579C213.033 67.7507 213.332 67.8937 213.529 68.0869C213.726 68.2801 213.825 68.531 213.825 68.8397C213.825 69.1011 213.749 69.334 213.597 69.5386C213.448 69.7412 213.238 69.9003 212.969 70.0158C212.702 70.1314 212.393 70.1891 212.04 70.1891C211.552 70.1891 211.153 70.085 210.844 69.8766C210.536 69.6664 210.346 69.3681 210.276 68.9818L211.097 68.8568C211.148 69.0708 211.254 69.2327 211.413 69.3426C211.572 69.4505 211.779 69.5045 212.035 69.5045C212.313 69.5045 212.536 69.4467 212.702 69.3312C212.869 69.2138 212.952 69.0708 212.952 68.9022C212.952 68.7658 212.901 68.6513 212.799 68.5585C212.699 68.4657 212.544 68.3956 212.336 68.3482L211.597 68.1863C211.19 68.0935 210.889 67.9458 210.694 67.7431C210.501 67.5405 210.404 67.2838 210.404 66.9732C210.404 66.7157 210.476 66.4903 210.62 66.2971C210.764 66.1039 210.963 65.9533 211.217 65.8454C211.47 65.7355 211.761 65.6806 212.089 65.6806C212.56 65.6806 212.932 65.7829 213.202 65.9874C213.473 66.1901 213.652 66.4619 213.739 66.8028ZM216.639 70.1891C216.209 70.1891 215.839 70.0973 215.528 69.9136C215.22 69.728 214.981 69.4676 214.812 69.1323C214.646 68.7952 214.562 68.4003 214.562 67.9477C214.562 67.5007 214.646 67.1068 214.812 66.7658C214.981 66.4249 215.216 66.1588 215.517 65.9676C215.82 65.7763 216.174 65.6806 216.58 65.6806C216.826 65.6806 217.064 65.7213 217.295 65.8028C217.527 65.8842 217.734 66.0121 217.918 66.1863C218.101 66.3605 218.246 66.5869 218.352 66.8653C218.458 67.1418 218.511 67.478 218.511 67.8738V68.1749H215.043V67.5386H217.679C217.679 67.3151 217.634 67.1172 217.543 66.9448C217.452 66.7706 217.324 66.6333 217.159 66.5329C216.996 66.4325 216.805 66.3823 216.585 66.3823C216.347 66.3823 216.138 66.441 215.96 66.5585C215.784 66.674 215.648 66.8255 215.551 67.013C215.456 67.1986 215.409 67.4003 215.409 67.6181V68.1153C215.409 68.4069 215.46 68.6551 215.562 68.8596C215.667 69.0641 215.812 69.2204 215.997 69.3283C216.183 69.4344 216.4 69.4874 216.648 69.4874C216.809 69.4874 216.955 69.4647 217.088 69.4193C217.221 69.3719 217.335 69.3018 217.432 69.209C217.528 69.1162 217.602 69.0016 217.653 68.8653L218.457 69.0102C218.393 69.2469 218.277 69.4543 218.111 69.6323C217.946 69.8085 217.739 69.9458 217.489 70.0443C217.241 70.1408 216.957 70.1891 216.639 70.1891ZM219.454 70.1011V65.7374H220.275V66.4306H220.32C220.4 66.1958 220.54 66.0111 220.741 65.8766C220.943 65.7403 221.173 65.6721 221.428 65.6721C221.481 65.6721 221.544 65.674 221.616 65.6778C221.69 65.6816 221.747 65.6863 221.789 65.692V66.5045C221.755 66.495 221.694 66.4846 221.607 66.4732C221.52 66.46 221.433 66.4533 221.346 66.4533C221.145 66.4533 220.966 66.496 220.809 66.5812C220.654 66.6645 220.531 66.781 220.44 66.9306C220.349 67.0783 220.303 67.2469 220.303 67.4363V70.1011H219.454Z" fill="white"/>
<path d="M193.879 54.437C193.792 54.406 193.705 54.3746 193.631 54.3554C193.561 54.3371 193.426 54.307 193.281 54.3572C193.114 54.4148 192.984 54.5455 192.926 54.7118C192.876 54.8569 192.906 54.9922 192.924 55.0623C192.943 55.1361 192.975 55.2236 193.006 55.3099L195.198 61.4177C195.237 61.525 195.274 61.6278 195.31 61.7071C195.341 61.7741 195.411 61.9205 195.563 62.0033C195.73 62.0939 195.93 62.0965 196.099 62.0104C196.253 61.9316 196.327 61.787 196.359 61.7209C196.398 61.6426 196.437 61.5407 196.479 61.4345L197.466 58.8967L200.003 57.9097C200.11 57.8684 200.211 57.8288 200.29 57.7904C200.356 57.7578 200.5 57.684 200.579 57.5297C200.665 57.361 200.663 57.1607 200.572 56.9943C200.489 56.8421 200.343 56.7721 200.276 56.7414C200.197 56.7049 200.094 56.668 199.987 56.6295L193.879 54.437Z" fill="black"/>
<rect y="6.6001" width="301.688" height="125.281" fill="url(#paint2_linear_231_1173)"/>
<defs>
<filter id="filter0_d_231_1173" x="58.4" y="9.91821e-05" width="176.2" height="118.2" filterUnits="userSpaceOnUse" color-interpolation-filters="sRGB">
<feFlood flood-opacity="0" result="BackgroundImageFix"/>
<feColorMatrix in="SourceAlpha" type="matrix" values="0 0 0 0 0 0 0 0 0 0 0 0 0 0 0 0 0 0 127 0" result="hardAlpha"/>
<feOffset dy="21"/>
<feGaussianBlur stdDeviation="23.05"/>
<feComposite in2="hardAlpha" operator="out"/>
<feColorMatrix type="matrix" values="0 0 0 0 0.439291 0 0 0 0 0.251479 0 0 0 0 0.769231 0 0 0 0.5 0"/>
<feBlend mode="normal" in2="BackgroundImageFix" result="effect1_dropShadow_231_1173"/>
<feBlend mode="normal" in="SourceGraphic" in2="effect1_dropShadow_231_1173" result="shape"/>
</filter>
<linearGradient id="paint0_linear_231_1173" x1="117" y1="97.1001" x2="101.5" y2="12.1001" gradientUnits="userSpaceOnUse">
<stop stop-color="white" stop-opacity="0"/>
<stop offset="1" stop-color="#E3A8E7"/>
</linearGradient>
<linearGradient id="paint1_linear_231_1173" x1="104.5" y1="18.397" x2="157.507" y2="38.0723" gradientUnits="userSpaceOnUse">
<stop stop-color="#DB97ED"/>
<stop offset="1" stop-color="#7984F1"/>
</linearGradient>
<linearGradient id="paint2_linear_231_1173" x1="150.844" y1="6.6001" x2="150.844" y2="131.881" gradientUnits="userSpaceOnUse">
<stop stop-color="white" stop-opacity="0"/>
<stop offset="1" stop-color="white"/>
</linearGradient>
</defs>
</svg>
