<svg width="60" height="60" viewBox="0 0 60 60" fill="none" xmlns="http://www.w3.org/2000/svg">
<rect width="59.7539" height="59.7746" rx="15" fill="#051336"/>
<mask id="mask0_416_921" style="mask-type:alpha" maskUnits="userSpaceOnUse" x="0" y="0" width="60" height="60">
<rect width="59.7539" height="59.7746" rx="15" fill="#051336"/>
</mask>
<g mask="url(#mask0_416_921)">
<path d="M28.9289 32.8373L27.0789 34.6873C26.6889 35.0773 26.0689 35.0773 25.6689 34.6973C25.5589 34.5873 25.4489 34.4873 25.3389 34.3773C24.3089 33.3373 23.3789 32.2473 22.5489 31.1073C21.7289 29.9673 21.0689 28.8273 20.5889 27.6973C20.1189 26.5573 19.8789 25.4673 19.8789 24.4273C19.8789 23.7473 19.9989 23.0973 20.2389 22.4973C20.4789 21.8873 20.8589 21.3273 21.3889 20.8273C22.0289 20.1973 22.7289 19.8873 23.4689 19.8873C23.7489 19.8873 24.0289 19.9473 24.2789 20.0673C24.5389 20.1873 24.7689 20.3673 24.9489 20.6273L27.2689 23.8973C27.4489 24.1473 27.5789 24.3773 27.6689 24.5973C27.7589 24.8073 27.8089 25.0173 27.8089 25.2073C27.8089 25.4473 27.7389 25.6873 27.5989 25.9173C27.4689 26.1473 27.2789 26.3873 27.0389 26.6273L26.2789 27.4173C26.1689 27.5273 26.1189 27.6573 26.1189 27.8173C26.1189 27.8973 26.1289 27.9673 26.1489 28.0473C26.1789 28.1273 26.2089 28.1873 26.2289 28.2473C26.4089 28.5773 26.7189 29.0073 27.1589 29.5273C27.6089 30.0473 28.0889 30.5773 28.6089 31.1073C28.7089 31.2073 28.8189 31.3073 28.9189 31.4073C29.3189 31.7973 29.3289 32.4373 28.9289 32.8373Z" fill="white"/>
<path d="M39.8485 36.2172C39.8485 36.4972 39.7985 36.7872 39.6985 37.0672C39.6685 37.1472 39.6385 37.2272 39.5985 37.3072C39.4285 37.6672 39.2085 38.0072 38.9185 38.3272C38.4285 38.8672 37.8885 39.2572 37.2785 39.5072C37.2685 39.5072 37.2585 39.5172 37.2485 39.5172C36.6585 39.7572 36.0185 39.8872 35.3285 39.8872C34.3085 39.8872 33.2185 39.6472 32.0685 39.1572C30.9185 38.6672 29.7685 38.0072 28.6285 37.1772C28.2385 36.8872 27.8485 36.5972 27.4785 36.2872L30.7485 33.0172C31.0285 33.2272 31.2785 33.3872 31.4885 33.4972C31.5385 33.5172 31.5985 33.5472 31.6685 33.5772C31.7485 33.6072 31.8285 33.6172 31.9185 33.6172C32.0885 33.6172 32.2185 33.5572 32.3285 33.4472L33.0885 32.6972C33.3385 32.4472 33.5785 32.2572 33.8085 32.1372C34.0385 31.9972 34.2685 31.9272 34.5185 31.9272C34.7085 31.9272 34.9085 31.9672 35.1285 32.0572C35.3485 32.1472 35.5785 32.2772 35.8285 32.4472L39.1385 34.7972C39.3985 34.9772 39.5785 35.1872 39.6885 35.4372C39.7885 35.6872 39.8485 35.9372 39.8485 36.2172Z" fill="white"/>
<g filter="url(#filter0_f_416_921)">
<ellipse cx="51.8322" cy="51.2495" rx="17.3186" ry="17.3186" fill="#7583F2"/>
</g>
</g>
<defs>
<filter id="filter0_f_416_921" x="0.513672" y="-0.0690918" width="102.637" height="102.637" filterUnits="userSpaceOnUse" color-interpolation-filters="sRGB">
<feFlood flood-opacity="0" result="BackgroundImageFix"/>
<feBlend mode="normal" in="SourceGraphic" in2="BackgroundImageFix" result="shape"/>
<feGaussianBlur stdDeviation="17" result="effect1_foregroundBlur_416_921"/>
</filter>
</defs>
</svg>
